<svg width="16" height="16" viewBox="0 0 16 16" fill="none" xmlns="http://www.w3.org/2000/svg">
<path d="M8.27484 6.27622L4.66536 2.66675H10.083C10.6972 2.66675 11.0043 2.66675 11.2731 2.79263C11.5418 2.91851 11.7384 3.15443 12.1316 3.62626L14.6654 6.66675H9.21765C8.94515 6.66675 8.8089 6.66675 8.68639 6.616C8.56387 6.56525 8.46753 6.46891 8.27484 6.27622Z" fill="black"/>
<path d="M1.33203 6.66675L4.66536 2.66675M4.66536 2.66675L8.27484 6.27622C8.46753 6.46891 8.56387 6.56525 8.68639 6.616C8.8089 6.66675 8.94515 6.66675 9.21765 6.66675H14.6654L12.1316 3.62626C11.7384 3.15443 11.5418 2.91851 11.2731 2.79263C11.0043 2.66675 10.6972 2.66675 10.083 2.66675H4.66536Z" stroke="black" stroke-width="1.5" stroke-linecap="round" stroke-linejoin="round"/>
<path d="M7.33333 5.33337V13.3334H2V5.9048" stroke="black" stroke-width="1.5" stroke-linecap="round" stroke-linejoin="round"/>
<path d="M7.33203 13.3333H13.9987V6" stroke="black" stroke-width="1.5" stroke-linecap="round" stroke-linejoin="round"/>
<path d="M2.66406 5.00008L2.66406 2.66675" stroke="black" stroke-width="1.5" stroke-linecap="round" stroke-linejoin="round"/>
<path d="M4.672 8L4.66602 8" stroke="black" stroke-width="2" stroke-linecap="round" stroke-linejoin="round"/>
<path d="M4.66406 13.3334V10.6667" stroke="black" stroke-width="1.5" stroke-linecap="round" stroke-linejoin="round"/>
</svg>
