<svg width="17" height="16" viewBox="0 0 17 16" fill="none" xmlns="http://www.w3.org/2000/svg">
<g clip-path="url(#clip0_209_1494)">
<path d="M1.66797 6.66602L5.0013 2.66602M5.0013 2.66602L8.61078 6.27549C8.80346 6.46818 8.89981 6.56452 9.02232 6.61527C9.14484 6.66602 9.28109 6.66602 9.55359 6.66602H15.0013L12.4676 3.62552C12.0744 3.15369 11.8778 2.91778 11.609 2.7919C11.3402 2.66602 11.0332 2.66602 10.419 2.66602H5.0013Z" stroke="#5B3615" stroke-width="1.5" stroke-linecap="round" stroke-linejoin="round"/>
<path d="M7.66732 5.33301V13.333H2.33398V5.90444" stroke="#5B3615" stroke-width="1.5" stroke-linecap="round" stroke-linejoin="round"/>
<path d="M7.66797 13.3333H14.3346V6" stroke="#5B3615" stroke-width="1.5" stroke-linecap="round" stroke-linejoin="round"/>
<path d="M3.00195 4.99935L3.00195 2.66602" stroke="#5B3615" stroke-width="1.5" stroke-linecap="round" stroke-linejoin="round"/>
<path d="M5.00599 8L5 8" stroke="#5B3615" stroke-width="2" stroke-linecap="round" stroke-linejoin="round"/>
<path d="M5.00195 13.3327V10.666" stroke="#5B3615" stroke-width="1.5" stroke-linecap="round" stroke-linejoin="round"/>
<path d="M10.3346 9.33301L11.668 9.33301" stroke="#5B3615" stroke-width="1.5" stroke-linecap="round" stroke-linejoin="round"/>
</g>
<defs>
<clipPath id="clip0_209_1494">
<rect width="16" height="16" fill="white" transform="translate(0.333984)"/>
</clipPath>
</defs>
</svg>
