<svg width="24" height="24" viewBox="0 0 24 24" fill="none" xmlns="http://www.w3.org/2000/svg">
<rect width="24" height="24" rx="12" fill="#5E5E5E"/>
<circle cx="12" cy="12" r="4" stroke="white" stroke-width="1.5"/>
<path d="M9.33398 18.6667L11.1235 13.5679C11.4904 12.5226 11.6738 12 12.0007 12C12.3275 12 12.5109 12.5226 12.8778 13.5679L14.6673 18.6667" stroke="white" stroke-width="1.5" stroke-linecap="round" stroke-linejoin="round"/>
<path d="M13.3327 6.66732C13.3327 7.4037 12.7357 8.00065 11.9993 8.00065C11.263 8.00065 10.666 7.4037 10.666 6.66732C10.666 5.93094 11.263 5.33398 11.9993 5.33398C12.7357 5.33398 13.3327 5.93094 13.3327 6.66732Z" stroke="white" stroke-width="1.5"/>
<path d="M16.6667 10.6667C15.9303 10.6667 15.3333 10.0697 15.3333 9.33333C15.3333 8.59695 15.9303 8 16.6667 8C17.403 8 18 8.59695 18 9.33333C18 10.0697 17.403 10.6667 16.6667 10.6667Z" stroke="white" stroke-width="1.5"/>
<path d="M8.66667 14.6673C8.66667 15.4037 8.06971 16.0007 7.33333 16.0007C6.59695 16.0007 6 15.4037 6 14.6673C6 13.9309 6.59695 13.334 7.33333 13.334C8.06971 13.334 8.66667 13.9309 8.66667 14.6673Z" stroke="white" stroke-width="1.5"/>
<path d="M8.66667 9.16732C8.66667 9.9037 8.06971 10.5007 7.33333 10.5007C6.59695 10.5007 6 9.9037 6 9.16732C6 8.43094 6.59695 7.83398 7.33333 7.83398C8.06971 7.83398 8.66667 8.43094 8.66667 9.16732Z" stroke="white" stroke-width="1.5"/>
<path d="M18.0007 14.6673C18.0007 15.4037 17.4037 16.0007 16.6673 16.0007C15.9309 16.0007 15.334 15.4037 15.334 14.6673C15.334 13.9309 15.9309 13.334 16.6673 13.334C17.4037 13.334 18.0007 13.9309 18.0007 14.6673Z" stroke="white" stroke-width="1.5"/>
</svg>
