<svg width="21" height="21" viewBox="0 0 21 21" fill="none" xmlns="http://www.w3.org/2000/svg">
<g id="Icons">
<circle id="Ellipse 2335" cx="10" cy="10" r="10" fill="#FF4E3E"/>
<path id="Vector" d="M10.0182 7.30833C10.1825 7.13489 10.3357 6.95254 10.5098 6.79244C11.4501 5.92687 12.7138 5.75509 13.6953 6.3527C14.7064 6.96866 15.215 8.26396 14.914 9.49033C14.641 10.6038 13.977 11.4828 13.2273 12.3039C12.3107 13.3078 11.2518 14.1456 10.1627 14.9456C10.0946 14.9956 9.94191 15.0206 9.88534 14.9789C8.38926 13.876 6.93273 12.7258 5.8612 11.1653C5.38118 10.4671 5.0176 9.71325 5.00057 8.83768C4.97805 7.68358 5.62119 6.62733 6.58947 6.20427C7.56104 5.77955 8.73472 6.03972 9.56514 6.8636C9.70739 7.0048 9.85128 7.14434 10.0182 7.30833Z" fill="white"/>
</g>
</svg>
