<svg width="24" height="24" viewBox="0 0 24 24" fill="none" xmlns="http://www.w3.org/2000/svg">
<circle cx="12" cy="12" r="12" fill="#5E5E5E"/>
<path d="M17.1657 11H18.0922C19.3265 11 19.6934 11.177 19.6637 12.0559C19.6145 13.5116 18.9581 15.2031 16.332 15.6667" stroke="white" stroke-width="1.2" stroke-linecap="round"/>
<path d="M8.96288 17.7429C6.71327 16.0133 6.38182 13.56 6.33298 11C6.31189 9.89416 6.63287 9.66663 8.10482 9.66663H15.2259C16.6979 9.66663 17.0188 9.89416 16.9977 11C16.9489 13.56 16.6175 16.0133 14.3679 17.7429C13.7276 18.2352 13.1875 18.3333 12.2783 18.3333H11.0525C10.1433 18.3333 9.60308 18.2352 8.96288 17.7429Z" fill="white" stroke="white" stroke-width="1.2" stroke-linecap="round"/>
<path d="M12.5367 5.66663C12.1722 5.89237 11.6649 6.66663 11.6649 7.66663M10.0239 6.66663C10.0239 6.66663 9.66406 6.99996 9.66406 7.66663M14.3316 6.66663C14.1493 6.7795 13.9974 7.33329 13.9974 7.66663" stroke="white" stroke-width="1.2" stroke-linecap="round" stroke-linejoin="round"/>
</svg>
