<svg width="16" height="16" viewBox="0 0 16 16" fill="none" xmlns="http://www.w3.org/2000/svg">
<path d="M12.1657 7H13.0922C14.3265 7 14.6934 7.17701 14.6637 8.05586C14.6145 9.51158 13.9581 11.2031 11.332 11.6667" stroke="#080808" stroke-width="1.2" stroke-linecap="round"/>
<path d="M3.96288 13.7431C1.71327 12.0134 1.38182 9.56012 1.33298 7.00016C1.31189 5.89428 1.63287 5.66675 3.10482 5.66675H10.2259C11.6979 5.66675 12.0188 5.89428 11.9977 7.00016C11.9489 9.56012 11.6175 12.0134 9.36785 13.7431C8.72765 14.2353 8.18746 14.3334 7.27827 14.3334H6.05246C5.14327 14.3334 4.60308 14.2353 3.96288 13.7431Z" fill="#080808" stroke="#080808" stroke-width="1.2" stroke-linecap="round"/>
<path d="M7.53669 1.66675C7.17216 1.89249 6.66489 2.66675 6.66489 3.66675M5.02387 2.66675C5.02387 2.66675 4.66406 3.00008 4.66406 3.66675M9.33156 2.66675C9.1493 2.77962 8.9974 3.33341 8.9974 3.66675" stroke="#080808" stroke-width="1.2" stroke-linecap="round" stroke-linejoin="round"/>
</svg>
