<svg width="16" height="16" viewBox="0 0 16 16" fill="none" xmlns="http://www.w3.org/2000/svg">
<g clip-path="url(#clip0_334_1914)">
<path d="M12.1677 7H13.0942C14.3285 7 14.6954 7.17701 14.6657 8.05586C14.6165 9.51158 13.96 11.2031 11.334 11.6667" stroke="#F75900" stroke-width="1.5" stroke-linecap="round"/>
<path d="M3.96483 13.7423C1.71522 12.0127 1.38377 9.55938 1.33494 6.99943C1.31384 5.89355 1.63483 5.66602 3.10677 5.66602H10.2279C11.6998 5.66602 12.0208 5.89355 11.9997 6.99943C11.9509 9.55938 11.6194 12.0127 9.36981 13.7423C8.7296 14.2345 8.18941 14.3327 7.28022 14.3327H6.05441C5.14522 14.3327 4.60504 14.2345 3.96483 13.7423Z" stroke="#F75900" stroke-width="1.5" stroke-linecap="round"/>
<path d="M7.54059 1.66602C7.17607 1.89176 6.6688 2.66602 6.6688 3.66602M5.02777 2.66602C5.02777 2.66602 4.66797 2.99935 4.66797 3.66602M9.33547 2.66602C9.1532 2.77889 9.0013 3.33268 9.0013 3.66602" stroke="#F75900" stroke-width="1.5" stroke-linecap="round" stroke-linejoin="round"/>
</g>
<defs>
<clipPath id="clip0_334_1914">
<rect width="16" height="16" fill="white"/>
</clipPath>
</defs>
</svg>
