<svg width="16" height="16" viewBox="0 0 16 16" fill="none" xmlns="http://www.w3.org/2000/svg">
<path d="M12.1657 7H13.0922C14.3265 7 14.6934 7.17701 14.6637 8.05586C14.6145 9.51158 13.9581 11.2031 11.332 11.6667" stroke="white" stroke-width="1.2" stroke-linecap="round"/>
<path d="M3.96288 13.7429C1.71327 12.0133 1.38182 9.55999 1.33298 7.00004C1.31189 5.89416 1.63287 5.66663 3.10482 5.66663H10.2259C11.6979 5.66663 12.0188 5.89416 11.9977 7.00004C11.9489 9.55999 11.6175 12.0133 9.36785 13.7429C8.72765 14.2352 8.18746 14.3333 7.27827 14.3333H6.05246C5.14327 14.3333 4.60308 14.2352 3.96288 13.7429Z" fill="white" stroke="white" stroke-width="1.2" stroke-linecap="round"/>
<path d="M7.53669 1.66663C7.17216 1.89237 6.66489 2.66663 6.66489 3.66663M5.02387 2.66663C5.02387 2.66663 4.66406 2.99996 4.66406 3.66663M9.33156 2.66663C9.1493 2.7795 8.9974 3.33329 8.9974 3.66663" stroke="white" stroke-width="1.2" stroke-linecap="round" stroke-linejoin="round"/>
</svg>
