<svg width="58" height="72" viewBox="0 0 58 72" fill="none" xmlns="http://www.w3.org/2000/svg">
<path d="M29 1C13.536 1 1 13.6624 1 29.2823C1 38.2138 4.5 45.1584 11.5 51.3615C16.434 55.7338 22.4113 62.996 26.0001 68.8828C27.7211 71.7057 30.1551 71.7057 31.9999 68.8828C35.7704 63.113 41.566 55.7338 46.5 51.3615C53.5 45.1584 57 38.2138 57 29.2823C57 13.6624 44.464 1 29 1Z" fill="#D3FBD4" stroke="#17AA1A" stroke-linejoin="round"/>
<ellipse cx="29.5" cy="29" rx="20.5" ry="20" fill="#080808"/>
<path d="M37.0097 26.9375H38.4573C40.3859 26.9375 40.9592 27.2141 40.9128 28.5873C40.8359 30.8618 39.8102 33.5048 35.707 34.2292" stroke="white" stroke-width="1.2" stroke-linecap="round"/>
<path d="M24.1927 37.4735C20.6777 34.771 20.1598 30.9376 20.0835 26.9377C20.0506 25.2098 20.5521 24.8542 22.852 24.8542H33.9787C36.2786 24.8542 36.7802 25.2098 36.7472 26.9377C36.6709 30.9376 36.153 34.771 32.638 37.4735C31.6377 38.2426 30.7936 38.3959 29.373 38.3959H27.4577C26.0371 38.3959 25.193 38.2426 24.1927 37.4735Z" fill="white" stroke="white" stroke-width="1.2" stroke-linecap="round"/>
<path d="M29.7775 18.6042C29.208 18.957 28.4154 20.1667 28.4154 21.7292M25.8513 20.1667C25.8513 20.1667 25.2891 20.6876 25.2891 21.7292M32.582 20.1667C32.2972 20.3431 32.0599 21.2084 32.0599 21.7292" stroke="white" stroke-width="1.2" stroke-linecap="round" stroke-linejoin="round"/>
</svg>
