<svg width="20" height="20" viewBox="0 0 20 20" fill="none" xmlns="http://www.w3.org/2000/svg">
<path d="M1 5H19M7.75 9V15M12.25 9V15M2.125 5L3.25 17C3.25 17.5304 3.48705 18.0391 3.90901 18.4142C4.33097 18.7893 4.90326 19 5.5 19H14.5C15.0967 19 15.669 18.7893 16.091 18.4142C16.5129 18.0391 16.75 17.5304 16.75 17L17.875 5M6.625 5V2C6.625 1.73478 6.74353 1.48043 6.95451 1.29289C7.16548 1.10536 7.45163 1 7.75 1H12.25C12.5484 1 12.8345 1.10536 13.0455 1.29289C13.2565 1.48043 13.375 1.73478 13.375 2V5" stroke="#5E5E5E" stroke-width="1.5" stroke-linecap="round" stroke-linejoin="round"/>
</svg>
