<svg width="14" height="13" viewBox="0 0 14 13" fill="none" xmlns="http://www.w3.org/2000/svg">
<g id="Group">
<path id="Vector" d="M9.62184 6.95369C8.97467 5.90923 7.87223 5.28607 6.67247 5.28607C5.4727 5.28607 4.37081 5.9098 3.72309 6.95369L2.16318 9.4702C1.9042 9.88753 1.78488 10.3702 1.81788 10.8649C1.85087 11.3596 2.03287 11.8207 2.34463 12.1976C2.65639 12.5746 3.06823 12.8322 3.53615 12.9425C4.00406 13.0528 4.48298 13.0056 4.92231 12.806L4.95145 12.7924C6.05664 12.3 7.31964 12.3045 8.42208 12.806C8.70635 12.9351 9.00766 13.0005 9.31173 13.0005C9.47723 13.0005 9.64329 12.9811 9.80824 12.9425C10.2762 12.8322 10.688 12.5746 10.9998 12.1976C11.3115 11.8207 11.4935 11.3596 11.5265 10.8649C11.5595 10.3702 11.4402 9.88753 11.1812 9.4702L9.62129 6.95426L9.62184 6.95369Z" fill="#080808"/>
<path id="Vector_2" d="M2.12804 6.00513C2.51073 5.85332 2.80105 5.53435 2.94621 5.10792C3.08422 4.70196 3.07322 4.24312 2.91432 3.81669C2.75541 3.39026 2.46674 3.0423 2.10054 2.83704C1.7162 2.62098 1.29392 2.58573 0.912327 2.73811C0.144191 3.04343 -0.208259 4.02479 0.126597 4.92655C0.394373 5.64408 1.0179 6.09724 1.64912 6.09724C1.81023 6.09724 1.97188 6.06767 2.12804 6.0057V6.00513Z" fill="#080808"/>
<path id="Vector_3" d="M5.31558 4.10339C6.27562 4.10339 7.05695 3.18287 7.05695 2.05198C7.05695 0.921088 6.27562 0 5.31558 0C4.35555 0 3.57422 0.920519 3.57422 2.05198C3.57422 3.18344 4.35555 4.10339 5.31558 4.10339Z" fill="#080808"/>
<path id="Vector_4" d="M9.07678 4.60708C9.22469 4.65768 9.37535 4.68213 9.52546 4.68213C10.226 4.68213 10.9083 4.15507 11.1684 3.34485C11.3185 2.87862 11.3086 2.38567 11.1404 1.95696C10.965 1.50779 10.6389 1.182 10.2238 1.03929C9.80808 0.896577 9.35885 0.956277 8.95802 1.20702C8.57532 1.44639 8.28226 1.83529 8.13215 2.30152C7.81599 3.28515 8.23937 4.31938 9.07623 4.60708H9.07678Z" fill="#080808"/>
<path id="Vector_5" d="M13.4441 4.64508C12.7821 4.13905 11.7919 4.35795 11.2365 5.13405C10.6817 5.91016 10.7686 6.95292 11.4295 7.45952C11.6709 7.6443 11.9557 7.73243 12.2471 7.73243C12.7552 7.73243 13.2841 7.46406 13.6377 6.97111C14.1925 6.19501 14.1056 5.15225 13.4441 4.64565V4.64508Z" fill="#080808"/>
</g>
</svg>
