<svg width="3" height="15" viewBox="0 0 3 15" fill="none" xmlns="http://www.w3.org/2000/svg">
<path d="M1.5 2.93478C0.671573 2.93478 -3.62117e-08 2.27781 0 1.46739C3.62117e-08 0.656973 0.671573 -3.54245e-08 1.5 0C2.32843 3.54245e-08 3 0.656973 3 1.46739C3 2.27781 2.32843 2.93478 1.5 2.93478Z" fill="#7E7E7E"/>
<path d="M1.5 8.96739C0.671573 8.96739 -3.62117e-08 8.31042 0 7.5C3.62117e-08 6.68958 0.671573 6.03261 1.5 6.03261C2.32843 6.03261 3 6.68958 3 7.5C3 8.31042 2.32843 8.96739 1.5 8.96739Z" fill="#7E7E7E"/>
<path d="M1.5 15C0.671573 15 -3.62117e-08 14.343 0 13.5326C3.62117e-08 12.7222 0.671573 12.0652 1.5 12.0652C2.32843 12.0652 3 12.7222 3 13.5326C3 14.343 2.32843 15 1.5 15Z" fill="#7E7E7E"/>
</svg>
