<svg width="18" height="18" viewBox="0 0 18 18" fill="none" xmlns="http://www.w3.org/2000/svg">
<path d="M12.8616 2.56719L14.1466 1.28224C14.8562 0.572586 16.0068 0.572585 16.7165 1.28224C17.4261 1.9919 17.4261 3.14248 16.7165 3.85214L15.4315 5.13709M12.8616 2.56719L8.0639 7.3649C7.10571 8.32309 6.62661 8.8022 6.30037 9.38602C5.97413 9.96984 5.6459 11.3484 5.33203 12.6667C6.65028 12.3528 8.02886 12.0246 8.61268 11.6983C9.1965 11.3721 9.6756 10.893 10.6338 9.93479L15.4315 5.13709M12.8616 2.56719L15.4315 5.13709" stroke="#5E5E5E" stroke-width="1.5" stroke-linecap="round" stroke-linejoin="round"/>
<path d="M17.25 9C17.25 12.8891 17.25 14.8336 16.0418 16.0418C14.8336 17.25 12.8891 17.25 9 17.25C5.11091 17.25 3.16637 17.25 1.95818 16.0418C0.75 14.8336 0.75 12.8891 0.75 9C0.75 5.11091 0.75 3.16637 1.95818 1.95818C3.16637 0.75 5.11091 0.75 9 0.75" stroke="#5E5E5E" stroke-width="1.5" stroke-linecap="round"/>
</svg>
