<svg width="16" height="16" viewBox="0 0 16 16" fill="none" xmlns="http://www.w3.org/2000/svg">
<path d="M4.80309 4.24671L1.80773 4.70892C1.53656 4.73916 1.28026 4.84633 1.06674 5.01667L1.06673 5.01668C0.842147 5.19588 0.674899 5.43683 0.582323 5.70857C0.489787 5.98021 0.474988 6.27319 0.53932 6.55284L0.539322 6.55284C0.60331 6.83098 0.743492 7.08661 0.945837 7.28803C0.946205 7.2884 0.946573 7.28877 0.946942 7.28913L3.15745 9.51067L2.62967 12.7279C2.62964 12.7281 2.62961 12.7283 2.62958 12.7285C2.58399 13.0032 2.6127 13.2874 2.71418 13.5478C2.81575 13.8085 2.98661 14.037 3.20989 14.2056L3.21006 14.2058C3.43355 14.3744 3.70022 14.476 3.98 14.4962C3.98002 14.4962 3.98005 14.4962 3.98007 14.4962L4.0161 13.9975M4.80309 4.24671L10.2165 14.3187L7.50002 12.8233L4.78203 14.3195C4.782 14.3195 4.78198 14.3195 4.78195 14.3196L4.78161 14.3198L4.54048 13.8817M4.80309 4.24671L6.17315 1.36566C6.28865 1.11303 6.47127 0.896189 6.70292 0.74203L4.80309 4.24671ZM4.0161 13.9975C4.19786 14.0107 4.37951 13.9705 4.54048 13.8817M4.0161 13.9975C3.83398 13.9844 3.65906 13.9182 3.51125 13.8067L4.0161 13.9975ZM4.54048 13.8817L7.46672 12.2708L4.54048 13.8817ZM11.0202 14.4962C11.2999 14.4759 11.5665 14.3744 11.7899 14.2058L11.7902 14.2056C12.0134 14.037 12.1843 13.8085 12.2859 13.5476C12.3872 13.2876 12.4162 13.0044 12.3706 12.7295C12.3706 12.7294 12.3706 12.7292 12.3706 12.7291L11.8426 9.51065L14.0532 7.28902C14.0535 7.28869 14.0539 7.28835 14.0542 7.28802C14.2564 7.08666 14.3967 6.83107 14.4607 6.55288L14.4608 6.55268C14.5249 6.27321 14.5103 5.98026 14.4176 5.70849M11.0202 14.4962L13.9333 5.01669M11.0202 14.4962C10.7406 14.5166 10.462 14.4543 10.2174 14.3192L11.0202 14.4962ZM14.4176 5.70849C14.4177 5.70856 14.4177 5.70863 14.4177 5.7087L13.9444 5.86981L14.4176 5.70849ZM14.4176 5.70849C14.3251 5.43672 14.1578 5.19582 13.9333 5.01669M13.9333 5.01669L13.6214 5.40752M13.9333 5.01669L13.6214 5.40752M13.6214 5.40752C13.4781 5.29317 13.307 5.22303 13.1276 5.20485M13.6214 5.40752L13.9332 5.01666C13.7198 4.84633 13.4635 4.73917 13.1923 4.70893M13.1276 5.20485L13.2038 4.7107L13.1923 4.70893M13.1276 5.20485L13.178 4.7074C13.1828 4.70788 13.1875 4.70839 13.1923 4.70893M13.1276 5.20485L13.1923 4.70893M13.1923 4.70893L10.1969 4.24671L8.82684 1.36563C8.71134 1.113 8.52873 0.896179 8.2971 0.742029L8.29709 0.742022C8.06078 0.584769 7.78416 0.5 7.5 0.5C7.21585 0.5 6.93923 0.584766 6.70293 0.742025L13.1923 4.70893ZM3.19695 9.26988L3.19635 9.27355L3.19695 9.26988Z" fill="#F4E600" stroke="#FFB702"/>
</svg>
