<svg width="58" height="72" viewBox="0 0 58 72" fill="none" xmlns="http://www.w3.org/2000/svg">
<path d="M29 1C13.536 1 1 13.6624 1 29.2823C1 38.2138 4.5 45.1584 11.5 51.3615C16.434 55.7338 22.4113 62.996 26.0001 68.8828C27.7211 71.7057 30.1551 71.7057 31.9999 68.8828C35.7704 63.113 41.566 55.7338 46.5 51.3615C53.5 45.1584 57 38.2138 57 29.2823C57 13.6624 44.464 1 29 1Z" fill="#D3FBD4" stroke="#17AA1A" stroke-linejoin="round"/>
<ellipse cx="29.5" cy="29" rx="20.5" ry="20" fill="#080808"/>
<path d="M39.9154 29.5C39.9154 23.7471 35.2517 19.0834 29.4987 19.0834C23.7457 19.0834 19.082 23.7471 19.082 29.5C19.082 35.253 23.7457 39.9167 29.4987 39.9167C30.3755 39.9167 31.582 40.0379 31.582 38.875C31.582 38.2407 31.2521 37.7512 30.9243 37.2651C30.4447 36.5537 29.9699 35.8493 30.5404 34.7084C31.2348 33.3195 32.3922 33.3195 34.1669 33.3195C35.0543 33.3195 36.096 33.3195 37.3112 33.1459C39.4997 32.8332 39.9154 31.488 39.9154 29.5Z" fill="white" stroke="white" stroke-width="1.5"/>
<path fill-rule="evenodd" clip-rule="evenodd" d="M24.2891 32.6276L24.297 32.6254L24.2891 32.6276Z" fill="black"/>
<path d="M24.2891 32.6276L24.297 32.6254" stroke="black" stroke-width="2" stroke-linecap="round" stroke-linejoin="round"/>
<circle cx="26.8945" cy="25.8542" r="1.5625" fill="black" stroke="black" stroke-width="1.5"/>
<ellipse cx="34.1875" cy="26.8959" rx="1.5625" ry="1.5625" fill="black" stroke="black" stroke-width="1.5"/>
</svg>
