<svg width="24" height="24" viewBox="0 0 24 24" fill="none" xmlns="http://www.w3.org/2000/svg">
<rect width="24" height="24" rx="12" fill="#5E5E5E"/>
<g clip-path="url(#clip0_578_2751)">
<path d="M18.6654 12C18.6654 8.31808 15.6806 5.33331 11.9987 5.33331C8.3168 5.33331 5.33203 8.31808 5.33203 12C5.33203 15.6819 8.3168 18.6666 11.9987 18.6666C12.5599 18.6666 13.332 18.7442 13.332 18C13.332 17.594 13.1209 17.2808 12.9111 16.9696C12.6042 16.5143 12.3003 16.0635 12.6654 15.3333C13.1098 14.4444 13.8506 14.4444 14.9864 14.4444C15.5543 14.4444 16.2209 14.4444 16.9987 14.3333C18.3994 14.1332 18.6654 13.2722 18.6654 12Z" fill="white" stroke="white" stroke-width="1.5"/>
<path fill-rule="evenodd" clip-rule="evenodd" d="M8.66406 14.0016L8.66912 14.0002L8.66406 14.0016Z" fill="#5E5E5E"/>
<path d="M8.66406 14.0016L8.66912 14.0002" stroke="#5E5E5E" stroke-width="2" stroke-linecap="round" stroke-linejoin="round"/>
<circle cx="10.332" cy="9.66663" r="1" fill="#5E5E5E" stroke="#5E5E5E" stroke-width="1.5"/>
<circle cx="15" cy="10.3333" r="1" fill="#5E5E5E" stroke="#5E5E5E" stroke-width="1.5"/>
</g>
<defs>
<clipPath id="clip0_578_2751">
<rect width="16" height="16" fill="white" transform="translate(4 4)"/>
</clipPath>
</defs>
</svg>
