<svg width="16" height="16" viewBox="0 0 16 16" fill="none" xmlns="http://www.w3.org/2000/svg">
<g clip-path="url(#clip0_1023_3426)">
<path d="M14.6654 8.00004C14.6654 4.31814 11.6806 1.33337 7.9987 1.33337C4.3168 1.33337 1.33203 4.31814 1.33203 8.00004C1.33203 11.6819 4.3168 14.6667 7.9987 14.6667C8.55986 14.6667 9.33201 14.7442 9.33203 14C9.33204 13.5941 9.12086 13.2808 8.91109 12.9697C8.60416 12.5144 8.30026 12.0636 8.66536 11.3334C9.10981 10.4445 9.85056 10.4445 10.9864 10.4445C11.5543 10.4445 12.2209 10.4445 12.9987 10.3334C14.3994 10.1333 14.6654 9.27231 14.6654 8.00004Z" fill="black" stroke="black" stroke-width="1.5"/>
<path fill-rule="evenodd" clip-rule="evenodd" d="M4.66406 10.0017L4.66912 10.0004Z" fill="white"/>
<path d="M4.66406 10.0017L4.66912 10.0004" stroke="white" stroke-width="2" stroke-linecap="round" stroke-linejoin="round"/>
<circle cx="6.33203" cy="5.66675" r="1" fill="white" stroke="white" stroke-width="1.5"/>
<circle cx="11" cy="6.33337" r="1" fill="white" stroke="white" stroke-width="1.5"/>
</g>
<defs>
<clipPath id="clip0_1023_3426">
<rect width="16" height="16" fill="white"/>
</clipPath>
</defs>
</svg>
