<svg width="24" height="24" viewBox="0 0 24 24" fill="none" xmlns="http://www.w3.org/2000/svg">
<rect width="24" height="24" rx="12" fill="#5E5E5E"/>
<path d="M5.33398 10.666L8.66732 6.66602M8.66732 6.66602L12.2768 10.2755C12.4695 10.4682 12.5658 10.5645 12.6883 10.6153C12.8109 10.666 12.9471 10.666 13.2196 10.666H18.6673L16.1336 7.62552C15.7404 7.15369 15.5438 6.91778 15.275 6.7919C15.0063 6.66602 14.6992 6.66602 14.085 6.66602H8.66732Z" stroke="white" stroke-width="1.5" stroke-linecap="round" stroke-linejoin="round"/>
<path d="M11.3333 9.33301V17.333H6V9.90444" stroke="white" stroke-width="1.5" stroke-linecap="round" stroke-linejoin="round"/>
<path d="M11.334 17.3333H18.0007V10" stroke="white" stroke-width="1.5" stroke-linecap="round" stroke-linejoin="round"/>
<path d="M6.66797 8.99935V6.66602" stroke="white" stroke-width="1.5" stroke-linecap="round" stroke-linejoin="round"/>
<path d="M8.672 12L8.66602 12" stroke="white" stroke-width="2" stroke-linecap="round" stroke-linejoin="round"/>
<path d="M8.66797 17.3327V14.666" stroke="white" stroke-width="1.5" stroke-linecap="round" stroke-linejoin="round"/>
<path d="M14.0007 13.333L15.334 13.333" stroke="white" stroke-width="1.5" stroke-linecap="round" stroke-linejoin="round"/>
</svg>
