<svg width="42" height="42" viewBox="0 0 42 42" fill="none" xmlns="http://www.w3.org/2000/svg">
<circle cx="21" cy="21" r="20" fill="#F0F0F0" stroke="#5E5E5E" stroke-width="2"/>
<path d="M17.2496 33.2977L16.9363 28.9439C16.7679 26.6031 18.6355 24.6121 20.9996 24.6121C23.3637 24.6121 25.2314 26.6031 25.0629 28.9439L24.7496 33.2977" stroke="#5E5E5E" stroke-width="1.5"/>
<path d="M8.93924 22.3953C8.49796 19.5449 8.27733 18.1197 8.82021 16.8563C9.36309 15.5928 10.5675 14.7283 12.9764 12.9994L14.7762 11.7077C17.7729 9.55694 19.2712 8.48157 21 8.48157C22.7288 8.48157 24.2271 9.55694 27.2238 11.7077L29.0236 12.9994C31.4325 14.7283 32.6369 15.5928 33.1798 16.8563C33.7227 18.1197 33.502 19.5449 33.0608 22.3953L32.6845 24.826C32.0589 28.8667 31.7461 30.8871 30.2862 32.0924C28.8264 33.2977 26.6921 33.2977 22.4235 33.2977H19.5765C15.3079 33.2977 13.1736 33.2977 11.7137 32.0924C10.2539 30.8871 9.94109 28.8667 9.31553 24.826L8.93924 22.3953Z" stroke="#5E5E5E" stroke-width="1.5" stroke-linejoin="round"/>
</svg>
