<svg width="23" height="21" viewBox="0 0 23 21" fill="none" xmlns="http://www.w3.org/2000/svg">
<path fill-rule="evenodd" clip-rule="evenodd" d="M11.2405 0C5.01808 0 0 4.01442 0 8.88798C0 12.0514 2.08752 14.8213 5.2188 16.403L4.15898 20.3613C4.139 20.4207 4.13593 20.4843 4.15011 20.5453C4.16429 20.6063 4.19516 20.6621 4.23927 20.7065C4.30359 20.7633 4.38635 20.7946 4.47211 20.7948C4.54322 20.7891 4.61068 20.761 4.6648 20.7146L9.22524 17.6395C9.89841 17.7324 10.577 17.7807 11.2566 17.784C17.4709 17.784 22.4971 13.7696 22.4971 8.88798C22.4971 4.00639 17.4549 0 11.2405 0ZM3.93367 7.48289H2.70524C2.55299 7.48731 2.40261 7.44831 2.27168 7.37047C2.21355 7.33405 2.16357 7.28599 2.12489 7.22934C2.0862 7.17269 2.05964 7.10866 2.04687 7.04126C2.04297 6.99853 2.04297 6.9556 2.04687 6.91287C2.04306 6.83291 2.05858 6.75317 2.09212 6.68049C2.12567 6.60781 2.17624 6.54432 2.23956 6.49535C2.37954 6.39397 2.54849 6.34042 2.7213 6.34275H6.42263C6.5761 6.33735 6.7275 6.37943 6.8562 6.4632C6.9157 6.49801 6.96673 6.54564 7.00561 6.60257C7.04448 6.6595 7.07023 6.72432 7.08101 6.79241C7.08493 6.83246 7.08493 6.87282 7.08101 6.91287C7.08479 6.99398 7.06931 7.07481 7.03581 7.14877C7.00232 7.22274 6.95177 7.28766 6.88831 7.33833C6.75175 7.43958 6.58443 7.49066 6.4146 7.48289H5.22633V11.7061C5.23115 11.7961 5.21723 11.886 5.18544 11.9703C5.15365 12.0547 5.10469 12.1315 5.04166 12.1959C4.98122 12.2574 4.90857 12.3057 4.82836 12.3375C4.74816 12.3693 4.66219 12.3839 4.57598 12.3805C4.42519 12.3848 4.2776 12.3366 4.15848 12.2441C4.04506 12.1537 3.96809 12.0253 3.9417 11.8827C3.93376 11.8241 3.93376 11.7647 3.9417 11.7061L3.93367 7.48289ZM7.6684 6.33472C7.55381 6.40937 7.47087 6.52378 7.43556 6.6559L5.73342 11.2725C5.7244 11.2974 5.71347 11.3228 5.70243 11.3486L5.70242 11.3486C5.67416 11.4144 5.64511 11.4821 5.64511 11.5456C5.63132 11.6253 5.63132 11.7067 5.64511 11.7864C5.64085 11.8318 5.64085 11.8775 5.64511 11.9229C5.66863 12.0561 5.74002 12.1759 5.84583 12.2601C5.95443 12.3416 6.08742 12.3841 6.22319 12.3805C6.34853 12.3963 6.47545 12.3681 6.58233 12.3008C6.6892 12.2334 6.76942 12.1311 6.8093 12.0112L7.14652 11.0237H9.25812L9.59534 12.0112C9.63621 12.1288 9.71547 12.2291 9.82034 12.2961C9.92521 12.3631 10.0496 12.3928 10.1734 12.3805C10.2539 12.3825 10.334 12.3678 10.4086 12.3374C10.4832 12.307 10.5507 12.2616 10.607 12.2039C10.665 12.1514 10.7109 12.0868 10.7414 12.0147C10.7719 11.9425 10.7863 11.8647 10.7836 11.7864C10.7864 11.7356 10.7864 11.6847 10.7836 11.6339C10.7557 11.5116 10.7209 11.3909 10.6792 11.2725L9.07346 6.73617C9.03507 6.57542 8.93762 6.43499 8.80047 6.34276C8.67105 6.26919 8.52372 6.23305 8.37494 6.23838H8.06985C7.92963 6.23213 7.7905 6.26552 7.6684 6.33472ZM7.4757 10.1164L8.23845 7.70774L8.99317 10.1164H7.4757ZM10.9675 6.91296C10.9593 6.73278 11.0228 6.55671 11.1441 6.42321C11.2058 6.36102 11.2798 6.31241 11.3614 6.28061C11.443 6.2488 11.5304 6.23441 11.6178 6.23846C11.7682 6.23671 11.915 6.28473 12.0353 6.37499C12.1469 6.46917 12.2209 6.60017 12.2441 6.74429C12.252 6.80021 12.252 6.85704 12.2441 6.91296V11.1362H14.452C14.6051 11.1342 14.7555 11.1759 14.8856 11.2565C14.9441 11.2926 14.9943 11.3406 15.033 11.3973C15.0718 11.454 15.0981 11.5182 15.1104 11.5858V11.7062C15.1142 11.7862 15.0987 11.8658 15.0652 11.9385C15.0316 12.0112 14.981 12.0748 14.9177 12.1237C14.7778 12.2251 14.6088 12.2786 14.436 12.2762H11.7222C11.5494 12.2874 11.3776 12.2424 11.2324 12.1478C11.1026 12.0508 11.0161 11.9066 10.9916 11.7464C10.9857 11.6582 10.9857 11.5696 10.9916 11.4814L10.9675 6.91296ZM15.4319 6.42325C15.3136 6.55848 15.2505 6.73334 15.2553 6.913L15.2071 11.6661C15.1992 11.7247 15.1992 11.7842 15.2071 11.8428C15.2335 11.9854 15.3105 12.1136 15.4239 12.204C15.5406 12.2954 15.6852 12.3437 15.8334 12.3406C15.922 12.3443 16.0105 12.3298 16.0933 12.298C16.1762 12.2663 16.2517 12.2178 16.3151 12.1558C16.4335 12.0206 16.4966 11.8457 16.4917 11.6661V10.3253L17.2063 9.57856L18.6997 11.9872C18.7616 12.1002 18.8497 12.1965 18.9566 12.2682C19.0555 12.3202 19.1662 12.3452 19.2778 12.3406C19.4457 12.3429 19.6095 12.2892 19.7435 12.188C19.8147 12.1274 19.8701 12.0505 19.9051 11.9638C19.9401 11.8771 19.9535 11.7832 19.9442 11.6902V11.6501C19.8999 11.5151 19.8349 11.3877 19.7515 11.2727V11.1924L18.1457 8.70344L19.4785 7.24212C19.5373 7.17577 19.5885 7.10314 19.6311 7.02542C19.6729 6.95201 19.695 6.869 19.6953 6.78451C19.6914 6.76598 19.6914 6.74688 19.6953 6.72835C19.6985 6.71246 19.6985 6.69603 19.6953 6.68013C19.6839 6.61532 19.6595 6.5535 19.6236 6.49832C19.5877 6.44314 19.5411 6.39572 19.4865 6.35895C19.3707 6.27976 19.2335 6.23774 19.0931 6.2385C18.9972 6.23662 18.9026 6.26172 18.8201 6.31083C18.7326 6.38058 18.6495 6.45559 18.5712 6.53557L16.5399 8.88005V6.913C16.5439 6.85687 16.5439 6.80046 16.5399 6.74433C16.514 6.59932 16.4371 6.46838 16.3231 6.37503C16.1917 6.27929 16.0313 6.23178 15.869 6.24056C15.7066 6.24934 15.5523 6.3139 15.4319 6.42325Z" fill="black"/>
</svg>
