<svg width="59" height="56" viewBox="0 0 59 56" fill="none" xmlns="http://www.w3.org/2000/svg">
<g clip-path="url(#clip0_1263_3488)">
<mask id="path-1-outside-1_1263_3488" maskUnits="userSpaceOnUse" x="-1" y="-0.998291" width="61" height="58" fill="black">
<rect fill="white" x="-1" y="-0.998291" width="61" height="58"/>
<path d="M25.7241 36.0375C25.7788 37.4175 25.9026 38.8074 25.8704 40.194C25.8415 41.5197 25.7499 42.8603 25.4991 44.1565C25.3174 45.0979 24.9364 46.0425 24.4605 46.8754C23.0666 49.3167 22.3077 51.9289 22.1598 54.7382C22.1164 55.5727 21.7917 55.9161 20.9589 55.9259C18.5151 55.9572 16.0698 55.9818 13.6261 55.9982C12.7547 56.0048 12.3335 55.5284 12.4171 54.6396C12.5039 53.7196 12.9894 53.023 13.7097 52.5187C14.0762 52.2607 14.1952 51.9864 14.1438 51.5527C13.774 48.4033 13.4814 45.2441 13.0393 42.1062C12.6325 39.2263 12.6856 36.371 13.3335 33.5617C13.7483 31.7612 13.5859 30.391 12.2563 28.924C9.9669 26.3989 8.66144 23.2397 7.72575 19.9408C7.6534 19.6862 7.58909 19.4266 7.49906 19.1786C7.13411 18.1698 6.70163 17.9218 5.67108 18.0893C5.19681 18.1666 4.71931 18.252 4.24182 18.2717C3.10356 18.3177 2.20645 17.5735 1.9042 16.4563C1.82382 16.1623 1.6116 15.8386 1.36562 15.6727C-0.462357 14.434 -0.465572 13.1542 1.41867 11.9894C2.01353 11.6214 2.66948 11.3487 3.31096 11.0645C4.19359 10.6735 4.83989 10.1478 5.11481 9.10621C5.48298 7.70649 6.3833 6.61399 7.48298 5.7055C7.62124 5.5905 7.75951 5.47714 7.92671 5.33914C7.49423 4.42407 7.39456 3.51228 7.79488 2.5545C7.89777 2.30807 7.73378 1.9565 7.7579 1.65914C7.78362 1.33879 7.78845 0.896859 7.98137 0.744073C8.17912 0.588002 8.60999 0.657002 8.90903 0.740788C9.18394 0.819645 9.41706 1.04964 9.70002 1.232C9.72092 1.16957 9.75147 1.12193 9.74986 1.07757C9.68877 0.142788 10.192 -0.238354 11.0039 0.155931C12.3704 0.818002 13.4219 1.81521 14.081 3.22807C14.163 3.4055 14.3286 3.62564 14.4942 3.66507C16.6357 4.17764 18.1502 5.57242 19.3753 7.32864C19.9991 8.22399 20.61 9.17192 21.0023 10.1856C22.1277 13.0967 24.2724 14.8118 27.0264 15.8846C30.163 17.1069 33.4444 17.4503 36.7643 17.5127C40.2016 17.5768 43.6068 17.1923 46.9991 16.6403C47.9991 16.4777 49.0216 16.4695 50.0344 16.3923C49.7933 14.0381 48.2643 12.0206 46.3174 11.5803C45.065 11.2978 43.8077 11.4489 42.6663 11.9796C41.1229 12.6975 39.6389 13.5485 38.1502 14.3831C37.4428 14.779 36.8592 14.8184 36.3174 14.3568C35.9187 14.0167 35.7499 13.5797 36.0151 13.1016C38.0521 9.41835 40.5618 6.18685 44.4315 4.36C50.6502 1.4275 57.2708 5.04835 58.3913 11.9615C58.8383 14.7149 58.3286 17.2958 57.0441 19.7338C56.909 19.9918 56.8077 20.1823 57.0055 20.4994C59.2659 24.1203 59.5473 27.9744 58.1727 31.9715C57.4733 34.0053 56.7917 36.0277 56.6614 38.2028C56.565 39.7997 56.7274 41.3489 57.3158 42.8422C58.8126 46.6422 58.6936 50.4766 57.5521 54.3357C57.3769 54.9287 57.0264 55.1965 56.409 55.1949C53.4814 55.1801 50.5537 55.1916 47.6245 55.1867C46.7595 55.185 46.356 54.6396 46.5489 53.7705C46.745 52.8867 47.3528 52.3248 48.1068 52.0192C48.8367 51.7219 48.8479 51.2602 48.7257 50.6277C48.3737 48.8074 47.5794 47.1876 46.5987 45.6515C44.9556 43.0804 42.8929 40.8692 40.8158 38.6727C40.0216 37.8332 39.2048 37.015 38.4219 36.164C38.163 35.8815 37.9299 35.819 37.5843 35.9751C37.0167 36.2314 36.401 36.3891 35.864 36.6947C33.7225 37.912 31.491 37.9071 29.2193 37.2434C28.0505 36.9017 26.9122 36.4515 25.7338 36.0425L25.7241 36.0375ZM40.7402 33.869C40.4074 33.1658 40.0505 32.5218 39.7901 31.8384C38.8431 29.3429 38.8511 26.8819 40.1534 24.4948C40.3672 24.1022 40.6598 23.7966 41.118 24.089C41.5376 24.3568 41.4267 24.7248 41.2016 25.1027C40.6036 26.1065 40.3351 27.2105 40.327 28.3802C40.3093 30.6687 41.2225 32.6072 42.6132 34.3109C43.5489 35.4576 44.6229 36.4844 45.6132 37.5835C47.4733 39.6469 49.3929 41.6594 51.1454 43.8148C52.7579 45.7994 53.9412 48.0567 54.319 50.6721C54.5248 52.0964 54.3769 52.3708 53.1212 53.0542C52.7659 53.2481 52.4669 53.5471 52.1405 53.7968L52.2402 53.9578C53.4621 53.9578 54.6839 53.9381 55.9058 53.9693C56.3142 53.9792 56.4621 53.8132 56.5569 53.4485C57.4653 49.9706 57.5055 46.537 56.1389 43.1511C55.4782 41.5132 55.3142 39.7898 55.4428 38.027C55.6003 35.8585 56.192 33.8065 56.954 31.794C57.7949 29.5795 57.9798 27.3107 57.5392 24.9745C56.6003 19.9934 52.7949 17.1611 47.8463 17.7411C44.8415 18.0926 41.8383 18.4902 38.8222 18.6742C35.2048 18.8943 31.61 18.574 28.1068 17.539C24.3833 16.4399 21.3737 14.4898 19.856 10.5913C19.1405 8.75299 18.0007 7.13807 16.4058 5.94535C15.8704 5.5445 15.2483 5.26192 14.6405 4.91035C14.5714 5.80242 14.5232 6.55485 14.4508 7.30728C14.4122 7.70157 14.2 7.97921 13.782 7.93156C13.3286 7.87899 13.2097 7.54385 13.2611 7.12328C13.2756 7.00171 13.3029 6.88178 13.319 6.75857C13.4492 5.74492 13.3753 4.751 12.9894 3.80143C12.6309 2.91757 12.0698 2.20293 11.3174 1.7495C11.1421 2.56107 10.9412 3.32828 10.8222 4.107C10.745 4.60314 10.7209 5.1305 10.7949 5.62335C10.8769 6.16221 11.0827 6.68464 11.2659 7.20214C11.4026 7.58985 11.4492 7.95128 11.028 8.14678C10.5762 8.35542 10.3013 8.08928 10.1518 7.67364C9.93957 7.08221 9.74825 6.48421 9.52478 5.81721C7.93957 6.66657 6.70002 7.84449 6.19841 9.63521C5.90903 10.6702 5.31578 11.3586 4.446 11.8547C4.03121 12.0913 3.58587 12.2736 3.12928 12.4938C3.41385 13.3826 3.39456 14.2237 2.70967 15.0024C4.21288 15.4181 5.55694 15.2784 6.8624 14.6952C7.24825 14.5227 7.58266 14.5096 7.78041 14.9301C7.97816 15.3523 7.76272 15.653 7.37848 15.8041C6.89456 15.9947 6.40581 16.2132 5.89938 16.2904C5.04086 16.4202 4.16787 16.4498 3.26112 16.5253C3.52157 16.9968 3.94118 17.0888 4.41867 17.0297C4.97494 16.9607 5.53121 16.8769 6.08587 16.7898C6.78202 16.6814 7.33185 16.9525 7.81899 17.4388C8.44922 18.0713 8.68877 18.8878 8.92349 19.719C9.83989 22.9637 11.2579 25.9504 13.4187 28.5248C14.0987 29.3363 14.8929 30.0477 15.6823 30.8527C15.737 30.6785 15.7724 30.5865 15.7965 30.4929C16.5489 27.5653 17.3061 24.6394 18.0457 21.7085C18.1566 21.2666 18.2917 20.8789 18.8174 20.9955C19.3511 21.1138 19.3254 21.5492 19.2241 21.9796C18.8142 23.7309 18.4219 25.4871 17.9846 27.2302C17.5971 28.7745 17.0489 30.2843 16.7675 31.8466C16.3415 34.2041 16.7097 36.5517 17.3061 38.8386C18.1309 41.9962 18.7643 45.1751 18.8158 48.4542C18.8319 49.4761 18.819 50.4979 18.819 51.5182L19.0023 51.413C19.2129 51.6578 19.536 51.873 19.6068 52.1556C19.7225 52.6172 19.2772 52.7142 18.9524 52.8801C18.5087 53.1084 18.0537 53.3483 17.6775 53.6719C17.3978 53.9118 17.2338 54.2929 16.9733 54.679H20.946C21.1228 51.8861 21.6759 49.2543 23.0907 46.9379C24.2933 44.9664 24.6647 42.857 24.6888 40.6129C24.7257 37.0922 24.2306 33.6307 23.5602 30.1906C23.4749 29.7536 23.4122 29.3347 23.9492 29.2065C24.5264 29.0685 24.6647 29.4973 24.7434 29.9557C24.9685 31.2864 25.1759 32.6204 25.4347 33.9445C25.4846 34.1975 25.6904 34.5245 25.9058 34.6181C27.102 35.1356 28.2997 35.6712 29.5409 36.0474C31.52 36.647 33.4733 36.6372 35.3656 35.5677C36.1614 35.1175 37.065 34.8415 37.9428 34.5688C38.8576 34.283 39.8013 34.0957 40.7434 33.8624L40.7402 33.869ZM37.2901 13.2774L37.3946 13.3941C37.5762 13.2741 37.7563 13.1526 37.938 13.0326C39.6325 11.9286 41.3865 10.9561 43.3608 10.4714C46.8624 9.61385 49.5521 11.0694 50.7981 14.5227C51.0055 15.0961 51.11 15.7056 51.2901 16.2888C51.3431 16.4596 51.4637 16.7061 51.5955 16.7389C53.2482 17.1365 54.6807 17.9481 55.9122 19.1178C55.9749 19.0652 56.0119 19.0438 56.0344 19.0126C56.0682 18.9633 56.0939 18.9075 56.1212 18.8516C57.3479 16.3348 57.7064 13.7259 56.9299 10.9938C55.6228 6.39385 51.4573 3.77678 46.9637 4.75921C45.0392 5.17978 43.3929 6.17042 41.9074 7.46171C40.0103 9.10785 38.5296 11.0924 37.2917 13.2774H37.2901ZM50.8753 53.9381C51.1164 52.8407 51.8656 52.2739 52.7499 51.8697C53.1341 51.6939 53.2756 51.4656 53.1695 51.0647C52.9396 50.1973 52.7852 49.3019 52.4637 48.4723C51.5167 46.0359 49.9444 44.0087 48.2161 42.1161C46.11 39.8095 43.9508 37.5539 41.8077 35.2835C41.7209 35.1915 41.5698 35.088 41.4605 35.1011C40.8013 35.18 40.147 35.2917 39.491 35.3919L39.4058 35.6153C40.1036 36.2889 40.8544 36.9148 41.4894 37.6459C43.3817 39.8161 45.3029 41.9666 47.0698 44.2387C48.4862 46.0589 49.5071 48.1388 49.8994 50.4749C50.1293 51.8467 50.0875 52.4809 48.6904 53.0838C48.3399 53.2349 48.0601 53.5553 47.7483 53.7984L47.8447 53.9414H50.8753V53.9381ZM14.8383 31.8548C14.7209 32.4972 14.6148 33.1017 14.5007 33.703C13.9958 36.3743 13.7917 39.0522 14.2161 41.7629C14.5521 43.9035 14.8431 46.054 15.11 48.2045C15.2483 49.3151 15.2933 50.4372 15.3801 51.5543L15.5537 51.4311C15.7627 51.6709 16.0794 51.8796 16.1582 52.1589C16.2772 52.5778 15.8994 52.7257 15.5666 52.8604C15.2515 52.9885 14.9428 53.1462 14.6582 53.3319C14.1663 53.6539 13.7322 54.035 13.647 54.725C14.319 54.725 14.954 54.7381 15.5859 54.7119C15.692 54.7069 15.8608 54.5443 15.8849 54.4293C16.0682 53.5257 16.6196 52.9097 17.3093 52.3724C17.4573 52.2574 17.5907 52.0209 17.5971 51.8352C17.7386 48.2587 17.5489 44.7102 16.647 41.2339C15.938 38.4969 15.2949 35.75 15.4331 32.8882C15.4573 32.3937 15.3431 32.0585 14.8399 31.8532L14.8383 31.8548ZM9.12124 4.78878C9.30774 4.475 9.51031 4.24007 9.60034 3.96571C9.7997 3.35786 9.51996 2.88964 9.09231 2.44607C8.91867 3.20507 8.446 3.9 9.12124 4.78878ZM2.02317 13.1509L1.80613 13.0376L1.27559 13.9658C1.41867 14.0381 1.61481 14.2122 1.69841 14.1678C2.10999 13.9477 2.19841 13.5797 2.02317 13.1509Z"/>
</mask>
<path d="M25.7241 36.0375C25.7788 37.4175 25.9026 38.8074 25.8704 40.194C25.8415 41.5197 25.7499 42.8603 25.4991 44.1565C25.3174 45.0979 24.9364 46.0425 24.4605 46.8754C23.0666 49.3167 22.3077 51.9289 22.1598 54.7382C22.1164 55.5727 21.7917 55.9161 20.9589 55.9259C18.5151 55.9572 16.0698 55.9818 13.6261 55.9982C12.7547 56.0048 12.3335 55.5284 12.4171 54.6396C12.5039 53.7196 12.9894 53.023 13.7097 52.5187C14.0762 52.2607 14.1952 51.9864 14.1438 51.5527C13.774 48.4033 13.4814 45.2441 13.0393 42.1062C12.6325 39.2263 12.6856 36.371 13.3335 33.5617C13.7483 31.7612 13.5859 30.391 12.2563 28.924C9.9669 26.3989 8.66144 23.2397 7.72575 19.9408C7.6534 19.6862 7.58909 19.4266 7.49906 19.1786C7.13411 18.1698 6.70163 17.9218 5.67108 18.0893C5.19681 18.1666 4.71931 18.252 4.24182 18.2717C3.10356 18.3177 2.20645 17.5735 1.9042 16.4563C1.82382 16.1623 1.6116 15.8386 1.36562 15.6727C-0.462357 14.434 -0.465572 13.1542 1.41867 11.9894C2.01353 11.6214 2.66948 11.3487 3.31096 11.0645C4.19359 10.6735 4.83989 10.1478 5.11481 9.10621C5.48298 7.70649 6.3833 6.61399 7.48298 5.7055C7.62124 5.5905 7.75951 5.47714 7.92671 5.33914C7.49423 4.42407 7.39456 3.51228 7.79488 2.5545C7.89777 2.30807 7.73378 1.9565 7.7579 1.65914C7.78362 1.33879 7.78845 0.896859 7.98137 0.744073C8.17912 0.588002 8.60999 0.657002 8.90903 0.740788C9.18394 0.819645 9.41706 1.04964 9.70002 1.232C9.72092 1.16957 9.75147 1.12193 9.74986 1.07757C9.68877 0.142788 10.192 -0.238354 11.0039 0.155931C12.3704 0.818002 13.4219 1.81521 14.081 3.22807C14.163 3.4055 14.3286 3.62564 14.4942 3.66507C16.6357 4.17764 18.1502 5.57242 19.3753 7.32864C19.9991 8.22399 20.61 9.17192 21.0023 10.1856C22.1277 13.0967 24.2724 14.8118 27.0264 15.8846C30.163 17.1069 33.4444 17.4503 36.7643 17.5127C40.2016 17.5768 43.6068 17.1923 46.9991 16.6403C47.9991 16.4777 49.0216 16.4695 50.0344 16.3923C49.7933 14.0381 48.2643 12.0206 46.3174 11.5803C45.065 11.2978 43.8077 11.4489 42.6663 11.9796C41.1229 12.6975 39.6389 13.5485 38.1502 14.3831C37.4428 14.779 36.8592 14.8184 36.3174 14.3568C35.9187 14.0167 35.7499 13.5797 36.0151 13.1016C38.0521 9.41835 40.5618 6.18685 44.4315 4.36C50.6502 1.4275 57.2708 5.04835 58.3913 11.9615C58.8383 14.7149 58.3286 17.2958 57.0441 19.7338C56.909 19.9918 56.8077 20.1823 57.0055 20.4994C59.2659 24.1203 59.5473 27.9744 58.1727 31.9715C57.4733 34.0053 56.7917 36.0277 56.6614 38.2028C56.565 39.7997 56.7274 41.3489 57.3158 42.8422C58.8126 46.6422 58.6936 50.4766 57.5521 54.3357C57.3769 54.9287 57.0264 55.1965 56.409 55.1949C53.4814 55.1801 50.5537 55.1916 47.6245 55.1867C46.7595 55.185 46.356 54.6396 46.5489 53.7705C46.745 52.8867 47.3528 52.3248 48.1068 52.0192C48.8367 51.7219 48.8479 51.2602 48.7257 50.6277C48.3737 48.8074 47.5794 47.1876 46.5987 45.6515C44.9556 43.0804 42.8929 40.8692 40.8158 38.6727C40.0216 37.8332 39.2048 37.015 38.4219 36.164C38.163 35.8815 37.9299 35.819 37.5843 35.9751C37.0167 36.2314 36.401 36.3891 35.864 36.6947C33.7225 37.912 31.491 37.9071 29.2193 37.2434C28.0505 36.9017 26.9122 36.4515 25.7338 36.0425L25.7241 36.0375ZM40.7402 33.869C40.4074 33.1658 40.0505 32.5218 39.7901 31.8384C38.8431 29.3429 38.8511 26.8819 40.1534 24.4948C40.3672 24.1022 40.6598 23.7966 41.118 24.089C41.5376 24.3568 41.4267 24.7248 41.2016 25.1027C40.6036 26.1065 40.3351 27.2105 40.327 28.3802C40.3093 30.6687 41.2225 32.6072 42.6132 34.3109C43.5489 35.4576 44.6229 36.4844 45.6132 37.5835C47.4733 39.6469 49.3929 41.6594 51.1454 43.8148C52.7579 45.7994 53.9412 48.0567 54.319 50.6721C54.5248 52.0964 54.3769 52.3708 53.1212 53.0542C52.7659 53.2481 52.4669 53.5471 52.1405 53.7968L52.2402 53.9578C53.4621 53.9578 54.6839 53.9381 55.9058 53.9693C56.3142 53.9792 56.4621 53.8132 56.5569 53.4485C57.4653 49.9706 57.5055 46.537 56.1389 43.1511C55.4782 41.5132 55.3142 39.7898 55.4428 38.027C55.6003 35.8585 56.192 33.8065 56.954 31.794C57.7949 29.5795 57.9798 27.3107 57.5392 24.9745C56.6003 19.9934 52.7949 17.1611 47.8463 17.7411C44.8415 18.0926 41.8383 18.4902 38.8222 18.6742C35.2048 18.8943 31.61 18.574 28.1068 17.539C24.3833 16.4399 21.3737 14.4898 19.856 10.5913C19.1405 8.75299 18.0007 7.13807 16.4058 5.94535C15.8704 5.5445 15.2483 5.26192 14.6405 4.91035C14.5714 5.80242 14.5232 6.55485 14.4508 7.30728C14.4122 7.70157 14.2 7.97921 13.782 7.93156C13.3286 7.87899 13.2097 7.54385 13.2611 7.12328C13.2756 7.00171 13.3029 6.88178 13.319 6.75857C13.4492 5.74492 13.3753 4.751 12.9894 3.80143C12.6309 2.91757 12.0698 2.20293 11.3174 1.7495C11.1421 2.56107 10.9412 3.32828 10.8222 4.107C10.745 4.60314 10.7209 5.1305 10.7949 5.62335C10.8769 6.16221 11.0827 6.68464 11.2659 7.20214C11.4026 7.58985 11.4492 7.95128 11.028 8.14678C10.5762 8.35542 10.3013 8.08928 10.1518 7.67364C9.93957 7.08221 9.74825 6.48421 9.52478 5.81721C7.93957 6.66657 6.70002 7.84449 6.19841 9.63521C5.90903 10.6702 5.31578 11.3586 4.446 11.8547C4.03121 12.0913 3.58587 12.2736 3.12928 12.4938C3.41385 13.3826 3.39456 14.2237 2.70967 15.0024C4.21288 15.4181 5.55694 15.2784 6.8624 14.6952C7.24825 14.5227 7.58266 14.5096 7.78041 14.9301C7.97816 15.3523 7.76272 15.653 7.37848 15.8041C6.89456 15.9947 6.40581 16.2132 5.89938 16.2904C5.04086 16.4202 4.16787 16.4498 3.26112 16.5253C3.52157 16.9968 3.94118 17.0888 4.41867 17.0297C4.97494 16.9607 5.53121 16.8769 6.08587 16.7898C6.78202 16.6814 7.33185 16.9525 7.81899 17.4388C8.44922 18.0713 8.68877 18.8878 8.92349 19.719C9.83989 22.9637 11.2579 25.9504 13.4187 28.5248C14.0987 29.3363 14.8929 30.0477 15.6823 30.8527C15.737 30.6785 15.7724 30.5865 15.7965 30.4929C16.5489 27.5653 17.3061 24.6394 18.0457 21.7085C18.1566 21.2666 18.2917 20.8789 18.8174 20.9955C19.3511 21.1138 19.3254 21.5492 19.2241 21.9796C18.8142 23.7309 18.4219 25.4871 17.9846 27.2302C17.5971 28.7745 17.0489 30.2843 16.7675 31.8466C16.3415 34.2041 16.7097 36.5517 17.3061 38.8386C18.1309 41.9962 18.7643 45.1751 18.8158 48.4542C18.8319 49.4761 18.819 50.4979 18.819 51.5182L19.0023 51.413C19.2129 51.6578 19.536 51.873 19.6068 52.1556C19.7225 52.6172 19.2772 52.7142 18.9524 52.8801C18.5087 53.1084 18.0537 53.3483 17.6775 53.6719C17.3978 53.9118 17.2338 54.2929 16.9733 54.679H20.946C21.1228 51.8861 21.6759 49.2543 23.0907 46.9379C24.2933 44.9664 24.6647 42.857 24.6888 40.6129C24.7257 37.0922 24.2306 33.6307 23.5602 30.1906C23.4749 29.7536 23.4122 29.3347 23.9492 29.2065C24.5264 29.0685 24.6647 29.4973 24.7434 29.9557C24.9685 31.2864 25.1759 32.6204 25.4347 33.9445C25.4846 34.1975 25.6904 34.5245 25.9058 34.6181C27.102 35.1356 28.2997 35.6712 29.5409 36.0474C31.52 36.647 33.4733 36.6372 35.3656 35.5677C36.1614 35.1175 37.065 34.8415 37.9428 34.5688C38.8576 34.283 39.8013 34.0957 40.7434 33.8624L40.7402 33.869ZM37.2901 13.2774L37.3946 13.3941C37.5762 13.2741 37.7563 13.1526 37.938 13.0326C39.6325 11.9286 41.3865 10.9561 43.3608 10.4714C46.8624 9.61385 49.5521 11.0694 50.7981 14.5227C51.0055 15.0961 51.11 15.7056 51.2901 16.2888C51.3431 16.4596 51.4637 16.7061 51.5955 16.7389C53.2482 17.1365 54.6807 17.9481 55.9122 19.1178C55.9749 19.0652 56.0119 19.0438 56.0344 19.0126C56.0682 18.9633 56.0939 18.9075 56.1212 18.8516C57.3479 16.3348 57.7064 13.7259 56.9299 10.9938C55.6228 6.39385 51.4573 3.77678 46.9637 4.75921C45.0392 5.17978 43.3929 6.17042 41.9074 7.46171C40.0103 9.10785 38.5296 11.0924 37.2917 13.2774H37.2901ZM50.8753 53.9381C51.1164 52.8407 51.8656 52.2739 52.7499 51.8697C53.1341 51.6939 53.2756 51.4656 53.1695 51.0647C52.9396 50.1973 52.7852 49.3019 52.4637 48.4723C51.5167 46.0359 49.9444 44.0087 48.2161 42.1161C46.11 39.8095 43.9508 37.5539 41.8077 35.2835C41.7209 35.1915 41.5698 35.088 41.4605 35.1011C40.8013 35.18 40.147 35.2917 39.491 35.3919L39.4058 35.6153C40.1036 36.2889 40.8544 36.9148 41.4894 37.6459C43.3817 39.8161 45.3029 41.9666 47.0698 44.2387C48.4862 46.0589 49.5071 48.1388 49.8994 50.4749C50.1293 51.8467 50.0875 52.4809 48.6904 53.0838C48.3399 53.2349 48.0601 53.5553 47.7483 53.7984L47.8447 53.9414H50.8753V53.9381ZM14.8383 31.8548C14.7209 32.4972 14.6148 33.1017 14.5007 33.703C13.9958 36.3743 13.7917 39.0522 14.2161 41.7629C14.5521 43.9035 14.8431 46.054 15.11 48.2045C15.2483 49.3151 15.2933 50.4372 15.3801 51.5543L15.5537 51.4311C15.7627 51.6709 16.0794 51.8796 16.1582 52.1589C16.2772 52.5778 15.8994 52.7257 15.5666 52.8604C15.2515 52.9885 14.9428 53.1462 14.6582 53.3319C14.1663 53.6539 13.7322 54.035 13.647 54.725C14.319 54.725 14.954 54.7381 15.5859 54.7119C15.692 54.7069 15.8608 54.5443 15.8849 54.4293C16.0682 53.5257 16.6196 52.9097 17.3093 52.3724C17.4573 52.2574 17.5907 52.0209 17.5971 51.8352C17.7386 48.2587 17.5489 44.7102 16.647 41.2339C15.938 38.4969 15.2949 35.75 15.4331 32.8882C15.4573 32.3937 15.3431 32.0585 14.8399 31.8532L14.8383 31.8548ZM9.12124 4.78878C9.30774 4.475 9.51031 4.24007 9.60034 3.96571C9.7997 3.35786 9.51996 2.88964 9.09231 2.44607C8.91867 3.20507 8.446 3.9 9.12124 4.78878ZM2.02317 13.1509L1.80613 13.0376L1.27559 13.9658C1.41867 14.0381 1.61481 14.2122 1.69841 14.1678C2.10999 13.9477 2.19841 13.5797 2.02317 13.1509Z" fill="#A7A7A7"/>
<path d="M25.7241 36.0375C25.7788 37.4175 25.9026 38.8074 25.8704 40.194C25.8415 41.5197 25.7499 42.8603 25.4991 44.1565C25.3174 45.0979 24.9364 46.0425 24.4605 46.8754C23.0666 49.3167 22.3077 51.9289 22.1598 54.7382C22.1164 55.5727 21.7917 55.9161 20.9589 55.9259C18.5151 55.9572 16.0698 55.9818 13.6261 55.9982C12.7547 56.0048 12.3335 55.5284 12.4171 54.6396C12.5039 53.7196 12.9894 53.023 13.7097 52.5187C14.0762 52.2607 14.1952 51.9864 14.1438 51.5527C13.774 48.4033 13.4814 45.2441 13.0393 42.1062C12.6325 39.2263 12.6856 36.371 13.3335 33.5617C13.7483 31.7612 13.5859 30.391 12.2563 28.924C9.9669 26.3989 8.66144 23.2397 7.72575 19.9408C7.6534 19.6862 7.58909 19.4266 7.49906 19.1786C7.13411 18.1698 6.70163 17.9218 5.67108 18.0893C5.19681 18.1666 4.71931 18.252 4.24182 18.2717C3.10356 18.3177 2.20645 17.5735 1.9042 16.4563C1.82382 16.1623 1.6116 15.8386 1.36562 15.6727C-0.462357 14.434 -0.465572 13.1542 1.41867 11.9894C2.01353 11.6214 2.66948 11.3487 3.31096 11.0645C4.19359 10.6735 4.83989 10.1478 5.11481 9.10621C5.48298 7.70649 6.3833 6.61399 7.48298 5.7055C7.62124 5.5905 7.75951 5.47714 7.92671 5.33914C7.49423 4.42407 7.39456 3.51228 7.79488 2.5545C7.89777 2.30807 7.73378 1.9565 7.7579 1.65914C7.78362 1.33879 7.78845 0.896859 7.98137 0.744073C8.17912 0.588002 8.60999 0.657002 8.90903 0.740788C9.18394 0.819645 9.41706 1.04964 9.70002 1.232C9.72092 1.16957 9.75147 1.12193 9.74986 1.07757C9.68877 0.142788 10.192 -0.238354 11.0039 0.155931C12.3704 0.818002 13.4219 1.81521 14.081 3.22807C14.163 3.4055 14.3286 3.62564 14.4942 3.66507C16.6357 4.17764 18.1502 5.57242 19.3753 7.32864C19.9991 8.22399 20.61 9.17192 21.0023 10.1856C22.1277 13.0967 24.2724 14.8118 27.0264 15.8846C30.163 17.1069 33.4444 17.4503 36.7643 17.5127C40.2016 17.5768 43.6068 17.1923 46.9991 16.6403C47.9991 16.4777 49.0216 16.4695 50.0344 16.3923C49.7933 14.0381 48.2643 12.0206 46.3174 11.5803C45.065 11.2978 43.8077 11.4489 42.6663 11.9796C41.1229 12.6975 39.6389 13.5485 38.1502 14.3831C37.4428 14.779 36.8592 14.8184 36.3174 14.3568C35.9187 14.0167 35.7499 13.5797 36.0151 13.1016C38.0521 9.41835 40.5618 6.18685 44.4315 4.36C50.6502 1.4275 57.2708 5.04835 58.3913 11.9615C58.8383 14.7149 58.3286 17.2958 57.0441 19.7338C56.909 19.9918 56.8077 20.1823 57.0055 20.4994C59.2659 24.1203 59.5473 27.9744 58.1727 31.9715C57.4733 34.0053 56.7917 36.0277 56.6614 38.2028C56.565 39.7997 56.7274 41.3489 57.3158 42.8422C58.8126 46.6422 58.6936 50.4766 57.5521 54.3357C57.3769 54.9287 57.0264 55.1965 56.409 55.1949C53.4814 55.1801 50.5537 55.1916 47.6245 55.1867C46.7595 55.185 46.356 54.6396 46.5489 53.7705C46.745 52.8867 47.3528 52.3248 48.1068 52.0192C48.8367 51.7219 48.8479 51.2602 48.7257 50.6277C48.3737 48.8074 47.5794 47.1876 46.5987 45.6515C44.9556 43.0804 42.8929 40.8692 40.8158 38.6727C40.0216 37.8332 39.2048 37.015 38.4219 36.164C38.163 35.8815 37.9299 35.819 37.5843 35.9751C37.0167 36.2314 36.401 36.3891 35.864 36.6947C33.7225 37.912 31.491 37.9071 29.2193 37.2434C28.0505 36.9017 26.9122 36.4515 25.7338 36.0425L25.7241 36.0375ZM40.7402 33.869C40.4074 33.1658 40.0505 32.5218 39.7901 31.8384C38.8431 29.3429 38.8511 26.8819 40.1534 24.4948C40.3672 24.1022 40.6598 23.7966 41.118 24.089C41.5376 24.3568 41.4267 24.7248 41.2016 25.1027C40.6036 26.1065 40.3351 27.2105 40.327 28.3802C40.3093 30.6687 41.2225 32.6072 42.6132 34.3109C43.5489 35.4576 44.6229 36.4844 45.6132 37.5835C47.4733 39.6469 49.3929 41.6594 51.1454 43.8148C52.7579 45.7994 53.9412 48.0567 54.319 50.6721C54.5248 52.0964 54.3769 52.3708 53.1212 53.0542C52.7659 53.2481 52.4669 53.5471 52.1405 53.7968L52.2402 53.9578C53.4621 53.9578 54.6839 53.9381 55.9058 53.9693C56.3142 53.9792 56.4621 53.8132 56.5569 53.4485C57.4653 49.9706 57.5055 46.537 56.1389 43.1511C55.4782 41.5132 55.3142 39.7898 55.4428 38.027C55.6003 35.8585 56.192 33.8065 56.954 31.794C57.7949 29.5795 57.9798 27.3107 57.5392 24.9745C56.6003 19.9934 52.7949 17.1611 47.8463 17.7411C44.8415 18.0926 41.8383 18.4902 38.8222 18.6742C35.2048 18.8943 31.61 18.574 28.1068 17.539C24.3833 16.4399 21.3737 14.4898 19.856 10.5913C19.1405 8.75299 18.0007 7.13807 16.4058 5.94535C15.8704 5.5445 15.2483 5.26192 14.6405 4.91035C14.5714 5.80242 14.5232 6.55485 14.4508 7.30728C14.4122 7.70157 14.2 7.97921 13.782 7.93156C13.3286 7.87899 13.2097 7.54385 13.2611 7.12328C13.2756 7.00171 13.3029 6.88178 13.319 6.75857C13.4492 5.74492 13.3753 4.751 12.9894 3.80143C12.6309 2.91757 12.0698 2.20293 11.3174 1.7495C11.1421 2.56107 10.9412 3.32828 10.8222 4.107C10.745 4.60314 10.7209 5.1305 10.7949 5.62335C10.8769 6.16221 11.0827 6.68464 11.2659 7.20214C11.4026 7.58985 11.4492 7.95128 11.028 8.14678C10.5762 8.35542 10.3013 8.08928 10.1518 7.67364C9.93957 7.08221 9.74825 6.48421 9.52478 5.81721C7.93957 6.66657 6.70002 7.84449 6.19841 9.63521C5.90903 10.6702 5.31578 11.3586 4.446 11.8547C4.03121 12.0913 3.58587 12.2736 3.12928 12.4938C3.41385 13.3826 3.39456 14.2237 2.70967 15.0024C4.21288 15.4181 5.55694 15.2784 6.8624 14.6952C7.24825 14.5227 7.58266 14.5096 7.78041 14.9301C7.97816 15.3523 7.76272 15.653 7.37848 15.8041C6.89456 15.9947 6.40581 16.2132 5.89938 16.2904C5.04086 16.4202 4.16787 16.4498 3.26112 16.5253C3.52157 16.9968 3.94118 17.0888 4.41867 17.0297C4.97494 16.9607 5.53121 16.8769 6.08587 16.7898C6.78202 16.6814 7.33185 16.9525 7.81899 17.4388C8.44922 18.0713 8.68877 18.8878 8.92349 19.719C9.83989 22.9637 11.2579 25.9504 13.4187 28.5248C14.0987 29.3363 14.8929 30.0477 15.6823 30.8527C15.737 30.6785 15.7724 30.5865 15.7965 30.4929C16.5489 27.5653 17.3061 24.6394 18.0457 21.7085C18.1566 21.2666 18.2917 20.8789 18.8174 20.9955C19.3511 21.1138 19.3254 21.5492 19.2241 21.9796C18.8142 23.7309 18.4219 25.4871 17.9846 27.2302C17.5971 28.7745 17.0489 30.2843 16.7675 31.8466C16.3415 34.2041 16.7097 36.5517 17.3061 38.8386C18.1309 41.9962 18.7643 45.1751 18.8158 48.4542C18.8319 49.4761 18.819 50.4979 18.819 51.5182L19.0023 51.413C19.2129 51.6578 19.536 51.873 19.6068 52.1556C19.7225 52.6172 19.2772 52.7142 18.9524 52.8801C18.5087 53.1084 18.0537 53.3483 17.6775 53.6719C17.3978 53.9118 17.2338 54.2929 16.9733 54.679H20.946C21.1228 51.8861 21.6759 49.2543 23.0907 46.9379C24.2933 44.9664 24.6647 42.857 24.6888 40.6129C24.7257 37.0922 24.2306 33.6307 23.5602 30.1906C23.4749 29.7536 23.4122 29.3347 23.9492 29.2065C24.5264 29.0685 24.6647 29.4973 24.7434 29.9557C24.9685 31.2864 25.1759 32.6204 25.4347 33.9445C25.4846 34.1975 25.6904 34.5245 25.9058 34.6181C27.102 35.1356 28.2997 35.6712 29.5409 36.0474C31.52 36.647 33.4733 36.6372 35.3656 35.5677C36.1614 35.1175 37.065 34.8415 37.9428 34.5688C38.8576 34.283 39.8013 34.0957 40.7434 33.8624L40.7402 33.869ZM37.2901 13.2774L37.3946 13.3941C37.5762 13.2741 37.7563 13.1526 37.938 13.0326C39.6325 11.9286 41.3865 10.9561 43.3608 10.4714C46.8624 9.61385 49.5521 11.0694 50.7981 14.5227C51.0055 15.0961 51.11 15.7056 51.2901 16.2888C51.3431 16.4596 51.4637 16.7061 51.5955 16.7389C53.2482 17.1365 54.6807 17.9481 55.9122 19.1178C55.9749 19.0652 56.0119 19.0438 56.0344 19.0126C56.0682 18.9633 56.0939 18.9075 56.1212 18.8516C57.3479 16.3348 57.7064 13.7259 56.9299 10.9938C55.6228 6.39385 51.4573 3.77678 46.9637 4.75921C45.0392 5.17978 43.3929 6.17042 41.9074 7.46171C40.0103 9.10785 38.5296 11.0924 37.2917 13.2774H37.2901ZM50.8753 53.9381C51.1164 52.8407 51.8656 52.2739 52.7499 51.8697C53.1341 51.6939 53.2756 51.4656 53.1695 51.0647C52.9396 50.1973 52.7852 49.3019 52.4637 48.4723C51.5167 46.0359 49.9444 44.0087 48.2161 42.1161C46.11 39.8095 43.9508 37.5539 41.8077 35.2835C41.7209 35.1915 41.5698 35.088 41.4605 35.1011C40.8013 35.18 40.147 35.2917 39.491 35.3919L39.4058 35.6153C40.1036 36.2889 40.8544 36.9148 41.4894 37.6459C43.3817 39.8161 45.3029 41.9666 47.0698 44.2387C48.4862 46.0589 49.5071 48.1388 49.8994 50.4749C50.1293 51.8467 50.0875 52.4809 48.6904 53.0838C48.3399 53.2349 48.0601 53.5553 47.7483 53.7984L47.8447 53.9414H50.8753V53.9381ZM14.8383 31.8548C14.7209 32.4972 14.6148 33.1017 14.5007 33.703C13.9958 36.3743 13.7917 39.0522 14.2161 41.7629C14.5521 43.9035 14.8431 46.054 15.11 48.2045C15.2483 49.3151 15.2933 50.4372 15.3801 51.5543L15.5537 51.4311C15.7627 51.6709 16.0794 51.8796 16.1582 52.1589C16.2772 52.5778 15.8994 52.7257 15.5666 52.8604C15.2515 52.9885 14.9428 53.1462 14.6582 53.3319C14.1663 53.6539 13.7322 54.035 13.647 54.725C14.319 54.725 14.954 54.7381 15.5859 54.7119C15.692 54.7069 15.8608 54.5443 15.8849 54.4293C16.0682 53.5257 16.6196 52.9097 17.3093 52.3724C17.4573 52.2574 17.5907 52.0209 17.5971 51.8352C17.7386 48.2587 17.5489 44.7102 16.647 41.2339C15.938 38.4969 15.2949 35.75 15.4331 32.8882C15.4573 32.3937 15.3431 32.0585 14.8399 31.8532L14.8383 31.8548ZM9.12124 4.78878C9.30774 4.475 9.51031 4.24007 9.60034 3.96571C9.7997 3.35786 9.51996 2.88964 9.09231 2.44607C8.91867 3.20507 8.446 3.9 9.12124 4.78878ZM2.02317 13.1509L1.80613 13.0376L1.27559 13.9658C1.41867 14.0381 1.61481 14.2122 1.69841 14.1678C2.10999 13.9477 2.19841 13.5797 2.02317 13.1509Z" stroke="#A7A7A7" stroke-width="0.4" mask="url(#path-1-outside-1_1263_3488)"/>
<path d="M9.17366 9.02667C8.95493 9.02582 8.77156 9.09756 8.64072 9.22768C8.51007 9.35761 8.4359 9.54165 8.42746 9.75815L8.47739 9.76009L8.42746 9.7581C8.41822 9.98985 8.48032 10.1883 8.60816 10.3313C8.73624 10.4745 8.92535 10.5564 9.15904 10.5641C9.39334 10.5719 9.57774 10.5016 9.71028 10.3664C9.84165 10.2324 9.91689 10.0399 9.94505 9.81223L9.91892 9.809L9.94543 9.80774V9.8061L9.92552 9.80487L9.9452 9.80299C9.92283 9.56846 9.85018 9.37366 9.72024 9.23709C9.58937 9.09954 9.40573 9.02669 9.17366 9.02667ZM9.17366 9.02667C9.17363 9.02667 9.1736 9.02667 9.17357 9.02667V9.07667L9.17376 9.02667C9.17373 9.02667 9.1737 9.02667 9.17366 9.02667Z" fill="#A7A7A7" stroke="#A7A7A7" stroke-width="0.1"/>
</g>
<defs>
<clipPath id="clip0_1263_3488">
<rect width="59" height="56" fill="white"/>
</clipPath>
</defs>
</svg>
