<svg width="57" height="54" viewBox="0 0 57 54" fill="none" xmlns="http://www.w3.org/2000/svg">
<g clip-path="url(#clip0_1263_3488)">
<path d="M24.8521 34.7505C24.9049 36.0812 25.0245 37.4215 24.9935 38.7585C24.9655 40.0369 24.877 41.3296 24.6347 42.5796C24.4592 43.4873 24.0911 44.3982 23.6313 45.2014C22.2847 47.5555 21.5515 50.0743 21.4086 52.7833C21.3667 53.588 21.053 53.9191 20.2484 53.9286C17.8875 53.9587 15.5251 53.9825 13.1642 53.9983C12.3223 54.0047 11.9154 53.5453 11.9961 52.6882C12.08 51.8011 12.5491 51.1294 13.2449 50.643C13.5991 50.3943 13.714 50.1298 13.6643 49.7115C13.3071 46.6747 13.0244 43.6283 12.5972 40.6025C12.2043 37.8254 12.2555 35.0721 12.8815 32.3632C13.2822 30.6269 13.1253 29.3057 11.8408 27.891C9.62904 25.4561 8.36783 22.4098 7.46386 19.2287C7.39396 18.9832 7.33183 18.7329 7.24485 18.4937C6.89227 17.521 6.47446 17.2818 5.47884 17.4433C5.02064 17.5178 4.55934 17.6002 4.09803 17.6192C2.99835 17.6636 2.13166 16.9459 1.83965 15.8687C1.76199 15.5851 1.55697 15.273 1.31933 15.113C-0.446684 13.9185 -0.44979 12.6845 1.37058 11.5613C1.94527 11.2064 2.57899 10.9435 3.19872 10.6694C4.05144 10.2924 4.67583 9.78542 4.94143 8.78104C5.29712 7.43132 6.16692 6.37784 7.22932 5.50179C7.3629 5.3909 7.49647 5.28159 7.65801 5.14852C7.24019 4.26613 7.14389 3.38691 7.53064 2.46333C7.63005 2.2257 7.47162 1.88669 7.49492 1.59995C7.51977 1.29103 7.52443 0.864889 7.71082 0.71756C7.90186 0.567063 8.31813 0.633599 8.60702 0.714392C8.87262 0.790433 9.09784 1.01222 9.37121 1.18806C9.3914 1.12786 9.42091 1.08192 9.41936 1.03915C9.36034 0.13775 9.84649 -0.22978 10.6309 0.150423C11.9511 0.788848 12.9669 1.75045 13.6037 3.11284C13.6829 3.28393 13.8429 3.49621 14.0029 3.53424C16.0718 4.0285 17.5349 5.37347 18.7185 7.06696C19.3211 7.93034 19.9113 8.84441 20.2903 9.82185C21.3776 12.629 23.4496 14.2829 26.1102 15.3174C29.1406 16.496 32.3107 16.8271 35.5181 16.8873C38.8389 16.9491 42.1286 16.5784 45.4059 16.0461C46.372 15.8893 47.3598 15.8813 48.3383 15.8069C48.1054 13.5368 46.6283 11.5914 44.7473 11.1668C43.5373 10.8943 42.3227 11.0401 41.2199 11.5518C39.7289 12.2441 38.2952 13.0647 36.857 13.8694C36.1735 14.2512 35.6097 14.2892 35.0863 13.8441C34.7011 13.5162 34.538 13.0948 34.7943 12.6338C36.7622 9.08204 39.1868 5.96595 42.9254 4.20434C48.9332 1.37658 55.3294 4.86812 56.412 11.5344C56.8438 14.1894 56.3514 16.6782 55.1104 19.0291C54.9799 19.2778 54.882 19.4616 55.0731 19.7673C57.2569 23.2589 57.5287 26.9754 56.2007 30.8297C55.5251 32.7909 54.8665 34.741 54.7407 36.8385C54.6475 38.3783 54.8044 39.8722 55.3729 41.3122C56.8189 44.9764 56.704 48.6739 55.6012 52.3951C55.4319 52.967 55.0933 53.2253 54.4969 53.2237C51.6684 53.2094 48.84 53.2205 46.0101 53.2158C45.1744 53.2142 44.7846 52.6882 44.971 51.8502C45.1605 50.9979 45.7476 50.4561 46.476 50.1615C47.1812 49.8747 47.1921 49.4296 47.074 48.8197C46.7339 47.0644 45.9666 45.5024 45.0191 44.0212C43.4317 41.5419 41.4389 39.4096 39.4322 37.2916C38.6649 36.482 37.8759 35.6931 37.1194 34.8725C36.8694 34.6 36.6442 34.5398 36.3102 34.6903C35.7619 34.9375 35.1671 35.0896 34.6483 35.3842C32.5794 36.5581 30.4235 36.5533 28.2288 35.9133C27.0996 35.5838 26 35.1497 24.8615 34.7553L24.8521 34.7505ZM39.3592 32.6594C39.0377 31.9814 38.6929 31.3604 38.4412 30.7014C37.5264 28.295 37.5342 25.9219 38.7923 23.6201C38.9988 23.2415 39.2815 22.9468 39.7242 23.2288C40.1296 23.487 40.0224 23.8419 39.805 24.2062C39.2272 25.1742 38.9678 26.2387 38.96 27.3667C38.9429 29.5734 39.8252 31.4428 41.1687 33.0856C42.0727 34.1913 43.1102 35.1814 44.067 36.2412C45.8641 38.231 47.7186 40.1716 49.4116 42.25C50.9695 44.1637 52.1127 46.3404 52.4777 48.8624C52.6765 50.2359 52.5336 50.5005 51.3205 51.1595C50.9773 51.3464 50.6884 51.6347 50.3731 51.8755L50.4694 52.0308C51.6498 52.0308 52.8302 52.0118 54.0107 52.0419C54.4052 52.0514 54.5481 51.8914 54.6398 51.5397C55.5173 48.186 55.5561 44.875 54.2359 41.61C53.5975 40.0306 53.4391 38.3688 53.5634 36.669C53.7156 34.5779 54.2872 32.5992 55.0234 30.6586C55.8357 28.5231 56.0143 26.3354 55.5888 24.0827C54.6817 19.2794 51.0052 16.5483 46.2244 17.1075C43.3214 17.4465 40.42 17.8299 37.5062 18.0073C34.0115 18.2196 30.5385 17.9107 27.154 16.9126C23.5567 15.8528 20.6491 13.9724 19.1829 10.2131C18.4917 8.44045 17.3905 6.8832 15.8497 5.73308C15.3325 5.34654 14.7314 5.07406 14.1442 4.73504C14.0775 5.59526 14.0309 6.32081 13.961 7.04637C13.9237 7.42657 13.7187 7.6943 13.3148 7.64836C12.8768 7.59766 12.7619 7.27449 12.8116 6.86894C12.8256 6.75171 12.852 6.63606 12.8675 6.51725C12.9933 5.53981 12.9219 4.58138 12.5491 3.66572C12.2027 2.81343 11.6607 2.12431 10.9337 1.68708C10.7644 2.46967 10.5703 3.20948 10.4554 3.96038C10.3808 4.4388 10.3575 4.94733 10.4289 5.42258C10.5082 5.94219 10.707 6.44596 10.884 6.94498C11.0161 7.31885 11.0611 7.66737 10.6542 7.85588C10.2177 8.05707 9.95211 7.80044 9.80766 7.39964C9.60264 6.82933 9.4178 6.25269 9.20191 5.60951C7.67043 6.42854 6.4729 7.56439 5.9883 9.29115C5.70872 10.2892 5.13558 10.953 4.29529 11.4314C3.89456 11.6595 3.46432 11.8353 3.02321 12.0476C3.29813 12.9047 3.27949 13.7158 2.61782 14.4667C4.07007 14.8675 5.36856 14.7328 6.62978 14.1704C7.00255 14.0041 7.32562 13.9914 7.51667 14.397C7.70771 14.8041 7.49958 15.094 7.12836 15.2398C6.66084 15.4235 6.18866 15.6342 5.6994 15.7087C4.86998 15.8338 4.02658 15.8623 3.15057 15.9352C3.40219 16.3899 3.80758 16.4786 4.26889 16.4216C4.8063 16.355 5.34371 16.2742 5.87957 16.1903C6.55212 16.0857 7.08332 16.3471 7.55394 16.816C8.1628 17.4259 8.39423 18.2133 8.621 19.0149C9.50634 22.1436 10.8763 25.0237 12.9638 27.5061C13.6208 28.2887 14.3881 28.9746 15.1507 29.7509C15.2035 29.5829 15.2377 29.4942 15.261 29.4039C15.9879 26.5809 16.7195 23.7595 17.434 20.9333C17.5411 20.5072 17.6716 20.1333 18.1795 20.2458C18.6952 20.3598 18.6703 20.7796 18.5725 21.1947C18.1764 22.8834 17.7974 24.5769 17.3749 26.2577C17.0006 27.7469 16.471 29.2027 16.1992 30.7093C15.7876 32.9826 16.1432 35.2464 16.7195 37.4516C17.5163 40.4964 18.1283 43.5618 18.178 46.7238C18.1935 47.7091 18.1811 48.6945 18.1811 49.6783L18.3581 49.5769C18.5616 49.8129 18.8738 50.0205 18.9421 50.2929C19.054 50.7381 18.6237 50.8316 18.31 50.9916C17.8813 51.2118 17.4417 51.4431 17.0783 51.7551C16.808 51.9864 16.6496 52.354 16.398 52.7262H20.236C20.4068 50.0331 20.9411 47.4953 22.308 45.2616C23.4698 43.3606 23.8286 41.3265 23.8519 39.1625C23.8876 35.7676 23.4092 32.4297 22.7615 29.1124C22.6792 28.691 22.6186 28.2871 23.1374 28.1635C23.695 28.0304 23.8286 28.4439 23.9047 28.8859C24.1221 30.1691 24.3225 31.4554 24.5726 32.7323C24.6207 32.9762 24.8195 33.2915 25.0276 33.3818C26.1832 33.8808 27.3404 34.3973 28.5395 34.76C30.4515 35.3383 32.3386 35.3288 34.1668 34.2975C34.9356 33.8634 35.8085 33.5972 36.6566 33.3343C37.5404 33.0586 38.4521 32.878 39.3623 32.6531L39.3592 32.6594ZM36.026 12.8033L36.1269 12.9158C36.3025 12.8001 36.4764 12.6829 36.6519 12.5672C38.289 11.5027 39.9836 10.5648 41.8909 10.0975C45.2738 9.27056 47.8724 10.6741 49.0761 14.0041C49.2765 14.557 49.3774 15.1447 49.5514 15.7071C49.6027 15.8718 49.7192 16.1095 49.8465 16.1412C51.4432 16.5245 52.8271 17.3071 54.0169 18.435C54.0775 18.3844 54.1132 18.3638 54.135 18.3337C54.1676 18.2861 54.1924 18.2323 54.2188 18.1784C55.4039 15.7514 55.7503 13.2358 55.0001 10.6013C53.7373 6.16556 49.7129 3.64196 45.3717 4.5893C43.5125 4.99485 41.922 5.95011 40.4868 7.19528C38.654 8.78263 37.2235 10.6963 36.0275 12.8033H36.026ZM49.1507 52.0118C49.3837 50.9535 50.1075 50.407 50.9617 50.0173C51.3329 49.8478 51.4696 49.6276 51.3671 49.241C51.145 48.4046 50.9959 47.5412 50.6853 46.7412C49.7704 44.3919 48.2514 42.437 46.5817 40.612C44.5469 38.3878 42.461 36.2127 40.3905 34.0234C40.3066 33.9347 40.1607 33.8349 40.055 33.8475C39.4182 33.9236 38.7861 34.0313 38.1523 34.1279L38.07 34.3434C38.7441 34.9929 39.4695 35.5965 40.083 36.3014C41.9111 38.3941 43.7672 40.4678 45.4742 42.6588C46.8426 44.414 47.8289 46.4196 48.2079 48.6723C48.43 49.9951 48.3896 50.6066 47.0398 51.188C46.7012 51.3337 46.431 51.6427 46.1297 51.8771L46.2229 52.0149H49.1507V52.0118ZM14.3353 30.7172C14.2219 31.3366 14.1194 31.9196 14.0091 32.4994C13.5214 35.0753 13.3241 37.6575 13.7342 40.2714C14.0588 42.3356 14.34 44.4093 14.5978 46.483C14.7314 47.5539 14.7749 48.6359 14.8587 49.7131L15.0265 49.5943C15.2284 49.8256 15.5344 50.0268 15.6105 50.2961C15.7254 50.7001 15.3604 50.8427 15.0389 50.9726C14.7345 51.0961 14.4363 51.2482 14.1613 51.4272C13.686 51.7377 13.2667 52.1052 13.1844 52.7706C13.8336 52.7706 14.4471 52.7833 15.0575 52.7579C15.1601 52.7532 15.3231 52.5963 15.3464 52.4854C15.5235 51.6141 16.0563 51.0201 16.7226 50.5021C16.8655 50.3912 16.9944 50.163 17.0006 49.984C17.1373 46.5353 16.954 43.1134 16.0827 39.7613C15.3977 37.1221 14.7764 34.4733 14.91 31.7137C14.9333 31.2368 14.823 30.9136 14.3368 30.7156L14.3353 30.7172ZM8.81205 4.61782C8.99222 4.31524 9.18793 4.0887 9.27491 3.82414C9.46751 3.23799 9.19725 2.7865 8.78409 2.35877C8.61634 3.09066 8.1597 3.76077 8.81205 4.61782ZM1.95459 12.6813L1.74491 12.572L1.23234 13.4671C1.37058 13.5368 1.56007 13.7047 1.64084 13.6619C2.03847 13.4496 2.12389 13.0948 1.95459 12.6813Z" fill="#A7A7A7"/>
<path d="M9.55827 9.45607C9.50546 9.88221 9.27869 10.1531 8.84845 10.1389C8.41821 10.1246 8.17125 9.83944 8.18833 9.41171C8.20386 9.01408 8.46015 8.75111 8.86088 8.75269C9.28801 8.75269 9.51633 9.01884 9.55827 9.45765V9.45607Z" fill="#A7A7A7"/>
</g>
<defs>
<clipPath id="clip0_1263_3488">
<rect width="57" height="54" fill="white"/>
</clipPath>
</defs>
</svg>
