<svg width="227" height="148" viewBox="0 0 227 148" fill="none" xmlns="http://www.w3.org/2000/svg">
<path d="M197.352 138.487C203.17 138.384 208.974 138.252 214.792 138.179C215.495 138.179 215.92 137.872 216.199 137.286C216.917 135.779 217.122 134.183 216.917 132.544C216.712 130.831 215.993 129.323 215.143 127.845C212.711 123.571 208.886 121.931 204.137 122.063C201.734 122.122 199.374 122.561 197.103 123.307C193.82 124.376 190.596 125.591 187.313 126.645C185.452 127.245 183.547 127.713 181.627 128.094C180.865 128.24 180.396 128.504 180.176 129.206C179.824 130.275 179.487 131.343 179.179 132.426C178.784 133.832 178.417 135.237 178.08 136.657C177.787 137.857 178.241 138.53 179.414 138.677C179.839 138.735 180.278 138.735 180.703 138.735C186.258 138.662 191.798 138.589 197.352 138.516V138.487Z" fill="#F4D6AE"/>
<path d="M57.76 147.123C59.0203 147.137 59.9729 146.611 60.4272 145.425C60.7203 144.664 60.9695 143.829 60.9548 143.024C60.8815 139.775 59.6798 136.95 57.3643 134.637C56.397 133.671 56.3091 133.012 57.1151 131.885C60.9841 126.469 64.8531 121.053 68.7221 115.637C69.5282 114.51 69.5428 114.232 68.5902 113.236C64.4867 108.889 60.3833 104.556 56.2651 100.224C54.8289 98.7012 54.4332 98.7598 53.5099 100.648C51.5168 104.732 49.5383 108.816 47.6038 112.929C42.9581 122.81 38.5175 132.778 33.3295 142.395C33.0511 142.907 32.8752 143.493 32.6994 144.064C32.4209 145 32.758 145.937 33.608 146.347C34.0623 146.567 34.6339 146.596 35.1468 146.611C41.39 146.757 56.4703 147.094 57.76 147.108V147.123Z" fill="#FFEFD8"/>
<path d="M50.4481 101.951C53.3352 108.216 56.7645 114.144 61.1904 119.472C66.2758 125.576 72.0353 130.86 79.0259 134.739C84.7562 137.93 90.7062 140.638 96.8907 142.819C101.009 144.268 105.2 145.425 109.509 146.083C115.195 146.947 120.94 147.269 126.685 147.474C131.272 147.635 135.859 147.679 140.432 147.737C146.045 147.811 151.658 147.913 157.285 147.899C162.634 147.899 167.984 147.752 173.333 147.65C177.92 147.562 182.507 147.445 187.08 147.386C189.336 147.357 191.593 147.445 193.85 147.474C201.325 147.562 208.813 147.664 216.288 147.694C218.882 147.694 221.476 147.533 224.055 147.386C225.125 147.328 225.696 146.83 225.945 145.791C226.077 145.249 226.092 144.678 226.048 144.122C226.004 143.536 225.872 142.936 225.726 142.365C224.876 138.808 223.293 135.661 220.245 133.495C216.434 130.787 212.082 129.718 207.465 129.675C204.725 129.645 202.072 130.392 199.434 131.05C195.829 131.958 192.253 132.953 188.662 133.905C188.149 134.037 187.534 134.446 187.138 133.773C186.772 133.158 187.299 132.734 187.666 132.309C189.893 129.806 191.461 126.952 192.282 123.702C193.22 120.028 192.37 116.808 189.703 114.085C188.34 112.695 186.742 111.641 185.013 110.763C183.005 109.738 180.954 108.772 179.019 107.615C177.187 106.532 175.956 104.966 175.751 102.683C175.56 100.545 175.15 98.423 174.857 96.2858C174.183 91.3383 172.175 87.0787 168.438 83.6974C165.976 81.4578 163.25 79.6574 159.909 78.9987C158.604 78.7498 157.3 78.5156 155.966 78.3985C151.921 78.0033 147.921 78.3692 144.022 79.4378C141.179 80.2136 138.439 81.3261 135.61 82.1458C130.129 83.7413 124.575 84.8538 118.815 84.0926C116.675 83.7999 114.594 83.3314 112.675 82.2775C110.242 80.9601 108.205 79.189 106.373 77.1543C104.702 75.31 103.163 73.3485 101.449 71.5334C97.5356 67.3763 94.1942 62.7947 90.9847 58.1106C88.6398 54.6854 86.0605 51.4358 83.232 48.3765C78.2785 42.9752 72.6216 38.5546 65.8948 35.5539C59.6369 32.7581 53.1153 31.5724 46.2713 32.436C43.1351 32.8312 40.0574 33.5046 37.0238 34.3975C35.2945 34.9098 33.6531 34.8366 31.9824 34.1779C29.4617 33.1972 27.0875 31.9383 24.8452 30.4453C20.5805 27.5909 17.1952 23.8583 14.2641 19.7305C10.1606 13.9632 6.81918 7.80072 4.63554 1.03808C4.53296 0.701415 4.22519 0.320834 3.91742 0.189094C3.44845 -0.0011966 2.99415 0.27692 2.7157 0.686777C2.42259 1.12591 2.15881 1.59432 1.96829 2.092C1.045 4.39012 0.546703 6.79071 0.414805 9.24985C0.165665 13.6119 0.561372 17.93 1.16224 22.2482C2.37863 30.9576 5.54418 38.9645 9.8675 46.5614C10.7908 48.1716 11.9339 49.6354 12.9744 51.187C13.6046 52.1238 13.8537 53.0606 13.4434 54.2463C10.2778 63.2631 9.76491 72.4117 12.4761 81.6335C13.121 83.8291 13.9563 85.9516 14.6305 88.1326C14.9382 89.128 15.3046 90.138 15.0848 91.2358C14.0443 96.5786 12.9744 101.907 11.9925 107.264C10.8201 113.719 9.72093 120.189 8.59247 126.659C7.97695 130.187 7.39075 133.715 6.77523 137.242C6.4235 139.233 5.99848 141.209 5.66141 143.2C5.45624 144.415 5.92521 145.147 7.11229 145.542C7.36143 145.63 7.61058 145.717 7.87438 145.747C9.92612 145.952 11.9632 146.142 14.0149 146.318C17.0632 146.566 20.1116 146.83 23.1599 147.035C24.5814 147.137 26.0176 147.225 27.4392 147.152C28.8901 147.079 29.403 146.566 29.491 145.132C29.5496 144.151 29.491 143.141 29.2711 142.19C28.6703 139.467 26.8237 137.535 24.8892 135.676C24.5814 135.383 24.2737 135.076 23.9806 134.768C23.5702 134.329 23.5409 133.817 23.7021 133.275C23.8047 132.953 23.9366 132.646 24.0685 132.353C25.6659 128.708 27.2194 125.034 28.8901 121.419C30.1798 118.623 31.6306 115.9 33.0082 113.134C33.4772 112.182 34.21 111.538 35.1479 111.011C37.8005 109.504 40.4531 107.967 43.0178 106.313C45.4213 104.776 47.7222 103.078 50.1403 101.394C50.2429 101.599 50.3308 101.775 50.4041 101.951H50.4481Z" fill="#FFEFD8"/>
<path d="M133.941 93.8414C133.941 92.7728 133.326 92.3776 132.285 92.7143C132.095 92.7728 131.919 92.8607 131.743 92.9485C129.398 94.1341 127.068 95.3344 124.738 96.5201C124.181 96.7982 123.888 97.2227 123.873 97.8521C123.844 98.6718 123.8 99.5062 123.697 100.326C123.155 105.273 123.331 110.206 124.078 115.11C124.576 118.418 125.617 121.551 127.141 124.537C127.757 125.722 128.607 126.659 129.794 127.274C132.901 128.869 136.066 130.333 139.481 131.138C140.155 131.299 143.848 132.47 143.54 131.724C143.409 131.387 140.052 128.811 137.253 121.068C134.542 114.363 133.663 107.367 133.736 101.014C133.824 98.0717 133.912 95.9492 133.927 93.8268L133.941 93.8414Z" fill="#17AA1A"/>
<path d="M136.988 106.196C140.549 103.81 143.451 100.78 145.884 97.296C148.697 93.2853 151.203 89.1282 152.112 84.1806C152.376 82.7608 151.98 81.824 150.954 80.9603C146.44 77.1838 141.326 74.7393 135.449 74.0074C133.866 73.8171 132.401 74.0074 131.184 75.1491C130.774 75.5297 130.276 75.8371 129.88 76.2323C127.476 78.6183 125.058 80.9896 122.699 83.4048C121.233 84.9125 120.061 86.6398 119.02 88.4695C116.749 92.4656 115.957 96.6959 116.866 101.234C117.511 104.454 119.152 106.928 122.171 108.377C123.681 109.094 125.263 109.533 126.201 109.504C130.671 109.504 133.954 108.23 137.002 106.181L136.988 106.196Z" fill="#212121"/>
<path d="M38.6651 48.6401C44.6005 58.8719 52.4558 51.1578 63.2128 58.5645C73.9698 65.9712 73.0758 74.8124 76.9594 78.8963C81.8543 84.0195 92.8751 84.9271 103.031 73.2315C102.533 72.6607 102.02 72.0898 101.507 71.5336C97.5941 67.3764 94.2527 62.7948 91.0432 58.1108C88.6984 54.6855 86.119 51.4359 83.2905 48.3767C78.337 42.9753 72.6801 38.5547 65.9533 35.554C59.6955 32.7582 53.1739 31.5725 46.3298 32.4362C43.1936 32.8314 40.116 33.5047 37.0823 34.3976C37.0384 34.3976 36.9797 34.4269 36.9358 34.4415C36.0271 38.7743 35.9539 43.9853 38.6651 48.6694V48.6401Z" fill="#212121"/>
<path d="M102.695 128.811C94.0187 127.611 89.2997 105.478 76.6668 114.334C70.1305 118.916 69.6762 124.566 71.0538 129.309C73.5305 131.329 76.1831 133.144 79.0409 134.739C84.7712 137.93 90.7212 140.638 96.9058 142.819C101.024 144.268 105.215 145.425 109.524 146.084C114.14 146.786 118.786 147.123 123.432 147.342C124.795 134.022 111.253 129.997 102.695 128.811Z" fill="#212121"/>
<path d="M35.3815 99.155C38.0488 87.2106 32.5237 85.7615 29.7246 81.1506C26.9107 76.5397 30.8823 65.0637 23.5987 61.1847C18.4693 58.4475 14.4244 59.6917 11.4347 62.063C10.3063 68.5182 10.614 75.0467 12.5339 81.6044C13.1787 83.8 14.0141 85.9225 14.6882 88.1035C14.996 89.0989 15.3624 90.1089 15.1425 91.2067C14.102 96.5495 13.0322 101.878 12.0503 107.235C11.6985 109.153 11.3615 111.07 11.0244 112.988C22.5728 114.964 34.1505 104.703 35.3962 99.155H35.3815Z" fill="#212121"/>
<path d="M175.619 133.349C171.853 132.353 168.775 130.48 166.987 126.879C166.796 126.498 166.606 126.103 166.474 125.693C166.328 125.196 166.342 124.683 166.884 124.405C167.295 124.186 167.72 124.405 168.072 125.02C168.526 125.796 168.922 126.601 169.449 127.333C171.735 130.494 174.93 131.783 178.755 131.695C180.133 131.665 181.393 131.212 182.434 130.333C183.591 129.353 184.691 128.284 185.746 127.186C186.42 126.484 186.229 125.942 185.292 125.576C184.793 125.386 183.635 124.815 183.166 124.566C180.602 123.161 179.737 121.931 179.84 118.887C179.928 116.34 181.686 114.73 183.328 113.968C186.816 112.373 191.227 113.266 193.132 114.071C197.382 115.871 198.13 121.961 194.48 124.405C192.883 125.474 192.238 125.81 189.893 126.059C189.014 126.147 188.428 126.498 187.944 127.216C186.86 128.826 185.526 130.187 184.031 131.431C181.54 133.495 178.697 133.964 175.604 133.349H175.619Z" fill="#212121"/>
<path d="M172.338 138.311C168.923 138.106 165.64 137.989 162.372 137.682C157.419 137.213 152.627 135.954 147.908 134.49C142.705 132.88 137.473 131.329 132.519 129.031C128.138 126.996 123.931 124.683 119.96 121.917C119.476 121.58 119.007 121.185 118.582 120.775C118.245 120.453 118.128 119.999 118.45 119.604C118.743 119.253 119.154 119.267 119.55 119.428C119.725 119.501 119.901 119.604 120.062 119.721C127.126 124.844 134.879 128.533 143.189 131.138C148.069 132.675 152.934 134.256 157.961 135.252C161.039 135.866 164.131 136.159 167.267 136.291C171.517 136.467 175.767 136.525 180.017 136.174C180.648 136.115 181.278 136.057 181.908 136.013C182.142 135.998 182.377 135.984 182.611 135.984C183.066 135.998 183.403 136.232 183.417 136.701C183.432 137.111 183.168 137.389 182.758 137.447C181.776 137.594 180.794 137.799 179.798 137.872C177.277 138.047 174.756 138.179 172.353 138.311H172.338Z" fill="#212121"/>
<path d="M24.2442 116.018C23.6579 116.018 23.2329 115.944 23.1597 115.388C23.0864 114.847 23.4967 114.656 23.9364 114.525C25.5631 114.042 27.2045 113.632 28.7873 113.046C34.2391 111.041 39.2805 108.245 43.9555 104.805C46.5495 102.902 49.0409 100.882 51.3858 98.6719C54.6393 95.598 57.0574 91.9239 59.2264 88.0596C60.0617 86.5665 60.7212 84.9564 61.454 83.4048C61.5712 83.1706 61.6152 82.8632 61.7911 82.7021C62.0109 82.4972 62.4066 82.2337 62.5971 82.3069C62.8609 82.424 63.0954 82.79 63.1687 83.0974C63.2419 83.3901 63.1247 83.7561 63.0075 84.0635C62.6997 84.8978 62.3919 85.7468 61.9816 86.5519C59.1531 92.1581 55.7238 97.3252 50.9168 101.497C44.5857 107.001 37.6977 111.612 29.7545 114.466C28.1425 115.052 26.4424 115.432 24.7864 115.901C24.5666 115.959 24.3321 115.988 24.2148 116.018H24.2442Z" fill="#212121"/>
<path d="M27.7187 143.917C27.792 144.473 27.7773 145.03 27.6894 145.586C27.6601 145.776 27.6308 145.952 27.5721 146.142C27.4549 146.567 27.1471 146.83 26.6782 146.757C26.2092 146.684 26.0333 146.347 26.0187 145.893C26.0187 145.425 26.092 144.956 25.9894 144.503C25.7696 143.537 25.4764 142.6 25.198 141.648C25.0808 141.268 24.8902 140.902 24.8463 140.521C24.8169 140.302 24.9488 139.965 25.1247 139.863C25.2859 139.76 25.6523 139.804 25.8282 139.936C26.1359 140.17 26.4144 140.477 26.6196 140.799C27.1911 141.765 27.5575 142.805 27.7041 143.917H27.7187Z" fill="#212121"/>
<path d="M23.5112 143.098C23.643 143.698 23.6284 144.313 23.4818 144.913C23.3939 145.264 23.306 145.601 23.1741 145.937C23.0275 146.318 22.6758 146.625 22.2361 146.464C21.7818 146.303 21.7818 145.908 21.8697 145.469C22.1189 144.151 21.8404 142.907 21.1956 141.751C21.0051 141.4 20.7559 141.063 20.668 140.697C20.6094 140.463 20.6973 140.068 20.8585 139.921C21.0344 139.775 21.4301 139.775 21.6646 139.877C21.943 140.009 22.1922 140.272 22.3973 140.521C22.9396 141.195 23.3206 142.117 23.5258 143.098H23.5112Z" fill="#212121"/>
<path d="M224.07 143.917C224.144 144.473 224.129 145.03 224.041 145.586C224.012 145.776 223.982 145.952 223.924 146.142C223.806 146.567 223.499 146.83 223.03 146.757C222.561 146.684 222.385 146.347 222.37 145.893C222.37 145.425 222.444 144.956 222.341 144.503C222.121 143.537 221.828 142.6 221.55 141.648C221.447 141.268 221.242 140.902 221.198 140.521C221.169 140.302 221.3 139.965 221.476 139.863C221.637 139.76 222.004 139.804 222.18 139.936C222.487 140.17 222.766 140.477 222.971 140.799C223.543 141.765 223.909 142.805 224.056 143.917H224.07Z" fill="#212121"/>
<path d="M219.863 143.098C219.995 143.698 219.98 144.313 219.833 144.913C219.745 145.264 219.658 145.601 219.526 145.937C219.379 146.318 219.027 146.625 218.588 146.464C218.133 146.303 218.133 145.908 218.221 145.469C218.47 144.151 218.192 142.907 217.547 141.751C217.357 141.4 217.108 141.063 217.02 140.697C216.961 140.463 217.049 140.068 217.21 139.921C217.386 139.775 217.782 139.775 218.016 139.877C218.295 140.009 218.544 140.272 218.749 140.521C219.291 141.195 219.672 142.117 219.877 143.098H219.863Z" fill="#212121"/>
<path d="M58.3762 142.424C58.4788 142.995 58.4788 143.566 58.3762 144.137C58.3322 144.429 58.2736 144.708 58.1857 144.986C58.0977 145.249 57.8779 145.542 57.6434 145.659C57.3796 145.776 56.9693 145.805 56.7348 145.674C56.5589 145.586 56.4417 145.117 56.515 144.898C57.0426 143.185 56.6322 141.707 55.577 140.316C55.3425 140.009 55.1081 139.614 55.4744 139.233C55.8555 138.838 56.3098 139.013 56.6615 139.262C56.9986 139.511 57.3064 139.848 57.5262 140.199C57.9658 140.887 58.2296 141.619 58.3762 142.409V142.424Z" fill="#212121"/>
<path d="M53.8491 144.151C53.9077 144.605 53.8491 145.073 53.6732 145.498C53.6293 145.6 53.5707 145.703 53.4974 145.791C53.3362 145.981 52.9551 146.171 52.7646 146.113C52.5155 146.025 52.1931 145.659 52.2077 145.425C52.325 143.932 51.7387 142.731 50.7861 141.648C50.4637 141.282 50.2586 140.843 50.6982 140.419C51.1232 140.009 51.5922 140.17 51.9439 140.506C52.9991 141.516 53.6733 142.702 53.8638 144.151H53.8491Z" fill="#212121"/>
<path d="M170 108C170 109.108 169.324 110 168.5 110C167.676 110 167 109.1 167 108C167 106.9 167.676 106 168.5 106C169.324 106 170 106.9 170 108Z" fill="#212121"/>
<path d="M193.809 117.013C193.809 118.096 191.947 118.96 189.661 118.945C187.375 118.93 185.528 118.052 185.528 116.969C185.528 115.886 187.39 115.022 189.676 115.037C191.962 115.037 193.809 115.93 193.809 117.013Z" fill="#FFEFD8"/>
</svg>
