<svg width="38" height="38" viewBox="0 0 38 38" fill="none" xmlns="http://www.w3.org/2000/svg">
<path d="M38 19C38 29.4934 29.4934 38 19 38C8.50659 38 0 29.4934 0 19C0 8.50659 8.50659 0 19 0C29.4934 0 38 8.50659 38 19Z" fill="#080808"/>
<path d="M27.578 19C27.578 23.73 23.7436 27.5644 19.0136 27.5644C14.2836 27.5644 10.4492 23.73 10.4492 19C10.4492 14.27 14.2836 10.4356 19.0136 10.4356C23.7436 10.4356 27.578 14.27 27.578 19Z" stroke="#D9D9D9" stroke-width="1.5"/>
<path d="M29.5816 19H27.5664" stroke="#D9D9D9" stroke-width="1.5" stroke-linecap="round" stroke-linejoin="round"/>
<path d="M10.437 19H8.42187" stroke="#D9D9D9" stroke-width="1.5" stroke-linecap="round" stroke-linejoin="round"/>
<path d="M19 8.42046L19 10.4356" stroke="#D9D9D9" stroke-width="1.5" stroke-linecap="round" stroke-linejoin="round"/>
<path d="M19 27.5644V29.5796" stroke="#D9D9D9" stroke-width="1.5" stroke-linecap="round" stroke-linejoin="round"/>
<path d="M22.0259 19C22.0259 20.6694 20.6726 22.0227 19.0032 22.0227C17.3337 22.0227 15.9804 20.6694 15.9804 19C15.9804 17.3306 17.3337 15.9773 19.0032 15.9773C20.6726 15.9773 22.0259 17.3306 22.0259 19Z" stroke="#D9D9D9" stroke-width="1.5"/>
</svg>
