<svg width="390" height="844" viewBox="0 0 390 844" fill="none" xmlns="http://www.w3.org/2000/svg">
<g clip-path="url(#clip0_580_2653)">
<rect width="390" height="844" fill="#FDFDFD"/>
<g clip-path="url(#clip1_580_2653)">
<path d="M246.624 549.182C252.159 551.69 256.016 554.491 258.428 559.016C259.658 561.315 260.247 563.783 260.308 566.319C260.362 568.417 260.159 570.558 259.961 572.669C259.787 574.504 260.095 575.391 261.753 576.231C263.044 576.875 264.406 577.392 265.768 577.832C276.583 581.379 286.927 586.049 297.116 591.031C299.902 592.39 302.724 593.724 305.504 595.113C308.073 596.382 309.224 596.235 311.359 594.256C312.423 593.282 313.457 592.223 314.642 591.429C323.336 585.725 332.322 585.189 341.516 590.162C343.756 591.366 345.434 593.208 346.663 595.428C349.056 599.732 350.233 604.357 350.104 609.286C349.887 616.955 345.27 622.838 337.686 625.115C336.111 625.599 334.451 625.88 332.851 626.25C332.396 626.347 331.929 626.427 331.497 626.56C329.76 627.075 329.594 627.525 330.39 629.099C331.143 630.572 331.897 632.045 332.513 633.584C334.935 639.56 334.239 645.234 330.633 650.568C328.043 654.389 324.7 657.361 320.461 659.19C313.922 662.015 307.612 661.225 301.63 657.507C298.59 655.616 296.274 652.979 294.377 649.957C292.317 646.653 291.485 643.124 292.091 639.255C292.226 638.41 292.211 637.456 291.909 636.696C291.662 636.055 290.988 635.44 290.346 635.142C286.282 633.313 282.14 631.641 278.099 629.77C271.333 626.631 264.597 623.419 257.89 620.135C255.104 618.777 252.437 617.13 249.657 615.741C248.138 614.99 246.5 614.449 244.891 613.915C243.883 613.576 243.177 614.076 242.544 614.917C239.773 618.702 236.117 621.207 231.54 622.3C223.464 624.23 212.214 621.47 207.54 610.08C206.58 607.757 205.889 605.253 205.552 602.772C204.828 597.114 206.954 592.408 211.019 588.534C213.668 586.002 216.666 583.991 220.236 582.949C220.386 582.901 220.535 582.852 220.685 582.804C222.925 581.874 223.067 581.388 221.838 579.245C219.27 574.72 218.83 569.835 220.123 564.933C222.175 557.595 226.962 552.43 233.776 549.239C238.356 547.103 243.051 547.466 246.624 549.182Z" fill="#E9E9E9"/>
</g>
<g clip-path="url(#clip2_580_2653)">
<path d="M369.761 569.559C369.863 570.206 370.656 570.471 371.155 570.03C372.183 569.088 373.138 568.25 373.989 567.309C380.127 560.471 385.031 552.883 387.938 544.074C389.451 539.471 390.699 534.824 391.433 530.03C392.152 525.338 392.431 520.618 392.299 515.868C392.255 514.015 392.916 513.441 394.795 513.706C397.806 514.133 400.478 515.383 402.857 517.221C407.379 520.706 409.655 525.412 409.978 531.074C410.139 533.853 409.904 536.603 409.214 539.309C409.185 539.412 409.17 539.515 409.156 539.618C409.082 540.221 409.684 540.691 410.242 540.471C410.609 540.324 410.932 540.074 411.285 539.883C412.357 539.309 413.208 539.603 413.487 540.794C413.766 541.956 413.986 543.147 413.986 544.338C413.972 548.162 413.032 551.794 411.549 555.294C409.464 560.191 406.513 564.53 403.033 568.53C402.768 568.838 402.475 569.103 402.255 569.441C402.108 569.662 401.99 569.985 402.034 570.235C402.064 570.368 402.445 570.471 402.695 570.515C402.989 570.559 403.297 570.544 403.591 570.544C404.207 570.53 404.677 570.794 404.765 571.397C404.883 572.309 405.015 573.265 404.868 574.147C404.398 577.074 402.974 579.603 401.271 581.985C398.833 585.383 395.794 588.147 392.49 590.677C386.279 595.441 379.613 599.441 372.404 602.471C368.483 604.118 364.489 605.647 360.246 606.309C357.75 606.691 355.239 607.015 352.713 607.206C346.267 607.677 339.807 607.633 333.346 607.691C326.46 607.75 319.559 608.044 312.672 608.03C304.978 608 297.284 607.838 289.62 607.191C285.949 606.883 282.234 606.956 278.548 606.883C275.949 606.838 273.351 606.75 270.825 606C270.223 605.824 269.621 605.603 269.048 605.353C266.229 604.118 265.084 601.677 264.423 598.883C264.012 597.088 264.32 595.353 264.922 593.677C265.847 591.088 267.11 588.662 269.063 586.677C270.399 585.324 271.706 583.941 273.086 582.633C274.569 581.235 275.333 579.559 275.612 577.574C276.052 574.294 275.817 571.059 275.259 567.824C274.305 562.338 273.424 556.838 272.969 551.28C272.499 545.427 272.191 539.559 272.66 533.691C273.306 525.603 274.555 517.618 276.522 509.735C276.757 508.809 276.963 507.853 277.007 506.897C277.08 505.309 276.61 504.794 275.068 504.603C270.106 503.985 265.466 502.412 261.163 499.897C254.864 496.191 251.649 490.75 252.03 483.397C252.177 480.559 252.794 477.78 254.967 475.735C256.171 474.603 257.566 473.647 258.99 472.809C261.369 471.412 263.821 470.133 266.288 468.897C268.637 467.721 270.223 465.868 271.339 463.559C273.527 459.03 276.977 455.853 281.573 453.912C283.071 453.28 284.613 452.721 286.154 452.177C286.551 452.03 286.727 451.838 286.859 451.456C287.975 448.191 289.766 445.324 292.057 442.765C293.599 441.044 295.463 439.691 297.534 438.633C299.971 437.368 301.924 438.088 303.804 440.03C306.035 442.324 307.46 445.088 308.429 448.118C308.502 448.338 308.546 448.574 308.649 448.78C308.913 449.309 309.427 449.485 309.985 449.235C310.293 449.103 310.558 448.897 310.851 448.75C313.95 447.074 317.165 445.765 320.777 445.735C322.833 445.721 324.36 446.206 325.197 449.206C325.667 450.897 326.005 452.647 326.239 454.397C326.827 458.912 326.915 463.427 325.916 467.927C325.652 469.088 325.975 470.265 326.518 471.309C328.046 474.265 328.736 477.412 329.103 480.691C329.47 484.044 328.985 487.353 328.736 490.662C328.559 493.015 328.222 495.368 328.148 497.735C328.09 499.588 328.324 501.456 328.501 503.309C328.559 503.838 328.853 504.383 329.117 504.868C331.922 510.206 335.505 515.015 339.043 519.853C342.376 524.397 345.709 528.941 349.395 533.206C351.128 535.191 352.963 537.074 354.637 539.118C357.72 542.868 360.892 546.574 363.329 550.809C366.06 555.544 368.336 560.456 369.32 565.868C369.54 567.074 369.614 568.309 369.79 569.53L369.761 569.559Z" fill="#D97D4C"/>
<path d="M298.4 518.338C291.91 518.324 285.508 517.603 279.224 515.912C278.034 515.588 276.904 515.118 275.729 514.75C274.334 514.309 273.717 513.279 273.6 511.927C273.438 510 273.659 508.132 274.496 506.368C275.186 504.912 275.67 504.721 277.241 504.838C279.194 505 281.162 505.103 283.129 505.132C287.153 505.177 291.191 505.221 295.228 505.132C301.351 505 307.371 504.162 313.289 502.574C315.286 502.029 317.283 501.529 319.265 500.941C321.893 500.162 324.345 498.971 326.753 497.677C326.988 497.544 327.223 497.412 327.458 497.294C329.073 496.515 329.91 496.632 330.806 498.206C332.392 501 333.654 503.927 333.287 507.294C333.214 507.941 333.038 508.471 332.538 508.853C331.423 509.691 330.336 510.603 329.132 511.294C323.773 514.338 318.017 516.206 311.923 517.132C308.429 517.662 304.949 518.279 301.41 518.353C300.412 518.368 299.413 518.353 298.415 518.353L298.4 518.338Z" fill="#4FA737"/>
<path d="M278.152 519.941C278.152 516.809 280.59 514.147 283.526 514.088C285.685 514.044 287.227 515.132 288.225 516.926C289.209 518.706 288.989 520.544 287.858 522.221C286.125 524.794 282.455 525.471 280.017 523.721C278.725 522.794 278.152 521.515 278.152 519.941Z" fill="#F2E64C"/>
<path d="M277.036 468.118C277.388 468.515 277.491 469.074 277.33 469.574C277.051 470.456 276.39 471.177 275.7 471.397C274.76 471.706 273.894 471 274.07 470.03C274.217 469.221 274.628 468.53 275.303 468.044C275.773 467.706 276.346 467.632 276.816 467.927C276.904 467.985 276.977 468.044 277.051 468.118H277.036Z" fill="#212121"/>
<path d="M292.688 473.927C293.041 474.324 293.143 474.883 292.982 475.383C292.703 476.265 292.042 476.985 291.352 477.206C290.412 477.515 289.546 476.809 289.722 475.838C289.869 475.03 290.28 474.338 290.956 473.853C291.425 473.515 291.998 473.441 292.468 473.735C292.556 473.794 292.629 473.853 292.703 473.927H292.688Z" fill="#212121"/>
<path d="M333.627 549.897C336.196 548.559 339.133 548.162 341.982 548.632C342.114 548.647 342.231 548.676 342.363 548.706C342.686 548.765 343.039 548.897 343.259 549.118C343.45 549.324 343.597 549.721 343.538 549.985C343.494 550.191 343.142 550.397 342.892 550.485C342.701 550.559 342.437 550.5 342.202 550.471C338.839 549.853 335.756 550.632 333.025 552.588C325.096 558.265 321.264 565.853 322.335 575.735C322.908 581.074 325.228 585.515 329.002 589.25C329.648 589.882 330.294 590.5 330.94 591.118C331.263 591.426 331.571 591.765 331.41 592.25C331.233 592.779 330.808 592.985 330.25 593.044C328.444 593.279 326.623 593.471 324.817 593.809C321.748 594.382 319.12 595.794 317.02 598.147C315.287 600.074 314.289 602.221 314.583 604.882C314.641 605.338 314.685 605.824 314.627 606.279C314.597 606.529 314.392 606.882 314.186 606.956C313.966 607.029 313.525 606.926 313.408 606.75C313.129 606.353 312.879 605.897 312.791 605.426C312.365 603.324 312.689 601.294 313.746 599.426C315.566 596.206 318.209 593.897 321.733 592.691C323.143 592.206 324.626 591.912 326.065 591.544C326.285 591.485 326.52 591.441 326.726 591.353C327.328 591.103 327.43 590.868 327.122 590.338C326.975 590.088 326.814 589.868 326.608 589.662C322.702 585.515 320.72 580.588 320.177 574.926C319.237 564.897 324.641 554.618 333.553 549.941L333.612 549.912L333.627 549.897Z" fill="#212121"/>
<path d="M269.269 492.368C271.236 492.412 272.881 491.647 274.305 490.309C274.525 490.103 274.745 489.897 274.98 489.721C275.348 489.456 275.729 489.456 276.082 489.75C276.478 490.074 276.493 490.5 276.273 490.926C276.199 491.074 276.082 491.206 275.979 491.324C273.63 493.956 270.678 494.853 267.316 494.132C265.172 493.676 263.733 492.162 262.852 490.162C262.397 489.132 262.25 489.029 261.237 489.515C258.888 490.632 256.186 490.25 254.644 488.441C254.116 487.838 253.793 487.029 253.469 486.279C253.279 485.824 253.455 485.338 253.969 485.118C254.453 484.912 254.806 485.206 255.055 485.574C255.261 485.868 255.466 486.191 255.613 486.515C256.465 488.338 258.741 488.794 260.517 487.838C260.84 487.662 261.134 487.456 261.413 487.221C261.986 486.735 261.986 486.235 261.442 485.706C260.958 485.25 260.429 484.824 260.004 484.324C259.049 483.176 258.535 481.868 258.8 480.353C259.078 478.691 260.371 477.485 262.045 477.324C264.35 477.088 266.361 477.926 268.226 479.162C269.401 479.941 270.385 480.926 271.177 482.103C272.822 484.574 270.884 487.971 268.065 488.015C267.242 488.029 266.405 487.926 265.598 487.794C264.702 487.647 264.364 487.941 264.482 488.838C264.717 490.471 266.567 492.206 268.256 492.368C268.579 492.397 268.916 492.368 269.254 492.368H269.269Z" fill="#212121"/>
<path d="M286.816 605.044C286.595 604.206 286.595 603.324 286.772 602.471C287.183 600.485 288.167 598.794 289.547 597.265C291.588 595 293.981 593.25 296.874 592.206C298.048 591.794 298.386 591.162 298.136 589.853C297.461 586.382 297.417 582.882 297.623 579.382C297.975 573.676 298.988 568.074 300.633 562.588C301.895 558.368 303.364 554.221 305.17 550.206C305.361 549.779 305.551 549.353 305.786 548.941C306.051 548.471 306.491 548.294 306.976 548.529C307.416 548.75 307.548 549.162 307.387 549.632C307.211 550.132 307.02 550.632 306.814 551.118C304.068 557.544 301.895 564.162 300.618 571.029C299.84 575.191 299.443 579.412 299.487 583.662C299.517 585.868 299.766 588.044 300.31 590.191C300.383 590.485 300.456 590.779 300.515 591.074C300.75 592.529 300.207 593.426 298.812 593.75C295.112 594.603 292.381 596.824 290.134 599.75C289.194 600.971 288.71 602.382 288.636 603.926C288.622 604.324 288.636 604.75 288.504 605.118C288.387 605.412 288.108 605.75 287.829 605.853C287.388 606 287.065 605.662 286.933 605.25C286.904 605.176 286.889 605.103 286.874 605.029L286.816 605.044Z" fill="#212121"/>
<path d="M290.311 562.588C290.517 562.809 290.884 562.735 290.986 562.441C291.119 562.03 291.236 561.691 291.412 561.397C291.588 561.088 291.941 560.794 292.278 560.691C292.748 560.544 293.086 560.897 293.292 561.309C293.365 561.456 293.453 561.603 293.512 561.765C294.202 563.544 295.274 565.044 296.801 566.206C297.212 566.515 297.755 566.824 297.52 567.485C297.388 567.882 296.772 567.882 295.979 567.544C294.877 567.059 294.055 566.25 293.35 565.294C293.159 565.029 292.939 564.765 292.748 564.53C292.646 564.412 292.499 564.338 292.337 564.368C292.323 564.368 292.308 564.368 292.293 564.382C291.221 565.427 290.737 565.456 289.577 564.471C287.962 563.088 286.934 561.324 286.273 559.309C286.214 559.118 286.097 558.794 285.979 558.53C285.891 558.324 285.627 558.265 285.465 558.412C285.407 558.471 285.348 558.515 285.289 558.574C284.599 559.28 283.615 559.191 283.057 558.382C282.617 557.735 282.22 557.015 281.927 556.294C280.209 552.118 279.724 547.809 280.547 543.353C280.635 542.868 280.782 542.353 281.046 541.956C281.207 541.721 281.663 541.544 281.956 541.588C282.147 541.618 282.411 542.088 282.397 542.353C282.338 543.412 282.162 544.471 282.074 545.53C281.795 549.088 282.279 552.515 283.733 555.794C283.777 555.882 283.821 555.971 283.865 556.059C284.012 556.309 284.379 556.294 284.511 556.03C284.731 555.588 284.937 555.206 285.128 554.824C285.275 554.53 285.377 554.177 285.612 553.956C285.862 553.735 286.273 553.471 286.537 553.53C286.86 553.603 287.242 553.941 287.36 554.265C287.536 554.721 287.506 555.25 287.55 555.75C287.727 558.103 288.402 560.265 289.9 562.132C290.017 562.28 290.149 562.427 290.296 562.588H290.311Z" fill="#212121"/>
<path d="M297.005 455.515C298.459 455.765 299.634 455.324 300.603 454.309C302.365 452.456 304.332 450.912 306.579 449.691C306.931 449.5 307.298 449.294 307.68 449.235C307.959 449.191 308.4 449.324 308.517 449.529C308.634 449.735 308.561 450.206 308.4 450.412C308.121 450.765 307.709 451.015 307.328 451.279C306.138 452.132 304.876 452.868 303.98 454.074C302.791 455.662 303.011 456.368 304.89 457.059C306.755 457.735 308.605 458.485 310.455 459.235C310.852 459.397 311.248 459.647 311.498 459.971C311.689 460.206 311.791 460.662 311.703 460.956C311.571 461.382 311.131 461.485 310.705 461.382C310.411 461.309 310.132 461.206 309.868 461.059C306.916 459.515 303.774 458.559 300.515 458.015C297.211 457.471 293.878 457.044 290.574 456.544C290.148 456.485 289.708 456.397 289.355 456.191C289.135 456.059 288.988 455.647 288.988 455.382C288.988 454.794 290.266 454.721 290.721 454.75C291.866 454.809 295.111 455.191 297.035 455.529L297.005 455.515Z" fill="#212121"/>
<path d="M295.42 446.75C295.773 446.603 295.949 446.235 295.876 445.868C295.67 444.941 296.14 444.221 297.08 444.206C298.225 444.191 299.223 444.618 300.031 445.441C300.325 445.75 300.53 446.191 300.192 446.5C300.002 446.691 299.532 446.647 299.194 446.603C298.915 446.559 298.651 446.427 298.284 446.25C298.166 446.206 298.049 446.309 298.093 446.427C298.166 446.662 298.21 446.838 298.284 446.985C298.489 447.471 298.886 447.927 298.474 448.471C298.049 449.029 297.491 448.868 296.918 448.735C296.507 448.647 296.066 448.632 295.641 448.632C295.318 448.632 295.2 449.074 295.45 449.279C295.846 449.588 296.199 449.853 296.536 450.147C296.845 450.397 297.168 450.647 297.373 450.985C297.711 451.544 297.344 452.088 296.698 452.029C296.404 452 296.096 451.912 295.861 451.735C295.024 451.147 294.143 450.574 293.394 449.882C292.631 449.177 292.689 448.235 293.541 447.662C294.099 447.279 294.73 447.044 295.435 446.75H295.42Z" fill="#212121"/>
<path d="M316.828 454.485C316.74 454.235 316.652 454.015 316.608 453.765C316.387 452.809 316.989 452.044 317.973 452.03C318.737 452.03 319.486 452.147 320.249 452.221C320.381 452.221 320.499 452.294 320.616 452.353C321.013 452.559 321.365 452.853 321.277 453.353C321.189 453.853 320.778 454.044 320.308 454.059C320.014 454.059 319.735 454.059 319.441 454.03C319.177 454.015 318.942 454.235 318.972 454.515C319.03 455.074 319.118 455.632 318.972 456.118C318.751 456.912 317.87 456.927 317.122 456.927C317.019 456.927 316.989 457.059 317.077 457.103C317.547 457.324 317.988 457.559 318.472 457.75C319.324 458.088 319.662 458.471 319.53 458.971C319.368 459.53 318.795 459.735 317.929 459.515C316.813 459.221 315.829 458.662 314.992 457.897C314.009 457.015 314.2 455.985 315.418 455.471C315.756 455.324 316.123 455.221 316.519 455.103C316.784 455.03 316.916 454.75 316.828 454.485Z" fill="#212121"/>
<path d="M267.977 602.706C268.123 600.618 269.195 598.956 270.502 597.412C271.016 596.809 271.677 596.338 272.293 595.838C272.514 595.662 272.807 595.515 273.101 595.456C273.835 595.324 274.364 595.985 274.026 596.647C273.835 597.015 273.512 597.338 273.189 597.603C271.442 599.059 270.223 600.824 269.885 603.118C269.856 603.28 269.812 603.441 269.753 603.603C269.592 604 269.327 604.309 268.872 604.265C268.373 604.221 268.109 603.897 268.05 603.412C268.021 603.177 268.021 602.941 268.006 602.691L267.977 602.706Z" fill="#212121"/>
<path d="M276.506 605.603C276.285 605.324 276.212 604.956 276.285 604.603C276.3 604.5 276.329 604.412 276.359 604.324C277.254 601.985 278.664 600.074 281.013 598.985C281.248 598.868 281.513 598.765 281.762 598.735C282.247 598.677 282.673 598.882 282.79 599.338C282.863 599.632 282.702 600.03 282.526 600.309C282.379 600.544 282.071 600.691 281.806 600.824C280.353 601.544 279.325 602.691 278.561 604.088C278.312 604.559 278.018 605 277.739 605.456C277.504 605.824 277.137 606.059 276.726 605.809C276.652 605.765 276.579 605.691 276.52 605.618L276.506 605.603Z" fill="#212121"/>
<path d="M294.789 604.912C294.995 602.824 296.022 601.015 298.034 599.838C298.21 599.735 298.401 599.662 298.577 599.603C299.077 599.441 299.532 599.529 299.796 600C300.075 600.485 299.84 600.897 299.444 601.206C299.311 601.309 299.179 601.397 299.033 601.485C297.594 602.412 296.801 603.706 296.654 605.412C296.58 606.279 296.228 606.75 295.729 606.75C295.186 606.75 294.833 606.176 294.789 605.309C294.789 605.235 294.789 605.176 294.789 604.897V604.912Z" fill="#212121"/>
<path d="M301.016 606.059C301.148 605.618 301.192 605.324 301.324 605.059C302.117 603.456 303.189 602.074 304.701 601.088C305.083 600.838 305.523 600.662 305.964 600.544C306.463 600.426 306.889 600.618 307.094 601.132C307.285 601.618 307.021 601.956 306.654 602.235C306.625 602.25 306.595 602.279 306.566 602.294C304.863 603 303.952 604.471 302.983 605.912C302.851 606.103 302.763 606.368 302.587 606.471C302.308 606.632 301.911 606.838 301.647 606.765C301.383 606.691 301.207 606.294 301.03 606.074L301.016 606.059Z" fill="#212121"/>
<path d="M320.425 606.176C319.999 605.147 319.896 604 320.117 602.897C320.293 602 320.616 601.235 321.13 600.544C321.379 600.206 321.717 599.926 322.069 599.676C322.481 599.382 322.95 599.353 323.332 599.765C323.743 600.206 323.508 600.603 323.215 601C322.877 601.456 322.539 601.912 322.319 602.426C321.952 603.294 321.79 604.206 322.084 605.147C322.128 605.279 322.158 605.412 322.172 605.529C322.319 606.353 322.172 606.824 321.658 606.956C320.998 607.147 320.645 606.676 320.44 606.191L320.425 606.176Z" fill="#212121"/>
<path d="M327.487 605.368C327.531 603.824 328.016 602.5 328.985 601.382C329.323 601 329.793 600.721 330.248 600.471C330.644 600.25 331.041 600.412 331.305 600.765C331.599 601.147 331.452 601.515 331.143 601.838C331.011 601.985 330.864 602.118 330.718 602.265C329.881 603.103 329.484 604.132 329.381 605.294C329.367 605.529 329.381 605.765 329.352 605.985C329.293 606.485 329.044 606.868 328.5 606.956C328.06 607.029 327.634 606.588 327.517 606.015C327.473 605.794 327.473 605.559 327.473 605.382L327.487 605.368Z" fill="#212121"/>
<path d="M266.215 480.044C265.422 479.544 263.117 478.338 262.471 479.441C261.957 480.324 262.632 481.515 264.159 482.441C265.687 483.368 267.008 483.397 267.404 482.647C268.109 481.294 266.729 480.368 266.2 480.044H266.215Z" fill="#FFEFD8"/>
</g>
<g clip-path="url(#clip3_580_2653)">
<path d="M27.5502 44.4473C29.5125 49.84 34.0963 53.5223 39.3409 54.5722C43.6054 55.4236 47.6294 57.3056 51.0325 60.0273C55.2116 63.3737 60.9663 64.5264 66.3705 62.5646C74.15 59.7382 78.3601 51.4507 76.2684 43.6081C76.1444 43.1542 76.0149 42.6943 75.8504 42.2449C70.1338 26.5223 52.7583 18.417 37.0357 24.1336C36.5863 24.2981 36.1477 24.486 35.7202 24.6858C28.3651 28.1313 24.718 36.6734 27.5502 44.4473Z" fill="#E9E9E9"/>
<path d="M65.1121 7.27409C62.4618 12.9579 55.6477 16.8015 50.5663 14.4358C45.4792 12.0641 44.0575 4.37559 46.7077 -1.30827C49.358 -6.99214 55.6274 -9.67629 60.7145 -7.30464C65.8016 -4.933 67.7679 1.59617 65.1176 7.28003L65.1121 7.27409Z" fill="#E9E9E9"/>
<path d="M37.3976 5.71492C37.8901 11.9721 33.8576 18.6732 28.2655 19.112C22.6734 19.5508 17.6442 13.5584 17.1513 7.31276C16.6643 1.06154 20.7947 -4.36743 26.3868 -4.8062C31.9789 -5.24498 36.9106 -0.536301 37.3976 5.71492Z" fill="#E9E9E9"/>
<path d="M90.457 30.476C85.3512 34.1145 82.8019 41.5148 86.0539 46.0776C89.3115 50.6463 97.1333 50.6537 102.239 47.0152C107.345 43.3767 108.849 36.7218 105.597 32.159C102.34 27.5903 95.5628 26.8376 90.457 30.476Z" fill="#E9E9E9"/>
<path d="M89.0339 18.4381C86.3837 24.122 79.5696 27.9655 74.4881 25.5998C69.4011 23.2282 67.9793 15.5397 70.6296 9.85579C73.2799 4.17193 79.5493 1.48777 84.6364 3.85942C89.7234 6.23107 91.6898 12.7602 89.0395 18.4441L89.0339 18.4381Z" fill="#E9E9E9"/>
</g>
<g clip-path="url(#clip4_580_2653)">
<path d="M56.9743 145.852C62.2487 150.512 69.3451 151.793 75.6108 149.85C80.7042 148.268 86.1425 147.938 91.4038 148.876C97.8675 150.032 104.743 147.901 109.415 142.62C116.14 135.016 115.819 123.62 108.97 116.397C108.57 115.98 108.161 115.561 107.72 115.173C92.3472 101.584 68.8774 103.035 55.2887 118.408C54.9009 118.848 54.5385 119.308 54.195 119.774C48.2902 127.796 49.367 139.137 56.9743 145.852Z" fill="#E9E9E9"/>
<path d="M75.6566 83.79C76.1324 91.4667 71.0437 99.601 64.1827 100.03C57.3121 100.456 51.2745 93.0063 50.7988 85.3296C50.3231 77.6528 55.5044 71.0868 62.375 70.6606C69.2455 70.2344 75.1904 76.1163 75.6661 83.7931L75.6566 83.79Z" fill="#E9E9E9"/>
<path d="M44.8849 98.3519C49.0826 104.804 48.6653 114.387 42.8978 118.137C37.1302 121.887 28.2001 118.379 24.0088 111.939C19.8206 105.489 21.0889 97.2197 26.8564 93.4697C32.624 89.7197 40.6968 91.9024 44.8849 98.3519Z" fill="#E9E9E9"/>
<path d="M116.56 93.9337C113.192 100.846 114.782 110.313 120.96 113.323C127.147 116.336 135.578 111.76 138.947 104.847C142.315 97.9353 140.036 89.8838 133.858 86.8739C127.671 83.8608 119.929 87.0215 116.56 93.9337Z" fill="#E9E9E9"/>
<path d="M107.973 81.7975C108.449 89.4743 103.36 97.6086 96.4991 98.0379C89.6286 98.464 83.5909 91.0139 83.1152 83.3371C82.6395 75.6604 87.8208 69.0943 94.6914 68.6682C101.562 68.242 107.507 74.1239 107.983 81.8007L107.973 81.7975Z" fill="#E9E9E9"/>
</g>
<g clip-path="url(#clip5_580_2653)">
<path d="M180.352 223.487C186.17 223.384 191.974 223.252 197.792 223.179C198.495 223.179 198.92 222.872 199.199 222.286C199.917 220.779 200.122 219.183 199.917 217.544C199.712 215.831 198.993 214.323 198.143 212.845C195.711 208.571 191.886 206.931 187.137 207.063C184.734 207.122 182.374 207.561 180.103 208.307C176.82 209.376 173.596 210.591 170.313 211.645C168.452 212.245 166.547 212.713 164.627 213.094C163.865 213.24 163.396 213.504 163.176 214.206C162.824 215.275 162.487 216.343 162.179 217.426C161.784 218.832 161.417 220.237 161.08 221.657C160.787 222.857 161.241 223.53 162.414 223.677C162.839 223.735 163.278 223.735 163.703 223.735C169.258 223.662 174.798 223.589 180.352 223.516V223.487Z" fill="#F4D6AE"/>
<path d="M40.76 232.123C42.0203 232.137 42.9729 231.611 43.4272 230.425C43.7203 229.664 43.9695 228.829 43.9548 228.024C43.8815 224.775 42.6798 221.95 40.3643 219.637C39.397 218.671 39.3091 218.012 40.1151 216.885C43.9841 211.469 47.8531 206.053 51.7221 200.637C52.5282 199.51 52.5428 199.232 51.5902 198.236C47.4867 193.889 43.3833 189.556 39.2651 185.224C37.8289 183.701 37.4332 183.76 36.5099 185.648C34.5168 189.732 32.5383 193.816 30.6038 197.929C25.9581 207.81 21.5175 217.778 16.3295 227.395C16.0511 227.907 15.8752 228.493 15.6994 229.064C15.4209 230 15.758 230.937 16.608 231.347C17.0623 231.567 17.6339 231.596 18.1468 231.611C24.39 231.757 39.4703 232.094 40.76 232.108V232.123Z" fill="#FFEFD8"/>
<path d="M33.4481 186.951C36.3352 193.216 39.7645 199.144 44.1904 204.472C49.2758 210.576 55.0353 215.86 62.0259 219.739C67.7562 222.93 73.7062 225.638 79.8907 227.819C84.0089 229.268 88.2003 230.425 92.509 231.083C98.1952 231.947 103.94 232.269 109.685 232.474C114.272 232.635 118.859 232.679 123.432 232.737C129.045 232.811 134.658 232.913 140.285 232.899C145.634 232.899 150.984 232.752 156.333 232.65C160.92 232.562 165.507 232.445 170.08 232.386C172.336 232.357 174.593 232.445 176.85 232.474C184.325 232.562 191.813 232.664 199.288 232.694C201.882 232.694 204.476 232.533 207.055 232.386C208.125 232.328 208.696 231.83 208.945 230.791C209.077 230.249 209.092 229.678 209.048 229.122C209.004 228.536 208.872 227.936 208.726 227.365C207.876 223.808 206.293 220.661 203.245 218.495C199.434 215.787 195.082 214.718 190.465 214.675C187.725 214.645 185.072 215.392 182.434 216.05C178.829 216.958 175.253 217.953 171.662 218.905C171.149 219.037 170.534 219.446 170.138 218.773C169.772 218.158 170.299 217.734 170.666 217.309C172.893 214.806 174.461 211.952 175.282 208.702C176.22 205.028 175.37 201.808 172.703 199.085C171.34 197.695 169.742 196.641 168.013 195.763C166.005 194.738 163.954 193.772 162.019 192.615C160.187 191.532 158.956 189.966 158.751 187.683C158.56 185.545 158.15 183.423 157.857 181.286C157.183 176.338 155.175 172.079 151.438 168.697C148.976 166.458 146.25 164.657 142.909 163.999C141.604 163.75 140.3 163.516 138.966 163.399C134.921 163.003 130.921 163.369 127.022 164.438C124.179 165.214 121.439 166.326 118.61 167.146C113.129 168.741 107.575 169.854 101.815 169.093C99.6754 168.8 97.5944 168.331 95.6745 167.278C93.2417 165.96 91.2046 164.189 89.3727 162.154C87.702 160.31 86.1632 158.349 84.4485 156.533C80.5356 152.376 77.1942 147.795 73.9847 143.111C71.6398 139.685 69.0605 136.436 66.232 133.377C61.2785 127.975 55.6216 123.555 48.8948 120.554C42.6369 117.758 36.1153 116.572 29.2713 117.436C26.1351 117.831 23.0574 118.505 20.0238 119.397C18.2945 119.91 16.6531 119.837 14.9824 119.178C12.4617 118.197 10.0875 116.938 7.84521 115.445C3.58052 112.591 0.195158 108.858 -2.7359 104.73C-6.83939 98.9632 -10.1808 92.8007 -12.3645 86.0381C-12.467 85.7014 -12.7748 85.3208 -13.0826 85.1891C-13.5515 84.9988 -14.0058 85.2769 -14.2843 85.6868C-14.5774 86.1259 -14.8412 86.5943 -15.0317 87.092C-15.955 89.3901 -16.4533 91.7907 -16.5852 94.2499C-16.8343 98.6119 -16.4386 102.93 -15.8378 107.248C-14.6214 115.958 -11.4558 123.964 -7.1325 131.561C-6.20921 133.172 -5.06611 134.635 -4.02558 136.187C-3.3954 137.124 -3.14627 138.061 -3.55662 139.246C-6.72217 148.263 -7.23509 157.412 -4.52385 166.633C-3.87902 168.829 -3.04367 170.952 -2.36952 173.133C-2.06176 174.128 -1.69538 175.138 -1.91521 176.236C-2.95574 181.579 -4.02558 186.907 -5.00748 192.264C-6.17991 198.719 -7.27907 205.189 -8.40753 211.659C-9.02305 215.187 -9.60925 218.715 -10.2248 222.242C-10.5765 224.233 -11.0015 226.209 -11.3386 228.2C-11.5438 229.415 -11.0748 230.147 -9.88771 230.542C-9.63857 230.63 -9.38942 230.717 -9.12562 230.747C-7.07388 230.952 -5.03681 231.142 -2.98506 231.318C0.0632406 231.566 3.11155 231.83 6.15986 232.035C7.58143 232.137 9.01764 232.225 10.4392 232.152C11.8901 232.079 12.403 231.566 12.491 230.132C12.5496 229.151 12.491 228.141 12.2711 227.19C11.6703 224.467 9.8237 222.535 7.8892 220.676C7.58144 220.383 7.27366 220.076 6.98055 219.768C6.5702 219.329 6.54089 218.817 6.7021 218.275C6.80469 217.953 6.93658 217.646 7.06848 217.353C8.66591 213.708 10.2194 210.034 11.8901 206.419C13.1798 203.623 14.6306 200.9 16.0082 198.134C16.4772 197.182 17.21 196.538 18.1479 196.011C20.8005 194.504 23.4531 192.967 26.0178 191.313C28.4213 189.776 30.7222 188.078 33.1403 186.394C33.2429 186.599 33.3308 186.775 33.4041 186.951H33.4481Z" fill="#FFEFD8"/>
<path d="M116.941 178.841C116.941 177.773 116.326 177.378 115.285 177.714C115.095 177.773 114.919 177.861 114.743 177.948C112.398 179.134 110.068 180.334 107.738 181.52C107.181 181.798 106.888 182.223 106.873 182.852C106.844 183.672 106.8 184.506 106.697 185.326C106.155 190.273 106.331 195.206 107.078 200.11C107.576 203.418 108.617 206.551 110.141 209.537C110.757 210.722 111.607 211.659 112.794 212.274C115.901 213.869 119.066 215.333 122.481 216.138C123.155 216.299 126.848 217.47 126.54 216.724C126.409 216.387 123.052 213.811 120.253 206.068C117.542 199.363 116.663 192.367 116.736 186.014C116.824 183.072 116.912 180.949 116.927 178.827L116.941 178.841Z" fill="#4FA737"/>
<path d="M119.988 191.196C123.549 188.81 126.451 185.78 128.884 182.296C131.697 178.285 134.203 174.128 135.112 169.181C135.376 167.761 134.98 166.824 133.954 165.96C129.44 162.184 124.326 159.739 118.449 159.007C116.866 158.817 115.401 159.007 114.184 160.149C113.774 160.53 113.276 160.837 112.88 161.232C110.476 163.618 108.058 165.99 105.699 168.405C104.233 169.913 103.061 171.64 102.02 173.469C99.7488 177.466 98.9574 181.696 99.866 186.234C100.511 189.454 102.152 191.928 105.171 193.377C106.681 194.094 108.263 194.533 109.201 194.504C113.671 194.504 116.954 193.23 120.002 191.181L119.988 191.196Z" fill="#212121"/>
<path d="M21.6651 133.64C27.6005 143.872 35.4558 136.158 46.2128 143.565C56.9698 150.971 56.0758 159.812 59.9594 163.896C64.8543 169.02 75.8751 169.927 86.0312 158.232C85.533 157.661 85.02 157.09 84.5071 156.534C80.5941 152.376 77.2527 147.795 74.0432 143.111C71.6984 139.686 69.119 136.436 66.2905 133.377C61.337 127.975 55.6801 123.555 48.9533 120.554C42.6955 117.758 36.1739 116.573 29.3298 117.436C26.1936 117.831 23.116 118.505 20.0823 119.398C20.0384 119.398 19.9797 119.427 19.9358 119.442C19.0271 123.774 18.9539 128.985 21.6651 133.669V133.64Z" fill="#212121"/>
<path d="M85.6946 213.811C77.0187 212.611 72.2997 190.478 59.6668 199.334C53.1305 203.916 52.6762 209.566 54.0538 214.309C56.5305 216.329 59.1831 218.144 62.0409 219.739C67.7712 222.93 73.7212 225.638 79.9058 227.819C84.0239 229.268 88.2153 230.425 92.524 231.084C97.1404 231.786 101.786 232.123 106.432 232.342C107.795 219.022 94.2533 214.997 85.6946 213.811Z" fill="#212121"/>
<path d="M18.3815 184.155C21.0488 172.211 15.5237 170.761 12.7246 166.151C9.91074 161.54 13.8823 150.064 6.59865 146.185C1.46929 143.447 -2.57558 144.692 -5.56526 147.063C-6.69372 153.518 -6.38596 160.047 -4.46612 166.604C-3.82128 168.8 -2.98593 170.923 -2.31178 173.104C-2.00402 174.099 -1.63764 175.109 -1.85747 176.207C-2.898 181.55 -3.96784 186.878 -4.94974 192.235C-5.30147 194.153 -5.63854 196.07 -5.97561 197.988C5.57278 199.964 17.1505 189.703 18.3962 184.155H18.3815Z" fill="#212121"/>
<path d="M158.619 218.349C154.853 217.353 151.775 215.48 149.987 211.879C149.796 211.498 149.606 211.103 149.474 210.693C149.328 210.196 149.342 209.683 149.884 209.405C150.295 209.186 150.72 209.405 151.072 210.02C151.526 210.796 151.922 211.601 152.449 212.333C154.735 215.494 157.93 216.783 161.755 216.695C163.133 216.665 164.393 216.212 165.434 215.333C166.591 214.353 167.691 213.284 168.746 212.186C169.42 211.484 169.229 210.942 168.292 210.576C167.793 210.386 166.635 209.815 166.166 209.566C163.602 208.161 162.737 206.931 162.84 203.887C162.928 201.34 164.686 199.73 166.328 198.968C169.816 197.373 174.227 198.266 176.132 199.071C180.382 200.871 181.13 206.961 177.48 209.405C175.883 210.474 175.238 210.81 172.893 211.059C172.014 211.147 171.428 211.498 170.944 212.216C169.86 213.826 168.526 215.187 167.031 216.431C164.54 218.495 161.697 218.964 158.604 218.349H158.619Z" fill="#212121"/>
<path d="M155.338 223.311C151.923 223.106 148.64 222.989 145.372 222.682C140.419 222.213 135.627 220.954 130.908 219.49C125.705 217.88 120.473 216.329 115.519 214.031C111.138 211.996 106.931 209.683 102.96 206.917C102.476 206.58 102.007 206.185 101.582 205.775C101.245 205.453 101.128 204.999 101.45 204.604C101.743 204.253 102.154 204.267 102.55 204.428C102.725 204.501 102.901 204.604 103.062 204.721C110.126 209.844 117.879 213.533 126.189 216.138C131.069 217.675 135.934 219.256 140.961 220.252C144.039 220.866 147.131 221.159 150.267 221.291C154.517 221.467 158.767 221.525 163.017 221.174C163.648 221.115 164.278 221.057 164.908 221.013C165.142 220.998 165.377 220.984 165.611 220.984C166.066 220.998 166.403 221.232 166.417 221.701C166.432 222.111 166.168 222.389 165.758 222.447C164.776 222.594 163.794 222.799 162.798 222.872C160.277 223.047 157.756 223.179 155.353 223.311H155.338Z" fill="#212121"/>
<path d="M7.24415 201.018C6.65794 201.018 6.23293 200.944 6.15965 200.388C6.08638 199.847 6.49672 199.656 6.93638 199.525C8.56312 199.042 10.2045 198.632 11.7873 198.046C17.2391 196.041 22.2805 193.245 26.9555 189.805C29.5495 187.902 32.0409 185.882 34.3858 183.672C37.6393 180.598 40.0574 176.924 42.2264 173.06C43.0617 171.567 43.7212 169.956 44.454 168.405C44.5712 168.171 44.6152 167.863 44.7911 167.702C45.0109 167.497 45.4066 167.234 45.5971 167.307C45.8609 167.424 46.0954 167.79 46.1687 168.097C46.2419 168.39 46.1247 168.756 46.0075 169.063C45.6997 169.898 45.3919 170.747 44.9816 171.552C42.1531 177.158 38.7238 182.325 33.9168 186.497C27.5857 192.001 20.6977 196.612 12.7545 199.466C11.1425 200.052 9.44244 200.432 7.78639 200.901C7.56656 200.959 7.33208 200.988 7.21484 201.018H7.24415Z" fill="#212121"/>
<path d="M10.7187 228.917C10.792 229.473 10.7773 230.03 10.6894 230.586C10.6601 230.776 10.6308 230.952 10.5721 231.142C10.4549 231.567 10.1471 231.83 9.67817 231.757C9.2092 231.684 9.03334 231.347 9.01869 230.893C9.01869 230.425 9.09198 229.956 8.98939 229.503C8.76956 228.537 8.47645 227.6 8.19799 226.648C8.08075 226.268 7.89022 225.902 7.84626 225.521C7.81695 225.302 7.94885 224.965 8.12471 224.863C8.28592 224.76 8.65232 224.804 8.82818 224.936C9.13595 225.17 9.41439 225.477 9.61956 225.799C10.1911 226.765 10.5575 227.805 10.7041 228.917H10.7187Z" fill="#212121"/>
<path d="M6.51115 228.098C6.64305 228.698 6.62839 229.313 6.48183 229.913C6.3939 230.264 6.30596 230.601 6.17406 230.937C6.02751 231.318 5.67578 231.625 5.23612 231.464C4.78181 231.303 4.78181 230.908 4.86974 230.469C5.11888 229.151 4.84044 227.907 4.19561 226.751C4.00509 226.4 3.75595 226.063 3.66802 225.697C3.6094 225.463 3.69733 225.068 3.85854 224.921C4.03441 224.775 4.43008 224.775 4.66457 224.877C4.94302 225.009 5.19216 225.272 5.39733 225.521C5.93958 226.195 6.32062 227.117 6.5258 228.098H6.51115Z" fill="#212121"/>
<path d="M207.07 228.917C207.144 229.473 207.129 230.03 207.041 230.586C207.012 230.776 206.982 230.952 206.924 231.142C206.806 231.567 206.499 231.83 206.03 231.757C205.561 231.684 205.385 231.347 205.37 230.893C205.37 230.425 205.444 229.956 205.341 229.503C205.121 228.537 204.828 227.6 204.55 226.648C204.447 226.268 204.242 225.902 204.198 225.521C204.169 225.302 204.3 224.965 204.476 224.863C204.637 224.76 205.004 224.804 205.18 224.936C205.487 225.17 205.766 225.477 205.971 225.799C206.543 226.765 206.909 227.805 207.056 228.917H207.07Z" fill="#212121"/>
<path d="M202.863 228.098C202.995 228.698 202.98 229.313 202.833 229.913C202.745 230.264 202.658 230.601 202.526 230.937C202.379 231.318 202.027 231.625 201.588 231.464C201.133 231.303 201.133 230.908 201.221 230.469C201.47 229.151 201.192 227.907 200.547 226.751C200.357 226.4 200.108 226.063 200.02 225.697C199.961 225.463 200.049 225.068 200.21 224.921C200.386 224.775 200.782 224.775 201.016 224.877C201.295 225.009 201.544 225.272 201.749 225.521C202.291 226.195 202.672 227.117 202.877 228.098H202.863Z" fill="#212121"/>
<path d="M41.3762 227.424C41.4788 227.995 41.4788 228.566 41.3762 229.137C41.3322 229.429 41.2736 229.708 41.1857 229.986C41.0977 230.249 40.8779 230.542 40.6434 230.659C40.3796 230.776 39.9693 230.805 39.7348 230.674C39.5589 230.586 39.4417 230.117 39.515 229.898C40.0426 228.185 39.6322 226.707 38.577 225.316C38.3425 225.009 38.1081 224.614 38.4744 224.233C38.8555 223.838 39.3098 224.013 39.6615 224.262C39.9986 224.511 40.3064 224.848 40.5262 225.199C40.9658 225.887 41.2296 226.619 41.3762 227.409V227.424Z" fill="#212121"/>
<path d="M36.8491 229.151C36.9077 229.605 36.8491 230.073 36.6732 230.498C36.6293 230.6 36.5707 230.703 36.4974 230.791C36.3362 230.981 35.9551 231.171 35.7646 231.113C35.5155 231.025 35.1931 230.659 35.2077 230.425C35.325 228.932 34.7387 227.731 33.7861 226.648C33.4637 226.282 33.2586 225.843 33.6982 225.419C34.1232 225.009 34.5922 225.17 34.9439 225.506C35.9991 226.516 36.6733 227.702 36.8638 229.151H36.8491Z" fill="#212121"/>
<path d="M153 193C153 194.108 152.324 195 151.5 195C150.676 195 150 194.1 150 193C150 191.9 150.676 191 151.5 191C152.324 191 153 191.9 153 193Z" fill="#212121"/>
<path d="M176.809 202.013C176.809 203.096 174.947 203.96 172.661 203.945C170.375 203.93 168.528 203.052 168.528 201.969C168.528 200.886 170.39 200.022 172.676 200.037C174.962 200.037 176.809 200.93 176.809 202.013Z" fill="#FFEFD8"/>
</g>
</g>
<defs>
<clipPath id="clip0_580_2653">
<rect width="390" height="844" fill="white"/>
</clipPath>
<clipPath id="clip1_580_2653">
<rect width="140.358" height="124.211" fill="white" transform="translate(290.145 511) rotate(56.14)"/>
</clipPath>
<clipPath id="clip2_580_2653">
<rect width="162" height="170" fill="white" transform="translate(252 438)"/>
</clipPath>
<clipPath id="clip3_580_2653">
<rect width="91.8427" height="71.3445" fill="white" transform="translate(52.1328 -31.7539) rotate(46.8278)"/>
</clipPath>
<clipPath id="clip4_580_2653">
<rect width="112.64" height="87.5" fill="white" transform="translate(38.8008 49.3494) rotate(18.2829)"/>
</clipPath>
<clipPath id="clip5_580_2653">
<rect width="225.692" height="147.797" fill="white" transform="matrix(-1 0 0 1 209.094 85.1013)"/>
</clipPath>
</defs>
</svg>
