<svg width="50" height="41" viewBox="0 0 50 41" fill="none" xmlns="http://www.w3.org/2000/svg">
<g clip-path="url(#clip0_1263_3496)">
<path d="M49.9997 12.368C49.8285 12.9835 49.7049 13.6171 49.4786 14.2119C48.8695 15.8136 47.7808 17.059 46.3863 18.0415C46.0743 18.2608 46.0156 18.4801 46.0254 18.8387C46.0707 20.3689 46.0964 21.9002 46.0792 23.4303C46.0658 24.6903 46.4217 25.8037 47.1851 26.8068C47.7832 27.5907 48.3765 28.3806 48.9257 29.1984C49.0909 29.4431 49.2095 29.8029 49.1692 30.0852C48.7545 33.0195 48.3043 35.9477 47.8591 38.8783C47.6548 40.2255 46.7667 40.99 45.3918 40.9973C43.8945 41.0045 42.3973 41.0021 40.9 40.9973C40.1783 40.9949 39.9349 40.7489 39.9263 40.039C39.897 37.7177 40.1245 37.3773 42.2884 36.5171C42.7104 36.3487 43.1398 36.196 43.5484 35.9998C43.6756 35.9392 43.8248 35.7611 43.826 35.6351C43.8468 34.3146 43.8383 32.994 43.8383 31.7789C42.6566 31.1925 41.5104 30.6921 40.4352 30.0731C38.9318 29.2068 37.6658 28.0438 36.582 26.6966C36.3765 26.441 36.2003 26.4034 35.8872 26.504C31.7343 27.833 27.5068 28.2655 23.1863 27.4804C23.1092 27.4659 23.0285 27.4683 22.8903 27.4598C22.8095 28.4024 22.7276 29.3256 22.6505 30.2487C22.4144 33.0909 22.1942 35.9344 21.9373 38.7754C21.8114 40.171 20.8756 40.9888 19.4688 40.9973C18.0046 41.0058 16.5392 41.0021 15.075 40.9973C14.3349 40.9949 14.0792 40.7429 14.0756 40.005C14.0731 39.5871 14.078 39.1667 14.1074 38.7499C14.1722 37.8267 14.686 37.2052 15.4933 36.7945C15.9557 36.5595 16.434 36.3511 16.8805 36.0894C17.0187 36.0083 17.1667 35.7781 17.1545 35.6303C16.8768 32.4173 15.9863 29.368 14.5318 26.4894C13.5655 24.5752 12.5184 22.7022 11.5055 20.8111C11.4762 20.7565 11.4334 20.7093 11.4395 20.719C10.9698 20.7444 10.5428 20.8353 10.1441 20.7674C9.81257 20.7105 9.46273 20.5239 9.21074 20.2962C8.15753 19.3451 8.41319 17.2395 9.64254 16.5138C9.69759 16.4811 9.74897 16.4423 9.8089 16.4036C9.65233 15.5822 9.48964 14.7656 9.34163 13.9466C9.2927 13.6777 9.24377 13.4002 9.26212 13.1301C9.29514 12.6382 9.11533 12.4662 8.60401 12.4674C6.95019 12.471 5.34285 12.1524 3.75264 11.7162C2.73735 11.4376 2.06946 10.8621 1.82236 9.82385C1.78444 9.66393 1.6352 9.48705 1.48719 9.40225C0.951412 9.09694 0.566091 8.66928 0.414409 8.08533C0.244379 7.41537 0.098813 6.7345 0.0119629 6.04999C-0.0846732 5.28432 0.41074 4.68219 1.25967 4.44231C2.6505 4.051 4.04621 3.67664 5.43337 3.27321C5.68536 3.1993 5.93612 3.05271 6.13551 2.88068C6.7349 2.36094 7.29147 1.79153 7.89698 1.27906C8.856 0.466131 9.98872 0.0227178 11.245 0.00939116C12.3618 -0.00272396 13.5092 -0.0402809 14.5918 0.181426C16.2419 0.518226 17.4737 1.62434 18.5747 2.83464C19.5496 3.90683 20.412 5.06019 20.6444 6.54308C20.7043 6.92349 20.7875 7.32814 20.7166 7.6928C20.5869 8.35429 20.834 8.83526 21.2425 9.30896C21.6854 9.82143 22.2126 10.1582 22.8939 10.243C23.1202 10.2709 23.3453 10.3012 23.5728 10.323C28.7704 10.8124 33.9692 11.2898 39.1667 11.7938C40.9062 11.9622 42.4083 12.6903 43.7098 13.8885C45.2242 12.8454 45.8945 11.4206 45.7367 9.61911C45.5814 7.84182 44.8169 6.28018 43.9337 4.76579C43.7551 4.45928 43.5484 4.1673 43.3844 3.85352C43.1288 3.36891 43.2266 2.85766 43.6083 2.53539C43.9851 2.21677 44.5172 2.19738 44.96 2.51843C46.5477 3.673 47.7734 5.13651 48.7019 6.8508C49.393 8.12652 49.7918 9.49311 50.0034 10.9178V12.3692L49.9997 12.368ZM1.45172 5.89613C1.56548 6.48977 1.65111 7.02889 1.77465 7.56075C1.87251 7.98478 2.15875 8.23556 2.61135 8.2295C4.15631 8.21133 5.70248 8.20406 7.24621 8.14591C7.99117 8.11804 8.73123 7.97751 9.47496 7.90724C9.89698 7.86726 10.1698 8.09139 10.237 8.49361C10.3043 8.89947 10.0964 9.17448 9.69881 9.29442C9.57527 9.33198 9.4456 9.35984 9.31716 9.36832C7.53368 9.48221 5.75019 9.59367 3.9667 9.70149C3.78077 9.71239 3.59361 9.7027 3.40646 9.7027L3.34897 9.87837C3.56915 10.0092 3.77465 10.1934 4.01319 10.2588C4.76426 10.4647 5.519 10.6792 6.28719 10.7955C8.1404 11.0766 9.99851 11.2971 11.8211 10.5847C12.215 10.4308 12.5282 10.6053 12.6994 10.976C12.878 11.3637 12.741 11.7041 12.3777 11.8725C11.941 12.0761 11.4591 12.1851 11.0077 12.3595C10.8878 12.4056 10.7092 12.5534 10.719 12.6358C10.8401 13.6983 10.9906 14.7571 11.1545 15.965C12.6126 15.4537 13.9373 15.0649 15.1961 14.5245C16.1734 14.1053 17.0688 13.4996 18.0022 12.9774C18.434 12.7351 18.8536 12.8078 19.0762 13.1591C19.2915 13.4996 19.1961 13.8836 18.823 14.1732C18.7851 14.2035 18.7422 14.2277 18.7019 14.2556C17.4114 15.1388 16.0364 15.862 14.5514 16.3672C13.7539 16.6386 12.9502 16.893 12.2456 17.1244C12.3031 17.6672 12.3447 18.1893 12.4181 18.7079C12.467 19.0495 12.4939 19.4202 12.648 19.7183C13.7465 21.8542 14.9257 23.9513 15.9838 26.1066C17.541 29.2783 18.4903 32.6257 18.6701 36.1682C18.6933 36.6334 18.5245 36.9302 18.1025 37.1277C17.4713 37.4233 16.8487 37.7395 16.226 38.0533C15.5777 38.3792 15.4114 38.7947 15.634 39.5398C16.9441 39.5398 18.2615 39.5519 19.5789 39.5338C20.1477 39.5265 20.4401 39.2127 20.4903 38.6045C20.7618 35.3771 21.0248 32.1496 21.2915 28.9209C21.393 27.684 21.4909 26.447 21.5997 25.2113C21.6536 24.5958 21.941 24.3051 22.4218 24.3438C22.878 24.3802 23.0835 24.6927 23.0603 25.3021C23.0517 25.5202 23.0591 25.7395 23.0591 25.9442C27.0713 27.0188 33.6401 25.9818 35.3869 25.0683C35.2731 24.8733 35.1618 24.6782 35.0468 24.4844C34.6688 23.841 34.697 23.4352 35.1373 23.1844C35.5728 22.9373 35.9361 23.1117 36.3227 23.7696C38.2273 27.0164 40.9539 29.2517 44.5991 30.342C45.0982 30.491 45.3123 30.783 45.3086 31.2919C45.2988 32.9201 45.2976 34.5484 45.3086 36.1767C45.3123 36.6601 45.119 36.9617 44.6603 37.135C43.8407 37.4439 43.0297 37.7771 42.2162 38.1018C41.4346 38.4131 41.289 38.6833 41.4578 39.5362C42.8315 39.5362 44.2126 39.5544 45.5924 39.5265C46.0768 39.5168 46.3312 39.1849 46.4022 38.7075C46.8181 35.9041 47.2462 33.1018 47.6499 30.296C47.678 30.1021 47.5961 29.8526 47.4811 29.6866C47.0138 29.0081 46.5233 28.3442 46.023 27.6888C45.0554 26.4216 44.5857 25.0065 44.6138 23.4122C44.6383 22.0105 44.6456 20.6063 44.6052 19.2058C44.5306 16.6083 42.8303 14.3234 40.33 13.5456C39.4725 13.2791 38.5477 13.2003 37.645 13.1095C34.3594 12.7799 31.0713 12.4831 27.7844 12.1718C26.0841 12.0106 24.3789 11.8883 22.6872 11.6629C22.0609 11.5793 21.5447 11.4194 21.1055 12.0639C20.9147 12.345 20.511 12.2929 20.2285 12.0518C19.9459 11.8107 19.9043 11.4994 20.0695 11.1771C20.1698 10.9821 20.3104 10.8064 20.4425 10.6089C20.2823 10.4284 20.1404 10.2673 19.9899 10.0989C18.5673 11.9355 15.064 11.8531 13.8933 9.74268C13.5532 9.12965 13.3184 8.45121 13.0958 7.78245C12.6774 6.52612 12.6456 5.14257 11.7747 4.02798C11.656 3.87654 11.7747 3.42707 11.9251 3.21626C12.1306 2.92914 12.5172 2.90612 12.7936 3.15205C13.0542 3.38345 13.3184 3.65968 13.4529 3.97104C13.7318 4.61798 13.9349 5.29885 14.149 5.97124C14.4462 6.90532 14.6517 7.87453 15.0297 8.77347C15.415 9.68937 16.3557 10.0746 17.4346 9.93895C18.3777 9.82022 18.9979 9.27383 19.1875 8.31794C19.371 7.39235 19.3037 6.46917 18.8083 5.64777C18.4181 5.00082 17.9802 4.37084 17.4811 3.80385C16.1086 2.24342 14.4866 1.17729 12.2591 1.44019C12.0499 1.46442 11.8358 1.44503 11.6242 1.44261C10.4474 1.4305 9.42481 1.80728 8.56732 2.61293C8.04744 3.10117 7.54468 3.60879 6.99545 4.06311C6.70676 4.30299 6.35569 4.51258 5.99851 4.6192C4.50615 5.06382 3.00157 5.46362 1.44683 5.89613H1.45172ZM45.6511 16.7913C46.7153 15.9977 47.5569 15.06 48.0597 13.8497C48.8633 11.9137 48.5526 10.0359 47.7441 8.18952C47.6083 7.88059 47.4481 7.58134 47.2817 7.28695C47.1153 6.99255 46.9367 6.70421 46.7471 6.42435C46.5673 6.16024 46.3667 5.91067 46.1759 5.65383C47.6071 9.09694 48.0511 12.3462 44.7166 15.0079C45.0309 15.6088 45.3294 16.177 45.6511 16.7913ZM10.9343 18.5649H10.9429C10.9429 18.4535 10.9857 18.3153 10.9343 18.2354C10.8217 18.0573 10.6615 17.9095 10.5208 17.7496C10.3704 17.9034 10.1392 18.0343 10.0866 18.2148C10.0156 18.4644 10.0266 18.7672 10.1049 19.0156C10.1502 19.161 10.3887 19.3233 10.549 19.333C10.6701 19.3403 10.8413 19.1367 10.9221 18.9902C10.9832 18.8787 10.9343 18.7091 10.9343 18.5661V18.5649Z" fill="#A7A7A7"/>
<path d="M10.0619 4.61227C10.0545 5.00238 9.73406 5.31253 9.34262 5.30889C8.9524 5.30526 8.62213 4.98421 8.61724 4.605C8.61234 4.21611 8.98298 3.85871 9.3732 3.87689C9.76341 3.89506 10.0692 4.22217 10.0619 4.61227Z" fill="#A7A7A7"/>
</g>
<defs>
<clipPath id="clip0_1263_3496">
<rect width="50" height="41" fill="white"/>
</clipPath>
</defs>
</svg>
