<svg width="15" height="14" viewBox="0 0 15 14" fill="none" xmlns="http://www.w3.org/2000/svg">
<g clip-path="url(#clip0_209_1483)">
<path d="M12.5833 4.36554C12.5833 3.72532 12.5833 3.40521 12.4223 3.13506C12.2612 2.86492 11.9645 2.68735 11.3711 2.33222L10.6161 1.88037C9.68461 1.32289 9.21886 1.04415 8.85943 1.21684C8.5 1.38952 8.5 1.89202 8.5 2.89703V12.8327H12.5833V4.36554Z" stroke="#7C7C7C" stroke-width="1.5" stroke-linejoin="round"/>
<path d="M13.1667 12.833L1.5 12.833" stroke="#7C7C7C" stroke-width="1.5" stroke-linecap="round" stroke-linejoin="round"/>
<path d="M8.49935 5.25H6.16602" stroke="#7C7C7C" stroke-width="1.5" stroke-linecap="round" stroke-linejoin="round"/>
<path d="M8.49935 8.75H6.16602" stroke="#7C7C7C" stroke-width="1.5" stroke-linecap="round" stroke-linejoin="round"/>
<path d="M2.08268 4.36554C2.08268 3.72532 2.08268 3.40521 2.24374 3.13506C2.40479 2.86492 2.70149 2.68735 3.29489 2.33222L4.0499 1.88037C4.9814 1.32289 5.44716 1.04415 5.80659 1.21684C6.16602 1.38952 6.16602 1.89203 6.16602 2.89703V12.8327H2.08268V4.36554Z" stroke="#7C7C7C" stroke-width="1.5" stroke-linejoin="round"/>
<path d="M4.12633 4.66602L4.12109 4.66602M4.12633 6.99935H4.12109M4.12633 9.33268H4.12109" stroke="#7C7C7C" stroke-width="2" stroke-linecap="round" stroke-linejoin="round"/>
<path d="M10.5423 4.66602L10.5371 4.66602M10.5423 6.99935H10.5371M10.5423 9.33268H10.5371" stroke="#7C7C7C" stroke-width="2" stroke-linecap="round" stroke-linejoin="round"/>
</g>
<defs>
<clipPath id="clip0_209_1483">
<rect width="14" height="14" fill="white" transform="translate(0.333984)"/>
</clipPath>
</defs>
</svg>
