<svg width="24" height="24" viewBox="0 0 24 24" fill="none" xmlns="http://www.w3.org/2000/svg">
<rect width="24" height="24" rx="12" fill="#5E5E5E"/>
<g clip-path="url(#clip0_578_2749)">
<path d="M17.2513 9.36615C17.2513 8.72593 17.2513 8.40582 17.0902 8.13567C16.9292 7.86553 16.6325 7.68796 16.0391 7.33283L15.2841 6.88098C14.3526 6.3235 13.8868 6.04477 13.5274 6.21745C13.168 6.39013 13.168 6.89264 13.168 7.89764V17.8333H17.2513V9.36615Z" fill="white" stroke="white" stroke-width="1.5" stroke-linejoin="round"/>
<path d="M17.8346 17.8333L6.16797 17.8333" stroke="white" stroke-width="1.5" stroke-linecap="round" stroke-linejoin="round"/>
<path d="M13.1693 10.25H10.8359" stroke="white" stroke-width="1.5" stroke-linecap="round" stroke-linejoin="round"/>
<path d="M13.1693 13.75H10.8359" stroke="white" stroke-width="1.5" stroke-linecap="round" stroke-linejoin="round"/>
<path d="M6.7526 9.36615C6.7526 8.72593 6.7526 8.40582 6.91366 8.13567C7.07471 7.86553 7.37141 7.68796 7.96481 7.33283L8.71982 6.88098C9.65132 6.3235 10.1171 6.04477 10.4765 6.21745C10.8359 6.39013 10.8359 6.89264 10.8359 7.89764V17.8333H6.7526V9.36615Z" fill="white" stroke="white" stroke-width="1.5" stroke-linejoin="round"/>
<path d="M8.7943 9.66663L8.78906 9.66663M8.7943 12H8.78906M8.7943 14.3333H8.78906" stroke="#5E5E5E" stroke-width="2" stroke-linecap="round" stroke-linejoin="round"/>
<path d="M15.2084 9.66663L15.2031 9.66663M15.2084 12H15.2031M15.2084 14.3333H15.2031" stroke="#5E5E5E" stroke-width="2" stroke-linecap="round" stroke-linejoin="round"/>
</g>
<defs>
<clipPath id="clip0_578_2749">
<rect width="14" height="14" fill="white" transform="translate(5 5)"/>
</clipPath>
</defs>
</svg>
