<svg width="70" height="70" viewBox="0 0 70 70" fill="none" xmlns="http://www.w3.org/2000/svg">
<rect width="70" height="70" rx="10" fill="#D9D9D9"/>
<g clip-path="url(#clip0_1344_3559)">
<path d="M49.9752 41.255C49.9752 41.255 35.3323 53.6189 19.5352 41.4395Z" fill="#ADADAD"/>
<path d="M49.9754 41.2561C50.1175 40.9981 50.3315 40.7529 50.5523 40.5604C51.8905 39.4052 52.9792 38.0537 53.6025 36.3886C54.6306 33.6334 54.451 30.9315 52.9403 28.3894C52.4785 27.6143 52.3241 26.9099 52.4556 25.9927C52.794 23.6372 52.4212 21.3914 51.0899 19.3624C50.8988 19.0669 50.8514 18.7903 50.9602 18.4336C52.08 14.656 51.4903 11.0733 49.7194 7.62954C49.5345 7.27467 49.2843 6.93997 49.0278 6.63168C48.5017 6.01518 47.8348 5.87419 47.0988 6.1819C46.6625 6.36913 46.2132 6.58281 45.8428 6.87512C44.3287 8.08412 42.9395 9.41762 41.8129 11.0066C41.5216 11.4171 41.2892 11.8602 41.0372 12.2969C40.7399 12.8129 40.4079 12.9797 39.8389 12.8117C38.1054 12.308 36.3416 12.1671 34.5722 12.1976C32.8027 12.1885 31.0472 12.3508 29.3135 12.8755C28.7464 13.0504 28.4124 12.881 28.109 12.3752C27.8517 11.9417 27.6139 11.4948 27.3177 11.0945C26.172 9.51922 24.7666 8.19606 23.238 7.01209C22.8641 6.72429 22.4123 6.51607 21.9737 6.33413C21.2406 6.03532 20.5689 6.18443 20.0503 6.80726C19.791 7.11868 19.5449 7.44979 19.3708 7.81343C17.6418 11.2718 17.0955 14.8679 18.261 18.6318C18.3676 18.9871 18.3301 19.2642 18.1426 19.562C16.8425 21.6004 16.4905 23.8571 16.8573 26.2084C17 27.1173 16.8541 27.8302 16.4018 28.6108C14.922 31.1711 14.7751 33.8748 15.8365 36.6175C16.4799 38.2749 17.585 39.613 18.937 40.7519C19.1667 40.9417 19.3771 41.1778 19.5223 41.4406" fill="#ADADAD"/>
<path d="M34.6062 15.4927C36.6079 19.324 40.7272 17.0246 43.6955 19.8018C46.2435 22.1926 46.93 26.6581 52.6636 27.8298C52.4316 27.2577 52.3693 26.6845 52.4631 25.9983C52.8015 23.6428 52.4287 21.397 51.0974 19.368C50.9063 19.0725 50.8589 18.7959 50.9678 18.4393C52.0876 14.6616 51.4978 11.0789 49.727 7.63517C49.542 7.2803 49.2918 6.9456 49.0353 6.63731C48.5092 6.02081 47.8423 5.87982 47.1063 6.18753C46.67 6.37476 46.2207 6.58844 45.8503 6.88076C44.3362 8.08975 42.947 9.42325 41.8204 11.0123C41.5291 11.4228 41.2967 11.8659 41.0447 12.3025C40.7475 12.8185 40.4155 12.9853 39.8464 12.8174C38.113 12.3137 36.3491 12.1727 34.5798 12.2032C34.4035 12.2043 34.2206 12.2054 34.0444 12.2065C33.9467 13.3278 34.0711 14.4609 34.5996 15.4795L34.6062 15.4927Z" fill="#898989"/>
<path d="M47.1974 14.8896C47.3928 14.8027 47.4108 14.5323 47.2403 14.4147C47.0239 14.271 46.8534 14.1467 46.6894 14.0159C46.0463 13.499 46.0957 13.024 46.8247 12.6504C47.007 12.557 47.1892 12.457 47.391 12.3437C47.5211 12.2704 47.5265 12.0792 47.4019 12.0009C47.2708 11.916 47.1529 11.8442 47.0414 11.7657C46.9168 11.6808 46.7922 11.5826 46.6935 11.4712C46.5291 11.281 46.482 11.0439 46.644 10.832C46.7994 10.6201 47.0406 10.5593 47.2633 10.6766C47.807 10.9568 48.3507 11.2502 48.8685 11.5767C49.2487 11.8183 49.2577 12.2204 48.9072 12.5653C48.68 12.7842 48.4331 12.9835 48.1731 13.1894C47.9911 13.329 48.0059 13.6124 48.196 13.7365C48.2944 13.8018 48.3862 13.8672 48.478 13.9325C48.9699 14.2987 49.0181 14.7006 48.6095 15.1579C48.0387 15.7877 47.3294 16.2007 46.488 16.3508C46.2858 16.385 46.0638 16.3864 45.8612 16.3546C45.6194 16.3231 45.4098 16.2057 45.3755 15.9356C45.3411 15.6524 45.5427 15.5193 45.7642 15.4323C45.9401 15.3653 46.1424 15.3443 46.3183 15.2773C46.6049 15.1569 46.8914 15.0299 47.2105 14.8895L47.1974 14.8896Z" fill="#080808"/>
<path d="M21.7403 12.6632C21.9772 12.965 22.2011 13.2801 22.464 13.5553C23.0489 14.1715 23.0511 14.5341 22.4146 15.1049C22.2717 15.231 22.096 15.3309 21.9728 15.4767C21.921 15.5364 21.8822 15.6025 21.8435 15.6753C21.766 15.8208 21.8454 15.9983 22.0024 16.0369C22.1462 16.069 22.2705 16.1012 22.3883 16.1532C22.6894 16.2767 22.9905 16.4001 23.2594 16.5831C23.3708 16.6615 23.4767 16.8916 23.4448 17.017C23.4129 17.1425 23.1985 17.3152 23.0744 17.3093C22.3103 17.281 21.5265 17.2396 20.8901 16.749C20.4243 16.3893 20.3809 15.6907 20.7631 15.1808C20.938 14.949 21.1391 14.7368 21.3467 14.518C21.483 14.3722 21.4882 14.1546 21.3697 13.9971C21.2314 13.8133 21.0801 13.6231 20.9548 13.4195C20.6648 12.9663 20.5247 12.4727 20.6193 11.925C20.7201 11.3245 21.1298 11.0517 21.6924 11.2263C21.9803 11.3168 22.2813 11.4271 22.5304 11.5904C22.655 11.6753 22.7676 11.9318 22.7292 12.0704C22.6974 12.2025 22.4761 12.3225 22.3198 12.3828C22.1764 12.4364 22.0132 12.4374 21.85 12.4449C21.739 12.4522 21.6811 12.5844 21.7469 12.6763L21.7403 12.6632Z" fill="#080808"/>
<path d="M42.0348 24.0704C42.0395 24.8415 41.5863 25.4704 41.0184 25.4738C40.4505 25.4773 39.9897 24.8539 39.985 24.0828C39.9804 23.3117 40.4335 22.6828 41.0015 22.6793C41.5694 22.6759 42.0302 23.2993 42.0348 24.0704Z" fill="#080808"/>
<path d="M29.3161 24.1475C29.3207 24.9186 28.8676 25.5475 28.2996 25.551C27.7317 25.5544 27.271 24.9311 27.2663 24.1599C27.2616 23.3888 27.7148 22.7599 28.2827 22.7565C28.8506 22.753 29.3114 23.3764 29.3161 24.1475Z" fill="#080808"/>
<path d="M38.3539 37.8252C38.3595 38.7547 38.1493 39.6262 37.6579 40.4269C37.1342 41.2871 36.3668 41.7927 35.4149 42.0292C34.789 42.1847 34.181 42.0631 33.6371 41.7434C32.3724 41.0061 31.5367 39.9366 31.3644 38.4411C31.3229 38.0656 31.3596 37.6633 31.4096 37.2872C31.4723 36.8649 31.7583 36.639 32.2151 36.5901C32.5021 36.5554 32.796 36.5536 33.0698 36.486C33.6109 36.3509 34.04 36.0385 34.3505 35.5619C34.7386 34.9531 35.0387 34.9051 35.525 35.4164C36.0113 35.9276 36.6007 36.2075 37.2805 36.3287C38.1433 36.4817 38.3077 36.6784 38.3522 37.5484C38.3528 37.6472 38.3534 37.7395 38.3539 37.8384L38.3539 37.8252Z" fill="#D9D9D9"/>
<path d="M34.2934 26.6561C35.632 26.6611 36.7961 26.9573 37.8963 27.4847C39.4352 28.2203 39.6978 30.6052 38.3923 31.7536C37.8013 32.278 37.1045 32.5854 36.3416 32.7615C35.5265 32.9444 35.4812 33.0106 35.4339 33.8415C35.3393 35.4572 36.6976 36.5631 38.2491 36.145C38.7185 36.0169 39.0562 35.7182 39.2952 35.2948C39.3404 35.2089 39.3725 35.1164 39.4177 35.0304C39.605 34.693 39.8458 34.5663 40.1076 34.6636C40.3629 34.761 40.4755 35.0372 40.4124 35.3935C40.2481 36.2911 39.3 37.1605 38.3018 37.2918C37.2513 37.43 36.2773 37.2513 35.4308 36.551C34.8862 36.1126 34.5533 36.1344 34.0928 36.6448C32.4064 38.5141 29.5843 37.2259 29.0638 35.3832C29.0305 35.2713 28.9775 35.1464 29.003 35.0473C29.0541 34.8559 29.1114 34.6182 29.2545 34.5184C29.469 34.3589 29.6985 34.5157 29.8498 34.706C29.9683 34.8569 30.0608 35.0343 30.1401 35.2053C30.5105 35.9875 31.1852 36.3262 31.9759 36.4401C32.5053 36.516 32.9673 36.2495 33.2913 35.8454C33.8357 35.1631 34.0723 34.3376 34.1912 33.4865C34.2539 33.0576 34.0965 32.9465 33.5993 32.7913C32.9451 32.5843 32.2778 32.3839 31.6622 32.0844C30.9092 31.7264 30.4612 31.0699 30.3255 30.24C30.1495 29.1995 30.7227 27.8973 31.588 27.3844C32.4599 26.8715 33.4056 26.6812 34.287 26.6693L34.2934 26.6561Z" fill="#080808"/>
<path d="M34.1051 27.5736C33.7068 27.5761 32.6824 27.7405 32.7122 28.3602C32.75 29.2106 33.9662 29.4406 34.6909 29.3966C35.4091 29.3527 36.256 29.0047 36.2529 28.4772C36.2497 27.9497 35.7117 27.5573 34.1051 27.5736Z" fill="#ADADAD"/>
</g>
<path d="M19.964 52.7273V60H18.9554L15.2587 54.6662H15.1912V60H14.0939V52.7273H15.1096L18.8098 58.0682H18.8773V52.7273H19.964ZM23.777 60.1101C23.2656 60.1101 22.8194 59.9929 22.4382 59.7585C22.0571 59.5241 21.7611 59.1963 21.5504 58.7749C21.3397 58.3535 21.2344 57.861 21.2344 57.2976C21.2344 56.7318 21.3397 56.237 21.5504 55.8132C21.7611 55.3894 22.0571 55.0604 22.4382 54.826C22.8194 54.5916 23.2656 54.4744 23.777 54.4744C24.2884 54.4744 24.7346 54.5916 25.1158 54.826C25.4969 55.0604 25.7929 55.3894 26.0036 55.8132C26.2143 56.237 26.3196 56.7318 26.3196 57.2976C26.3196 57.861 26.2143 58.3535 26.0036 58.7749C25.7929 59.1963 25.4969 59.5241 25.1158 59.7585C24.7346 59.9929 24.2884 60.1101 23.777 60.1101ZM23.7805 59.2188C24.112 59.2188 24.3866 59.1312 24.6044 58.956C24.8222 58.7808 24.9832 58.5476 25.0874 58.2564C25.1939 57.9652 25.2472 57.6444 25.2472 57.294C25.2472 56.946 25.1939 56.6264 25.0874 56.3352C24.9832 56.0417 24.8222 55.8061 24.6044 55.6286C24.3866 55.451 24.112 55.3622 23.7805 55.3622C23.4467 55.3622 23.1697 55.451 22.9496 55.6286C22.7318 55.8061 22.5696 56.0417 22.4631 56.3352C22.3589 56.6264 22.3068 56.946 22.3068 57.294C22.3068 57.6444 22.3589 57.9652 22.4631 58.2564C22.5696 58.5476 22.7318 58.7808 22.9496 58.956C23.1697 59.1312 23.4467 59.2188 23.7805 59.2188ZM31.3338 52.7273V60H30.2365V52.7273H31.3338ZM32.8466 60V54.5455H33.8658V55.4332H33.9332C34.0469 55.1326 34.2327 54.8982 34.4908 54.7301C34.7488 54.5597 35.0578 54.4744 35.4176 54.4744C35.7822 54.4744 36.0876 54.5597 36.3338 54.7301C36.5824 54.9006 36.7659 55.1349 36.8842 55.4332H36.9411C37.0713 55.142 37.2784 54.91 37.5625 54.7372C37.8466 54.562 38.1851 54.4744 38.5781 54.4744C39.0729 54.4744 39.4766 54.6295 39.7891 54.9396C40.1039 55.2498 40.2614 55.7173 40.2614 56.3423V60H39.1996V56.4418C39.1996 56.0724 39.099 55.8049 38.8977 55.6392C38.6965 55.4735 38.4562 55.3906 38.1768 55.3906C37.8312 55.3906 37.5625 55.4972 37.3707 55.7102C37.179 55.9209 37.0831 56.192 37.0831 56.5234V60H36.0249V56.3743C36.0249 56.0784 35.9325 55.8404 35.7479 55.6605C35.5632 55.4806 35.3229 55.3906 35.027 55.3906C34.8258 55.3906 34.6399 55.4439 34.4695 55.5504C34.3014 55.6546 34.1652 55.8002 34.0611 55.9872C33.9593 56.1742 33.9084 56.3909 33.9084 56.6371V60H32.8466ZM43.2718 60.1207C42.9262 60.1207 42.6137 60.0568 42.3343 59.929C42.055 59.7988 41.8336 59.6106 41.6703 59.3643C41.5093 59.1181 41.4288 58.8163 41.4288 58.4588C41.4288 58.151 41.488 57.8977 41.6064 57.6989C41.7247 57.5 41.8845 57.3426 42.0858 57.2266C42.287 57.1106 42.5119 57.023 42.7605 56.9638C43.0091 56.9046 43.2624 56.8596 43.5204 56.8288C43.8471 56.791 44.1123 56.7602 44.3159 56.7365C44.5195 56.7105 44.6674 56.669 44.7598 56.6122C44.8521 56.5554 44.8983 56.4631 44.8983 56.3352V56.3104C44.8983 56.0002 44.8107 55.7599 44.6355 55.5895C44.4627 55.419 44.2046 55.3338 43.8613 55.3338C43.5038 55.3338 43.2221 55.4131 43.0162 55.5717C42.8126 55.728 42.6717 55.902 42.5936 56.0938L41.5957 55.8665C41.7141 55.535 41.8869 55.2675 42.1142 55.0639C42.3438 54.858 42.6078 54.7088 42.9061 54.6165C43.2044 54.5218 43.5181 54.4744 43.8471 54.4744C44.0649 54.4744 44.2958 54.5005 44.5396 54.5526C44.7858 54.6023 45.0154 54.6946 45.2285 54.8295C45.444 54.9645 45.6203 55.1574 45.7576 55.4084C45.8949 55.657 45.9636 55.9801 45.9636 56.3778V60H44.9267V59.2543H44.8841C44.8154 59.3916 44.7124 59.5265 44.5751 59.6591C44.4378 59.7917 44.2614 59.9018 44.046 59.9893C43.8306 60.0769 43.5725 60.1207 43.2718 60.1207ZM43.5027 59.2685C43.7962 59.2685 44.0472 59.2105 44.2555 59.0945C44.4662 58.9785 44.626 58.8269 44.7349 58.6399C44.8462 58.4505 44.9018 58.2481 44.9018 58.0327V57.3295C44.8639 57.3674 44.7905 57.4029 44.6816 57.4361C44.5751 57.4669 44.4532 57.4941 44.3159 57.5178C44.1786 57.5391 44.0448 57.5592 43.9146 57.5781C43.7844 57.5947 43.6755 57.6089 43.5879 57.6207C43.3819 57.6468 43.1937 57.6906 43.0233 57.7521C42.8552 57.8137 42.7202 57.9025 42.6184 58.0185C42.519 58.1321 42.4693 58.2836 42.4693 58.473C42.4693 58.7358 42.5663 58.9347 42.7605 59.0696C42.9546 59.2022 43.202 59.2685 43.5027 59.2685ZM49.6648 62.1591C49.2315 62.1591 48.8587 62.1023 48.5462 61.9886C48.236 61.875 47.9827 61.7247 47.7862 61.5376C47.5897 61.3506 47.4429 61.1458 47.3459 60.9233L48.2585 60.5469C48.3224 60.651 48.4077 60.7611 48.5142 60.8771C48.6231 60.9955 48.7699 61.0961 48.9545 61.179C49.1416 61.2618 49.3819 61.3033 49.6754 61.3033C50.0779 61.3033 50.4105 61.205 50.6733 61.0085C50.9361 60.8144 51.0675 60.5043 51.0675 60.0781V59.0057H51C50.9361 59.1217 50.8438 59.2507 50.723 59.3928C50.6046 59.5348 50.4413 59.6579 50.233 59.7621C50.0246 59.8662 49.7536 59.9183 49.4197 59.9183C48.9889 59.9183 48.6006 59.8177 48.255 59.6165C47.9117 59.4129 47.6394 59.1134 47.4382 58.718C47.2393 58.3203 47.1399 57.8314 47.1399 57.2514C47.1399 56.6714 47.2382 56.1742 47.4347 55.7599C47.6335 55.3456 47.9058 55.0284 48.2514 54.8082C48.5971 54.5857 48.9889 54.4744 49.4268 54.4744C49.7654 54.4744 50.0388 54.5312 50.2472 54.6449C50.4555 54.7562 50.6177 54.8864 50.7337 55.0355C50.852 55.1847 50.9432 55.3161 51.0071 55.4297H51.0852V54.5455H52.1257V60.1207C52.1257 60.5895 52.0168 60.9742 51.799 61.2749C51.5812 61.5755 51.2865 61.7981 50.9148 61.9425C50.5455 62.0869 50.1288 62.1591 49.6648 62.1591ZM49.6541 59.0376C49.9595 59.0376 50.2176 58.9666 50.4283 58.8246C50.6413 58.6802 50.8023 58.4742 50.9112 58.2067C51.0225 57.9368 51.0781 57.6136 51.0781 57.2372C51.0781 56.8703 51.0237 56.5471 50.9148 56.2678C50.8059 55.9884 50.6461 55.7706 50.4354 55.6143C50.2247 55.4557 49.9643 55.3764 49.6541 55.3764C49.3345 55.3764 49.0682 55.4593 48.8551 55.625C48.642 55.7884 48.4811 56.0109 48.3722 56.2926C48.2656 56.5743 48.2124 56.8892 48.2124 57.2372C48.2124 57.5947 48.2668 57.9084 48.3757 58.1783C48.4846 58.4482 48.6456 58.6589 48.8587 58.8104C49.0741 58.9619 49.3393 59.0376 49.6541 59.0376ZM55.9006 60.1101C55.3632 60.1101 54.9003 59.9953 54.5121 59.7656C54.1262 59.5336 53.8279 59.2081 53.6172 58.7891C53.4089 58.3677 53.3047 57.8741 53.3047 57.3082C53.3047 56.7495 53.4089 56.2571 53.6172 55.831C53.8279 55.4048 54.1214 55.0722 54.4979 54.8331C54.8767 54.594 55.3194 54.4744 55.826 54.4744C56.1338 54.4744 56.4321 54.5253 56.7209 54.6271C57.0097 54.7289 57.2689 54.8887 57.4986 55.1065C57.7282 55.3243 57.9093 55.6072 58.0419 55.9553C58.1745 56.3009 58.2408 56.7211 58.2408 57.2159V57.5923H53.9048V56.7969H57.2003C57.2003 56.5175 57.1435 56.2701 57.0298 56.0547C56.9162 55.8369 56.7564 55.6652 56.5504 55.5398C56.3468 55.4143 56.1077 55.3516 55.8331 55.3516C55.5348 55.3516 55.2744 55.425 55.0518 55.5717C54.8317 55.7161 54.6612 55.9055 54.5405 56.1399C54.4221 56.3719 54.3629 56.6241 54.3629 56.8963V57.5178C54.3629 57.8823 54.4268 58.1925 54.5547 58.4482C54.6849 58.7038 54.866 58.8991 55.098 59.0341C55.33 59.1667 55.6011 59.233 55.9112 59.233C56.1125 59.233 56.2959 59.2045 56.4616 59.1477C56.6274 59.0885 56.7706 59.0009 56.8913 58.8849C57.0121 58.7689 57.1044 58.6257 57.1683 58.4553L58.1733 58.6364C58.0928 58.9323 57.9484 59.1915 57.7401 59.4141C57.5341 59.6342 57.2749 59.8059 56.9624 59.929C56.6522 60.0497 56.2983 60.1101 55.9006 60.1101Z" fill="#080808"/>
<defs>
<clipPath id="clip0_1344_3559">
<rect x="15" y="6.2373" width="39.0922" height="40.6878" rx="10" transform="rotate(-0.347155 15 6.2373)" fill="white"/>
</clipPath>
</defs>
</svg>
