<svg width="109" height="79" viewBox="0 0 109 79" fill="none" xmlns="http://www.w3.org/2000/svg">
<g clip-path="url(#clip0_544_2900)">
<path d="M52.7638 51.7463C62.0826 51.7463 69.6369 44.1919 69.6369 34.8732C69.6369 25.5544 62.0826 18 52.7638 18C43.445 18 35.8906 25.5544 35.8906 34.8732C35.8906 44.1919 43.445 51.7463 52.7638 51.7463Z" fill="#F4E600"/>
<path d="M1.75391 30.9905V24.2893C1.75391 23.4121 2.25354 22.9124 3.13076 22.9124H20.2328V19.968H19.0428C16.4111 19.968 13.0281 20.0939 10.3354 19.968C9.39717 19.968 9.01959 19.4036 9.01959 18.5263V2.29775C9.01959 1.42053 9.39717 0.920898 10.3354 0.920898H19.5424C20.4196 0.920898 20.9193 1.42053 20.9193 2.29775V10.8182H42.1557C43.0329 10.8182 43.5325 11.2569 43.5325 12.1341V18.0229C43.5325 18.9611 42.968 19.3387 42.0298 19.3998C40.0885 19.5256 36.2668 19.6515 32.1325 19.7773V22.9086H49.2345C49.9858 22.9086 50.6113 23.5341 50.6113 24.2855V30.9867C50.6113 31.8029 49.9858 32.3636 49.2345 32.3636H3.13076C2.25354 32.3636 1.75391 31.9249 1.75391 30.9867V30.9905ZM5.76243 28.8623C6.3269 28.8623 6.76551 27.6723 6.76551 26.7951C6.76551 25.9179 6.3269 25.4793 5.76243 25.4793C5.19795 25.4793 4.75934 25.9179 4.75934 26.7951C4.75934 27.6723 5.19795 28.8623 5.76243 28.8623ZM12.4026 45.9643H29.7563V43.3975H11.7123C10.9609 43.3975 10.5223 42.9589 10.5223 42.3334V36.1928C10.5223 35.5025 10.9609 35.2546 11.7123 35.2546H38.4637C39.3409 35.2546 40.8436 35.3804 41.3433 36.2577C42.5332 38.2638 41.8429 44.0268 40.7788 51.2276C40.6529 52.0438 40.0274 52.5435 39.2112 52.5435H22.3648V55.1751H41.4081C42.1595 55.1751 42.6629 55.6747 42.6629 56.3651V62.0022C42.6629 62.7535 42.1633 63.0663 41.4081 63.1311C38.4637 63.4439 33.0135 63.5697 30.4467 63.5697L20.8621 63.6346C18.5432 63.6346 14.5995 63.6956 12.5323 63.4477C11.7199 63.3218 11.4033 63.0091 11.2165 62.3187C9.71373 55.9303 9.14926 51.1056 9.77476 48.2222C10.0265 46.8453 10.9647 45.9681 12.4064 45.9681L12.4026 45.9643ZM13.0281 8.19039C13.4667 8.19039 14.0922 6.50079 14.0922 5.24598C14.0922 3.99117 13.5926 3.55638 13.0281 3.55638C12.4636 3.55638 11.964 3.99499 11.964 5.24598C11.964 6.49697 12.5895 8.19039 13.0281 8.19039ZM14.4698 40.9527C15.0343 40.9527 15.4729 39.7627 15.4729 38.8855C15.4729 38.0083 15.0343 37.5697 14.4698 37.5697C13.9053 37.5697 13.4667 38.0083 13.4667 38.8855C13.4667 39.7627 13.9053 40.9527 14.4698 40.9527Z" fill="#212121"/>
<path d="M61.3842 2.4236C65.4575 2.17188 71.6591 2.11085 75.7287 1.92397C78.2955 1.7981 80.1758 1.73708 82.3688 1.7981C84.497 1.85913 85.8777 3.2398 85.8777 5.99351V11.3827H92.5789V2.54946C92.5789 1.67224 93.0175 1.17261 93.9558 1.17261H103.102C103.979 1.17261 104.479 1.67224 104.479 2.54946V34.4345C104.479 35.1859 103.853 35.8114 103.102 35.8114H93.9558C93.2044 35.8114 92.5789 35.1859 92.5789 34.4345V22.0314H85.8777V30.7998C85.8777 31.677 85.3781 32.1766 84.5009 32.1766H59.9463C59.0691 32.1766 58.6305 31.677 58.5694 30.7998C56.815 6.43212 56.9409 4.42595 58.3826 3.30082C59.2598 2.61049 60.137 2.48844 61.388 2.4236H61.3842ZM61.2583 9.81514C61.6969 9.81514 62.3224 8.12554 62.3224 6.87073C62.3224 5.61592 61.8228 5.18113 61.2583 5.18113C60.6939 5.18113 60.1942 5.61974 60.1942 6.87073C60.1942 8.12172 60.8197 9.81514 61.2583 9.81514ZM75.0383 22.0924V12.1951H67.8985V22.0924H75.0383ZM96.5874 8.43447C97.0261 8.43447 97.6516 6.74487 97.6516 5.49006C97.6516 4.23525 97.1519 3.79664 96.5874 3.79664C96.023 3.79664 95.5233 4.23525 95.5233 5.49006C95.5233 6.74487 96.1488 8.43447 96.5874 8.43447Z" fill="#212121"/>
<path d="M0.769531 67.5897C0.769531 67.5897 7.25334 63.7528 11.6356 67.2235C16.0179 70.6943 20.5871 70.0726 22.5361 68.814C24.2714 67.6927 27.8261 65.9153 30.6065 67.8262C33.3869 69.737 36.6402 69.6759 38.265 69.5043C42.6511 69.0428 42.6854 65.8085 47.533 66.0336C52.3806 66.2586 53.2998 70.4769 57.2244 69.5539C61.149 68.6309 63.9714 66.9642 63.9714 66.9642C63.9714 66.9642 70.2493 64.4508 74.0938 67.2579C81.5692 72.7157 87.1224 68.4745 90.1202 67.7461C93.118 67.0176 95.559 69.6912 98.0305 70.1413C101.192 70.7134 102.23 69.4967 103.793 68.4364C105.105 67.5439 105.788 66.1976 109 66.1976V78.5054H0.769531V67.5859V67.5897Z" fill="#17AA1A"/>
<path d="M68.7295 56.9028C68.7295 56.9028 68.7143 56.9219 68.6914 56.9448C68.7067 56.9333 68.7219 56.9219 68.7372 56.9105V56.9028H68.7295Z" fill="#212121"/>
<path d="M102.107 52.1545C102.035 50.976 101.142 49.622 101.142 49.622C102.035 49.5648 102.496 48.5846 101.688 46.9179C100.883 45.2473 98.5793 44.557 98.5793 44.557C98.5793 44.557 99.4412 42.6004 98.4076 41.1625C97.3702 39.7247 94.6089 40.1557 94.6089 40.1557C94.6089 40.1557 93.7469 38.2296 92.0497 37.1044C90.3525 35.9831 87.7322 36.3836 87.7322 36.3836C87.7322 36.3836 86.0617 35.0907 83.472 35.1174C80.8823 35.144 78.6663 36.7574 78.6663 36.7574C78.6663 36.7574 78.1209 35.8382 76.0194 35.9526C73.9179 36.067 72.4533 38.7712 72.4533 38.7712C72.4533 38.7712 70.3518 38.3974 68.9444 39.8086C67.5333 41.2198 68.3762 43.4776 68.3762 43.4776C66.145 44.1832 65.1037 45.705 64.688 46.8111C64.2723 47.9171 65.0732 49.1071 65.0732 49.1071C65.0732 49.1071 64.2456 50.709 63.9939 51.8456C63.7421 52.9821 65.016 53.8098 65.016 53.8098C65.016 53.8098 63.1357 56.0486 65.016 57.5132C66.6675 58.8023 68.277 57.3568 68.6431 56.9869C68.6546 56.9716 68.6698 56.9602 68.6813 56.9449C68.7042 56.922 68.7194 56.9029 68.7194 56.9029V56.9106C68.7423 56.8991 68.7537 56.8839 68.7728 56.8724C68.9597 56.7809 69.1885 56.8572 69.2801 57.0441C69.3259 57.128 69.7339 57.8297 70.9239 57.3835C72.1635 56.9182 72.0262 56.3194 71.885 55.6825C71.8431 55.5032 71.9308 55.2934 72.1024 55.221C72.133 55.2095 72.8958 54.8586 73.1093 53.8899C73.3306 52.8868 72.8805 52.1774 72.8614 52.1507C72.7585 51.9905 72.7852 51.7807 72.9263 51.6549C73.0064 51.5824 73.2161 51.3307 73.2047 51.0675C73.1894 50.7433 72.9072 50.5069 72.9034 50.5069C72.7432 50.3734 72.7165 50.1331 72.8462 49.9729C72.9758 49.8089 73.2123 49.7822 73.3801 49.9119C73.4373 49.9576 73.9332 50.3696 73.9675 51.0294C73.9904 51.4451 73.8035 51.7845 73.6433 51.9981C73.8187 52.3757 74.0628 53.1271 73.8569 54.0577C73.6471 55.0074 73.0445 55.5337 72.686 55.7702C72.7699 56.2164 72.8042 56.7885 72.4038 57.2996C72.2893 58.1501 72.2474 59.5346 73.0369 60.2516C74.2268 61.331 75.1384 60.8314 75.1384 60.8314C75.1384 60.8314 75.3024 62.1014 76.3551 62.9596C77.4077 63.8177 79.063 63.3753 79.063 63.3753C79.063 63.3753 79.5321 64.6187 81.6603 64.6759C83.7886 64.7331 85.1196 63.2113 85.1196 63.2113C85.1196 63.2113 86.0998 63.6347 87.7322 63.2113C89.3646 62.788 89.7422 61.537 89.7422 61.537C89.7422 61.537 90.7186 61.9107 91.5844 61.2204C92.4463 60.5301 92.248 59.4354 92.248 59.4354C93.1405 59.3782 93.6287 58.4858 93.6287 58.4858C93.6287 58.4858 94.7805 59.9236 96.0468 59.5232C97.313 59.1189 97.1414 57.5094 97.1414 57.5094C97.1414 57.5094 98.3199 57.9404 99.5862 56.9907C100.852 56.041 100.391 53.9967 100.391 53.9967C102.119 54.2827 102.176 53.333 102.103 52.1545H102.107ZM79.4024 50.4229C78.9524 50.751 78.4795 50.6785 78.0866 50.2666C77.9913 50.1636 77.8921 50.0568 77.7777 49.9729C77.3429 49.6601 77.2552 49.4428 77.3925 48.9393C77.4497 48.7219 77.5107 48.5083 77.5679 48.2947C77.7548 47.5968 78.4261 47.2383 79.2804 47.3756C79.883 47.4709 80.3712 48.0697 80.3521 48.7982C80.0699 49.2864 79.9898 49.9996 79.4024 50.4229ZM85.2226 53.0012C85.0052 53.4475 84.8069 53.9128 84.3378 54.1797C84.1166 54.3056 84.0555 54.5116 84.1127 54.7824C84.17 55.0722 84.1738 55.3773 84.1776 55.6748C84.1776 55.7854 84.1585 55.9189 84.0937 56.0028C83.9716 56.1668 83.8801 56.4109 83.6131 56.3766C83.3728 56.3461 83.3843 56.1058 83.3461 55.9418C83.2813 55.6519 83.2584 55.3545 83.2279 55.057C83.2126 54.912 83.2279 54.7633 83.2279 54.6107C82.6405 54.3971 82.2248 53.97 81.8968 53.497C81.3552 52.7152 81.4544 52.391 82.3926 52.2003C83.1592 52.0477 83.9259 51.9028 84.7154 52.0859C85.1845 52.1926 85.4362 52.5702 85.2264 52.9974L85.2226 53.0012ZM89.7651 49.9729C89.3494 50.5641 88.8078 50.7738 88.1175 50.6632C87.7513 50.606 87.5339 50.3657 87.45 50.0263C87.3852 49.7708 87.3775 49.5 87.3623 49.3817C87.3394 48.1689 88.4378 47.3717 89.4371 47.7531C89.643 47.8332 89.8604 48.0354 89.952 48.2375C90.2304 48.8363 90.1618 49.4122 89.7689 49.9729H89.7651ZM93.5333 55.9151H93.5181C92.1794 55.8617 91.3479 54.9311 91.3479 53.4856C91.3479 52.5016 92.0039 51.8952 92.5798 51.59C92.4387 51.3269 92.309 50.9531 92.3205 50.4763C92.3434 49.4885 93.068 48.8478 93.0985 48.8211C93.2587 48.6838 93.499 48.699 93.6363 48.8592C93.7736 49.0194 93.7584 49.2559 93.602 49.397C93.5982 49.4008 93.0985 49.8547 93.0833 50.4992C93.068 51.14 93.4227 51.4832 93.4265 51.4871C93.5295 51.5824 93.5715 51.7235 93.541 51.8608C93.5105 51.9981 93.4037 52.1011 93.2702 52.1392C93.2244 52.1507 92.1145 52.4711 92.1145 53.4932C92.1145 54.5154 92.6256 55.1218 93.5524 55.1599C93.7622 55.1676 93.9262 55.3468 93.9185 55.5566C93.9109 55.7626 93.7431 55.9227 93.5371 55.9227L93.5333 55.9151Z" fill="#212121"/>
<path d="M68.6562 56.9868C68.6562 56.9868 68.6829 56.9601 68.6944 56.9448C68.6791 56.9563 68.6677 56.9715 68.6562 56.9868Z" fill="#212121"/>
</g>
<defs>
<clipPath id="clip0_544_2900">
<rect width="108.23" height="77.5883" fill="white" transform="translate(0.769531 0.920898)"/>
</clipPath>
</defs>
</svg>
