<svg width="14" height="14" viewBox="0 0 14 14" fill="none" xmlns="http://www.w3.org/2000/svg">
<g clip-path="url(#clip0_387_3692)">
<path fill-rule="evenodd" clip-rule="evenodd" d="M6.9982 0.276855C6.79977 0.276855 6.60548 0.333623 6.43827 0.440458C6.27319 0.545928 6.1413 0.695846 6.05772 0.872901L4.47016 4.07799C4.46704 4.08429 4.46405 4.09065 4.4612 4.09708L4.45796 4.10109L4.45316 4.10296C4.44707 4.10363 4.44099 4.10442 4.43493 4.10532L0.939348 4.62318C0.746144 4.64197 0.561904 4.71447 0.407589 4.83267C0.247917 4.95498 0.127135 5.12096 0.0598753 5.31051C-0.00738488 5.50006 -0.018238 5.70505 0.0286311 5.90065C0.0753187 6.09548 0.177287 6.27267 0.322253 6.41092L2.88103 8.87974L2.88686 8.88527C2.89051 8.88869 2.89326 8.89296 2.89484 8.89771C2.89642 8.90245 2.89679 8.90752 2.89591 8.91244L2.28561 12.4841C2.25211 12.6775 2.27332 12.8773 2.34713 13.0591C2.42104 13.2413 2.5446 13.399 2.70373 13.5144C2.86287 13.6297 3.05119 13.6981 3.24727 13.7117C3.44296 13.7253 3.63854 13.6838 3.81184 13.592L3.81289 13.5914L6.96237 11.9269C6.97366 11.922 6.98587 11.9194 6.99822 11.9194C7.01057 11.9194 7.02277 11.922 7.03407 11.9269L10.1835 13.5914C10.3569 13.6835 10.5533 13.7254 10.7491 13.7117C10.9452 13.6981 11.1335 13.6297 11.2927 13.5144C11.4518 13.399 11.5754 13.2413 11.6493 13.0591C11.7231 12.8773 11.7444 12.6785 11.711 12.4852L11.7108 12.4841L11.1011 8.9157L11.1005 8.91244C11.0996 8.90752 11.1 8.90245 11.1016 8.89771C11.1031 8.89297 11.1059 8.88869 11.1095 8.88527L11.1154 8.87974L13.6742 6.41089C13.8191 6.27264 13.9211 6.09547 13.9678 5.90065C14.0146 5.70505 14.0038 5.50006 13.9365 5.31051C13.8693 5.12096 13.7485 4.95498 13.5888 4.83267C13.4345 4.71447 13.2503 4.64197 13.0571 4.62318L9.56148 4.10532C9.55542 4.10442 9.54934 4.10363 9.54325 4.10296L9.53844 4.10109L9.53521 4.09708C9.53236 4.09065 9.52937 4.08429 9.52625 4.07799L7.93868 0.872887C7.8551 0.695839 7.72321 0.545925 7.55814 0.440458C7.39092 0.333623 7.19663 0.276855 6.9982 0.276855Z" fill="#FFD84D"/>
</g>
<defs>
<clipPath id="clip0_387_3692">
<rect width="14" height="14" fill="white"/>
</clipPath>
</defs>
</svg>
