<svg width="24" height="23" viewBox="0 0 24 23" fill="none" xmlns="http://www.w3.org/2000/svg">
<g id="Speakerphone">
<path id="Icon" d="M11 5.81429V18.1447C11 19.0419 10.2121 19.7692 9.24018 19.7692C8.49646 19.7692 7.83302 19.3376 7.58288 18.6911L5.43647 13.0149M18 12.3846C19.6569 12.3846 21 11.1448 21 9.61535C21 8.08594 19.6569 6.84612 18 6.84612M5.43647 13.0149C4.0043 12.453 3 11.1424 3 9.61534C3 7.57614 4.79086 5.92304 6.99999 5.92304H8.83208C12.9327 5.92304 16.4569 4.78387 18 3.15381L18 16.0769C16.4569 14.4468 12.9327 13.3077 8.83208 13.3077L6.99998 13.3076C6.44518 13.3076 5.91677 13.2034 5.43647 13.0149Z" stroke="#080808" stroke-width="1.5" stroke-linecap="round" stroke-linejoin="round"/>
</g>
</svg>
