<svg width="42" height="42" viewBox="0 0 42 42" fill="none" xmlns="http://www.w3.org/2000/svg">
<circle cx="21" cy="21" r="20" fill="#F0F0F0" stroke="#5E5E5E" stroke-width="2"/>
<path d="M9.75 23.3713L11 29.5754M11 29.5754L9.75 33.2978M11 29.5754H14.3161C15.1967 29.5754 15.4043 29.75 15.5491 30.6122L16 33.2978" stroke="#5E5E5E" stroke-width="1.5" stroke-linecap="round" stroke-linejoin="round"/>
<path d="M32.25 23.3713L31 29.5754M31 29.5754L32.25 33.2978M31 29.5754H27.6839C26.8033 29.5754 26.5957 29.75 26.4509 30.6122L26 33.2978" stroke="#5E5E5E" stroke-width="1.5" stroke-linecap="round" stroke-linejoin="round"/>
<path d="M21 18.4082V33.2979" stroke="#5E5E5E" stroke-width="1.5" stroke-linecap="round" stroke-linejoin="round"/>
<path d="M11.7506 15.1911C14.3376 13.9886 16.9408 12.0782 18.861 10.1742C19.9989 9.04586 20.5679 8.48169 21 8.48169C21.4321 8.48169 22.0011 9.04586 23.139 10.1742C25.0592 12.0782 27.6624 13.9886 30.2494 15.1911C31.1292 15.6 31.666 16.1044 32.0913 17.0865C32.4166 17.8377 32.2706 18.4082 31.3838 18.4082H10.6162C9.72935 18.4082 9.5834 17.8377 9.90871 17.0865C10.334 16.1044 10.8708 15.6 11.7506 15.1911Z" stroke="#5E5E5E" stroke-width="1.5" stroke-linecap="round" stroke-linejoin="round"/>
<path d="M19.75 33.2979H22.25" stroke="#5E5E5E" stroke-width="1.5" stroke-linecap="round" stroke-linejoin="round"/>
<path d="M17.25 24.6122H24.75" stroke="#5E5E5E" stroke-width="1.5" stroke-linecap="round" stroke-linejoin="round"/>
</svg>
