<svg width="16" height="16" viewBox="0 0 16 16" fill="none" xmlns="http://www.w3.org/2000/svg">
<circle cx="8" cy="8" r="4" stroke="#080808" stroke-width="1.5"/>
<path d="M5.33203 14.6667L7.12156 9.56787C7.48841 8.52262 7.67183 8 7.9987 8C8.32556 8 8.50899 8.52263 8.87584 9.56787L10.6654 14.6667" stroke="#080808" stroke-width="1.5" stroke-linecap="round" stroke-linejoin="round"/>
<path d="M9.33464 2.66659C9.33464 3.40296 8.73768 3.99992 8.0013 3.99992C7.26492 3.99992 6.66797 3.40296 6.66797 2.66659C6.66797 1.93021 7.26492 1.33325 8.0013 1.33325C8.73768 1.33325 9.33464 1.93021 9.33464 2.66659Z" fill="#080808" stroke="#080808"/>
<path d="M12.6667 6.66667C11.9303 6.66667 11.3333 6.06971 11.3333 5.33333C11.3333 4.59695 11.9303 4 12.6667 4C13.403 4 14 4.59695 14 5.33333C14 6.06971 13.403 6.66667 12.6667 6.66667Z" fill="#080808" stroke="#080808"/>
<path d="M4.66667 10.6666C4.66667 11.403 4.06971 11.9999 3.33333 11.9999C2.59695 11.9999 2 11.403 2 10.6666C2 9.93021 2.59695 9.33325 3.33333 9.33325C4.06971 9.33325 4.66667 9.93021 4.66667 10.6666Z" fill="#080808" stroke="#080808"/>
<path d="M4.66667 5.16659C4.66667 5.90296 4.06971 6.49992 3.33333 6.49992C2.59695 6.49992 2 5.90296 2 5.16659C2 4.43021 2.59695 3.83325 3.33333 3.83325C4.06971 3.83325 4.66667 4.43021 4.66667 5.16659Z" fill="#080808" stroke="#080808"/>
<path d="M13.9987 10.6666C13.9987 11.403 13.4017 11.9999 12.6654 11.9999C11.929 11.9999 11.332 11.403 11.332 10.6666C11.332 9.93021 11.929 9.33325 12.6654 9.33325C13.4017 9.33325 13.9987 9.93021 13.9987 10.6666Z" fill="#080808" stroke="#080808"/>
</svg>
