<svg width="17" height="16" viewBox="0 0 17 16" fill="none" xmlns="http://www.w3.org/2000/svg">
<circle cx="8.33398" cy="8" r="4" stroke="#F85ECD" stroke-width="1.5"/>
<path d="M5.66797 14.6667L7.45749 9.56787C7.82434 8.52262 8.00777 8 8.33464 8C8.6615 8 8.84493 8.52263 9.21178 9.56787L11.0013 14.6667" stroke="#F85ECD" stroke-width="1.5" stroke-linecap="round" stroke-linejoin="round"/>
<path d="M9.66667 2.66732C9.66667 3.4037 9.06971 4.00065 8.33333 4.00065C7.59695 4.00065 7 3.4037 7 2.66732C7 1.93094 7.59695 1.33398 8.33333 1.33398C9.06971 1.33398 9.66667 1.93094 9.66667 2.66732Z" stroke="#F85ECD" stroke-width="1.5"/>
<path d="M13.0007 6.66667C12.2643 6.66667 11.6673 6.06971 11.6673 5.33333C11.6673 4.59695 12.2643 4 13.0007 4C13.737 4 14.334 4.59695 14.334 5.33333C14.334 6.06971 13.737 6.66667 13.0007 6.66667Z" stroke="#F85ECD" stroke-width="1.5"/>
<path d="M5.00065 10.6673C5.00065 11.4037 4.4037 12.0007 3.66732 12.0007C2.93094 12.0007 2.33398 11.4037 2.33398 10.6673C2.33398 9.93094 2.93094 9.33398 3.66732 9.33398C4.4037 9.33398 5.00065 9.93094 5.00065 10.6673Z" stroke="#F85ECD" stroke-width="1.5"/>
<path d="M5.00065 5.16732C5.00065 5.9037 4.4037 6.50065 3.66732 6.50065C2.93094 6.50065 2.33398 5.9037 2.33398 5.16732C2.33398 4.43094 2.93094 3.83398 3.66732 3.83398C4.4037 3.83398 5.00065 4.43094 5.00065 5.16732Z" stroke="#F85ECD" stroke-width="1.5"/>
<path d="M14.3346 10.6673C14.3346 11.4037 13.7377 12.0007 13.0013 12.0007C12.2649 12.0007 11.668 11.4037 11.668 10.6673C11.668 9.93094 12.2649 9.33398 13.0013 9.33398C13.7377 9.33398 14.3346 9.93094 14.3346 10.6673Z" stroke="#F85ECD" stroke-width="1.5"/>
</svg>
