<svg width="58" height="72" viewBox="0 0 58 72" fill="none" xmlns="http://www.w3.org/2000/svg">
<path d="M29 1C13.536 1 1 13.6624 1 29.2823C1 38.2138 4.5 45.1584 11.5 51.3615C16.434 55.7338 22.4113 62.996 26.0001 68.8828C27.7211 71.7057 30.1551 71.7057 31.9999 68.8828C35.7704 63.113 41.566 55.7338 46.5 51.3615C53.5 45.1584 57 38.2138 57 29.2823C57 13.6624 44.464 1 29 1Z" fill="#D3FBD4" stroke="#17AA1A" stroke-linejoin="round"/>
<ellipse cx="29.5" cy="29" rx="20.5" ry="20" fill="#080808"/>
<circle cx="29.5" cy="28" r="6.5" stroke="white" stroke-width="1.5"/>
<path d="M25.168 38.8333L28.0759 30.5478C28.6721 28.8493 28.9701 28 29.5013 28C30.0325 28 30.3305 28.8493 30.9267 30.5478L33.8346 38.8333" stroke="white" stroke-width="1.5" stroke-linecap="round" stroke-linejoin="round"/>
<path d="M31.6654 19.3334C31.6654 20.53 30.6953 21.5001 29.4987 21.5001C28.3021 21.5001 27.332 20.53 27.332 19.3334C27.332 18.1368 28.3021 17.1667 29.4987 17.1667C30.6953 17.1667 31.6654 18.1368 31.6654 19.3334Z" fill="white" stroke="white"/>
<path d="M37.0833 25.8333C35.8867 25.8333 34.9167 24.8633 34.9167 23.6667C34.9167 22.47 35.8867 21.5 37.0833 21.5C38.28 21.5 39.25 22.47 39.25 23.6667C39.25 24.8633 38.2799 25.8333 37.0833 25.8333Z" fill="white" stroke="white"/>
<path d="M24.0833 32.3334C24.0833 33.53 23.1133 34.5001 21.9167 34.5001C20.72 34.5001 19.75 33.53 19.75 32.3334C19.75 31.1368 20.72 30.1667 21.9167 30.1667C23.1133 30.1667 24.0833 31.1368 24.0833 32.3334Z" fill="white" stroke="white"/>
<path d="M24.0833 23.3959C24.0833 24.5925 23.1133 25.5626 21.9167 25.5626C20.72 25.5626 19.75 24.5925 19.75 23.3959C19.75 22.1993 20.72 21.2292 21.9167 21.2292C23.1133 21.2292 24.0833 22.1993 24.0833 23.3959Z" fill="white" stroke="white"/>
<path d="M39.2513 32.3334C39.2513 33.53 38.2813 34.5001 37.0846 34.5001C35.888 34.5001 34.918 33.53 34.918 32.3334C34.918 31.1368 35.888 30.1667 37.0846 30.1667C38.2813 30.1667 39.2513 31.1368 39.2513 32.3334Z" fill="white" stroke="white"/>
</svg>
