<svg width="24" height="24" viewBox="0 0 24 24" fill="none" xmlns="http://www.w3.org/2000/svg">
<rect width="24" height="24" rx="12" fill="#5E5E5E"/>
<circle cx="12" cy="12" r="4" stroke="white" stroke-width="1.5"/>
<path d="M9.33203 18.6667L11.1216 13.5679C11.4884 12.5226 11.6718 12 11.9987 12C12.3256 12 12.509 12.5226 12.8758 13.5679L14.6654 18.6667" stroke="white" stroke-width="1.5" stroke-linecap="round" stroke-linejoin="round"/>
<path d="M13.3346 6.66659C13.3346 7.40296 12.7377 7.99992 12.0013 7.99992C11.2649 7.99992 10.668 7.40296 10.668 6.66659C10.668 5.93021 11.2649 5.33325 12.0013 5.33325C12.7377 5.33325 13.3346 5.93021 13.3346 6.66659Z" fill="white" stroke="white"/>
<path d="M16.6667 10.6667C15.9303 10.6667 15.3333 10.0697 15.3333 9.33333C15.3333 8.59695 15.9303 8 16.6667 8C17.403 8 18 8.59695 18 9.33333C18 10.0697 17.403 10.6667 16.6667 10.6667Z" fill="white" stroke="white"/>
<path d="M8.66667 14.6666C8.66667 15.403 8.06971 15.9999 7.33333 15.9999C6.59695 15.9999 6 15.403 6 14.6666C6 13.9302 6.59695 13.3333 7.33333 13.3333C8.06971 13.3333 8.66667 13.9302 8.66667 14.6666Z" fill="white" stroke="white"/>
<path d="M8.66667 9.16659C8.66667 9.90296 8.06971 10.4999 7.33333 10.4999C6.59695 10.4999 6 9.90296 6 9.16659C6 8.43021 6.59695 7.83325 7.33333 7.83325C8.06971 7.83325 8.66667 8.43021 8.66667 9.16659Z" fill="white" stroke="white"/>
<path d="M17.9987 14.6666C17.9987 15.403 17.4017 15.9999 16.6654 15.9999C15.929 15.9999 15.332 15.403 15.332 14.6666C15.332 13.9302 15.929 13.3333 16.6654 13.3333C17.4017 13.3333 17.9987 13.9302 17.9987 14.6666Z" fill="white" stroke="white"/>
</svg>
