<svg width="14" height="14" viewBox="0 0 14 14" fill="none" xmlns="http://www.w3.org/2000/svg">
<g id="elements">
<path id="Vector" d="M2.20492 6.9664C1.6519 6.00211 1.38488 5.21472 1.22387 4.41656C0.985749 3.23611 1.53069 2.08299 2.43344 1.34721C2.81498 1.03624 3.25235 1.14249 3.47797 1.54725L3.98733 2.46105C4.39105 3.18535 4.59292 3.5475 4.55288 3.93145C4.51284 4.3154 4.2406 4.62811 3.69612 5.25352L2.20492 6.9664ZM2.20492 6.9664C3.32426 8.91818 5.08087 10.6758 7.03493 11.7964M7.03493 11.7964C7.99921 12.3494 8.78661 12.6164 9.58476 12.7774C10.7652 13.0156 11.9183 12.4706 12.6541 11.5679C12.9651 11.1863 12.8588 10.749 12.4541 10.5234L11.5403 10.014C10.816 9.61027 10.4538 9.4084 10.0699 9.44844C9.68592 9.48848 9.37322 9.76072 8.7478 10.3052L7.03493 11.7964Z" stroke="#080808" stroke-width="1.5" stroke-linejoin="round"/>
</g>
</svg>
