<svg width="58" height="72" viewBox="0 0 58 72" fill="none" xmlns="http://www.w3.org/2000/svg">
<path d="M29 1C13.536 1 1 13.6624 1 29.2823C1 38.2138 4.5 45.1584 11.5 51.3615C16.434 55.7338 22.4113 62.996 26.0001 68.8828C27.7211 71.7057 30.1551 71.7057 31.9999 68.8828C35.7704 63.113 41.566 55.7338 46.5 51.3615C53.5 45.1584 57 38.2138 57 29.2823C57 13.6624 44.464 1 29 1Z" fill="#D3FBD4" stroke="#17AA1A" stroke-linejoin="round"/>
<ellipse cx="29.5" cy="29" rx="20.5" ry="20" fill="#080808"/>
<path d="M39.4999 28.9999C39.4999 34.5227 35.0227 38.9999 29.4999 38.9999C23.9771 38.9999 19.5 34.5227 19.5 28.9999C19.5 23.4771 23.9771 19 29.4999 19C35.0227 19 39.4999 23.4771 39.4999 28.9999Z" fill="white" stroke="white" stroke-width="1.5"/>
<path d="M22.5 22.0001C26.4901 25.5208 26.5099 32.4619 22.5 36" stroke="black" stroke-width="1.5"/>
<path d="M37 36C32.9901 32.4618 33.0099 25.5207 37 22" stroke="black" stroke-width="1.5"/>
</svg>
