<svg width="13" height="13" viewBox="0 0 13 13" fill="none" xmlns="http://www.w3.org/2000/svg">
<path d="M12.0009 9.55557C10.3133 9.55557 8.94531 8.18755 8.94531 6.50001C8.94531 4.81248 10.3133 3.44446 12.0009 3.44446" stroke="#080808" stroke-width="1.2" stroke-linecap="round"/>
<path d="M12 12C8.96243 12 6.5 9.53757 6.5 6.5C6.5 3.46243 8.96243 1 12 1" stroke="#080808" stroke-width="1.2" stroke-linecap="round"/>
<path d="M2.83594 1L2.83594 4.05556M2.83594 12L2.83594 5.88889" stroke="#080808" stroke-width="1.2" stroke-linecap="round" stroke-linejoin="round"/>
<path d="M1.30469 4.05554H4.36024" stroke="#080808" stroke-width="1.2" stroke-linecap="round" stroke-linejoin="round"/>
<path d="M4.66667 1L4.66667 3.6597C4.66667 6.63202 1 6.63191 1 3.6596L1 1" stroke="#080808" stroke-width="1.2" stroke-linecap="round" stroke-linejoin="round"/>
<rect x="1" y="3.75" width="3.66667" height="1.83333" fill="#080808"/>
<path d="M9.70833 4.66663L12.5479 3.39905L12.5514 9.59729L11.0833 9.24996L9.25 7.41663L9.70833 4.66663Z" fill="#080808"/>
</svg>
