<svg width="19" height="19" viewBox="0 0 19 19" fill="none" xmlns="http://www.w3.org/2000/svg">
<g id="elements">
<path id="Vector" d="M3.4456 12.3843C2.37961 13.0293 -0.415347 14.3463 1.28697 15.9942C2.11854 16.7993 3.04469 17.375 4.20909 17.375H10.8534C12.0178 17.375 12.944 16.7993 13.7755 15.9942C15.4778 14.3463 12.6829 13.0293 11.6169 12.3843C9.11717 10.8719 5.94533 10.8719 3.4456 12.3843Z" stroke="#080808" stroke-width="1.5" stroke-linecap="round" stroke-linejoin="round"/>
<path id="Vector_2" d="M10.8125 5.125C10.8125 7.058 9.2455 8.625 7.3125 8.625C5.3795 8.625 3.8125 7.058 3.8125 5.125C3.8125 3.192 5.3795 1.625 7.3125 1.625C9.2455 1.625 10.8125 3.192 10.8125 5.125Z" stroke="#080808" stroke-width="1.5"/>
<path id="Vector_3" d="M13.875 3.375L18.25 3.375" stroke="#080808" stroke-width="1.5" stroke-linecap="round" stroke-linejoin="round"/>
<path id="Vector_4" d="M13.875 6L18.25 6" stroke="#080808" stroke-width="1.5" stroke-linecap="round" stroke-linejoin="round"/>
<path id="Vector_5" d="M16.5 8.625L18.25 8.625" stroke="#080808" stroke-width="1.5" stroke-linecap="round" stroke-linejoin="round"/>
</g>
</svg>
