<svg width="58" height="32" viewBox="0 0 58 32" fill="none" xmlns="http://www.w3.org/2000/svg">
<g clip-path="url(#clip0_1263_3483)">
<path d="M21.67 27.1789C21.67 27.895 21.6589 28.6398 21.6731 29.3845C21.7 30.7676 21.1845 31.3329 19.8278 31.4758C18.4411 31.6219 17.0591 31.8267 15.6723 31.9824C15.3245 32.0205 14.9623 31.9855 14.6113 31.949C13.7827 31.8633 13.3337 31.0614 13.7242 30.3039C14.148 29.4814 14.6825 28.7938 15.7814 28.9351C15.9396 28.9558 16.1847 28.7398 16.3001 28.5715C16.833 27.787 16.6606 26.9089 16.6068 26.0292C13.7068 25.4369 12.3106 23.3329 11.3698 20.7954C10.5523 18.5897 10.2123 16.2777 9.94506 13.9546C9.86126 13.2273 9.78378 12.4984 9.6889 11.7712C9.58454 10.9661 9.14654 10.342 8.37331 10.1864C7.38187 9.98474 6.34932 9.84501 5.34523 9.89582C4.23203 9.9514 3.26115 9.87835 2.54326 8.91289C2.4816 8.82873 2.3551 8.76998 2.24915 8.74616C1.23558 8.51908 0.618891 7.83151 0.180887 6.94544C-0.146431 6.28486 -0.0420685 5.93393 0.596754 5.57188C2.17483 4.67629 3.76556 3.79975 5.33732 2.89304C5.67254 2.69931 5.9967 2.44683 6.24812 2.15465C7.725 0.439686 10.7436 -0.443204 12.8957 0.222139C13.8444 0.515907 14.5734 1.08915 15.111 1.90852C15.8494 3.03278 16.5626 4.17291 17.2963 5.29876C19.3661 8.47621 22.0052 10.9788 25.5978 12.3523C28.1974 13.3464 30.8997 13.7259 33.6621 13.6418C35.2165 13.5941 36.7661 13.4115 38.3173 13.2781C40.539 13.0876 42.6689 13.3067 44.6818 14.4087C45.1341 14.6564 45.8456 14.6024 46.388 14.4754C48.6001 13.9625 50.5751 12.8684 52.5343 11.7616C53.8388 11.0248 55.1117 10.2293 56.3893 9.44167C56.8163 9.17807 57.2306 8.951 57.6844 9.3321C58.1619 9.73226 58.0101 10.2007 57.7967 10.6803C56.1142 14.4611 53.1446 16.6747 49.2516 17.7513C48.5891 17.9339 47.906 18.061 47.2245 18.1547C46.6536 18.234 46.4528 18.5294 46.4718 19.0757C46.4955 19.8172 46.7991 20.4143 47.3415 20.8938C47.9487 21.4306 48.5733 21.9482 49.1805 22.4834C50.066 23.2614 50.4138 24.2031 50.2035 25.4051C49.9489 26.866 49.8003 28.346 49.6169 29.8196C49.473 30.9772 48.6381 31.822 47.4775 31.787C45.8836 31.7394 44.2912 31.5965 42.7021 31.4536C42.0775 31.398 41.8166 30.8883 42.1866 30.3944C42.6278 29.8069 43.1986 29.3194 43.7014 28.7779C43.858 28.6096 44.1047 28.3889 44.0825 28.2206C44.0383 27.8601 43.945 27.3504 43.6935 27.2011C43.0041 26.7914 42.6388 26.2055 42.4159 25.4909C41.9858 24.111 41.1636 23.5203 39.7325 23.6918C37.9916 23.9014 36.257 24.157 34.5223 24.419C32.7924 24.681 31.0499 24.9002 29.3453 25.2781C28.0835 25.5576 26.8881 26.1292 25.631 26.4484C24.396 26.7612 23.1231 26.9169 21.6668 27.1773L21.67 27.1789ZM4.02015 8.46827L4.02489 8.70646C4.36644 8.70646 4.70799 8.70328 5.04953 8.70646C5.91447 8.71599 6.78732 8.65406 7.64119 8.7541C9.55133 8.97958 10.6819 10.0689 10.8812 11.7426C11.0377 13.0606 11.18 14.3801 11.3698 15.6918C11.6655 17.7339 12.0908 19.7458 13.0143 21.6116C13.5772 22.7485 14.3061 23.7505 15.4573 24.3539C15.8573 24.5635 16.3032 24.6842 16.7286 24.8462L16.8788 24.7017C16.795 24.3698 16.7745 24.003 16.6147 23.7124C16.2843 23.1074 15.8874 22.5389 15.5063 21.9625C15.2928 21.6402 15.2406 21.3194 15.568 21.0701C15.8921 20.824 16.2115 20.9224 16.4392 21.2416C16.8061 21.7561 17.1745 22.2706 17.5002 22.8121C17.9541 23.5647 18.1122 24.3651 17.9209 25.2606C17.7991 25.8307 17.8133 26.4452 17.8576 27.0344C17.9288 27.9808 17.6078 28.7859 17.0907 29.5306C16.7634 30.0006 16.3017 30.2515 15.7119 30.1499C15.2406 30.0689 15.0398 30.3246 14.8738 30.7628C15.4857 30.7628 16.0487 30.7755 16.61 30.7597C17.7343 30.7295 17.845 30.5945 18.1375 29.4734C18.2893 28.8954 18.517 28.3174 18.8143 27.7997C19.7409 26.1801 20.5647 24.5207 21.0138 22.6977C21.2383 21.7878 21.1055 20.9288 20.5742 20.1443C20.3639 19.8331 20.084 19.5457 19.9686 19.2027C19.8958 18.9867 19.9907 18.5993 20.1552 18.4548C20.2817 18.3436 20.7465 18.396 20.8667 18.5389C21.9341 19.8125 22.6377 21.2273 22.157 22.955C21.8882 23.9204 21.5561 24.8684 21.2446 25.8434C21.4739 25.8434 21.7079 25.8561 21.9404 25.8418C24.3265 25.683 26.6066 25.1288 28.7524 24.0427C30.3526 23.2313 31.967 22.45 33.5783 21.6592C33.9389 21.483 34.2772 21.4718 34.4781 21.8926C34.6836 22.323 34.429 22.5612 34.0764 22.7327C33.7301 22.9026 33.3791 23.0645 33.0312 23.2297L33.0834 23.4171C34.9714 23.1439 36.8626 22.8851 38.749 22.5929C40.3555 22.3436 41.853 22.3198 42.9409 23.8664C43.1354 24.1427 43.6682 24.3222 44.0351 24.3063C44.8937 24.2714 45.7476 24.0951 46.603 23.9697C46.9778 23.9157 47.2909 23.9887 47.3842 24.4032C47.4759 24.8097 47.2498 25.0367 46.8766 25.1352C46.622 25.2019 46.3643 25.2559 46.1081 25.3162C46.0923 25.3797 46.0749 25.4433 46.0591 25.5068C46.3279 25.6624 46.6094 25.799 46.8624 25.9784C47.0869 26.1372 47.4253 26.3166 47.4616 26.5294C47.5929 27.3011 47.6909 28.0951 47.6577 28.8732C47.6324 29.4782 47.3383 30.0165 46.6125 30.1292C46.4607 30.1531 46.3295 30.2992 46.0607 30.4691C46.4781 30.5294 46.7406 30.5818 47.0062 30.6024C47.9929 30.685 48.3392 30.4071 48.4689 29.4306C48.6555 28.0173 48.7946 26.5977 49.0334 25.194C49.1662 24.4127 48.9449 23.841 48.3724 23.3519C47.7558 22.8263 47.0806 22.3516 46.5493 21.7481C46.0796 21.2146 45.6511 20.5794 45.4218 19.9141C45.153 19.1281 45.0929 18.2007 45.7998 17.5862C46.1982 17.24 46.8007 17.0574 47.3399 16.9605C50.447 16.4079 53.1778 15.1805 55.2176 12.6731C55.6288 12.1681 55.9656 11.6013 56.3356 11.0614C55.0437 11.6775 53.8641 12.3889 52.6576 13.0495C50.6858 14.1292 48.7029 15.2011 46.4829 15.6934C45.6859 15.8696 44.87 15.949 44.1236 15.498C42.3068 14.404 40.3223 14.2356 38.2904 14.4945C35.7177 14.8232 33.1466 14.9518 30.5597 14.7009C24.8119 14.1419 20.1994 11.5981 16.893 6.793C15.9633 5.44167 15.0936 4.04905 14.2018 2.67073C13.74 1.95934 13.1329 1.42579 12.2853 1.29717C10.3008 0.998638 8.54092 1.44485 7.11464 2.95815C6.781 3.31225 6.39043 3.6346 5.97456 3.88391C4.94359 4.5032 3.87783 5.06533 2.83896 5.67192C2.68558 5.76243 2.52271 5.96886 2.50531 6.1356C2.45946 6.59133 2.4895 7.0566 2.4895 7.58061C2.72353 7.54886 3.01131 7.51868 3.29752 7.47105C4.44234 7.27732 5.58558 7.07406 6.7304 6.88351C7.1431 6.81523 7.51311 6.8978 7.57478 7.3853C7.63645 7.87915 7.29964 8.00936 6.87429 8.06176C5.91922 8.18085 4.96889 8.32853 4.0154 8.46509L4.02015 8.46827ZM43.7236 25.7037C43.9355 25.8355 44.16 25.953 44.3561 26.1054C44.5759 26.2769 44.8526 26.4452 44.9554 26.6818C45.1261 27.0725 45.2147 27.5107 45.2685 27.9379C45.395 28.9319 45.0835 29.4417 44.1821 29.8847C44.0082 29.9704 43.8722 30.1308 43.6698 30.2992C44.3071 30.4405 44.7356 30.3928 45.0835 29.8625C45.2985 29.5354 45.6654 29.2321 46.0306 29.0971C46.5335 28.9113 46.5761 28.5715 46.5429 28.1681C46.505 27.7092 46.671 27.1836 46.0211 26.928C45.6986 26.8009 45.3459 26.5024 45.2131 26.1928C44.9158 25.4957 44.4272 25.4258 43.7236 25.7037ZM20.4872 27.3408C19.5812 28.5143 19.2491 29.2733 19.238 30.2976C19.4721 30.2849 19.7029 30.2737 19.9338 30.261C20.2832 30.2436 20.4872 30.08 20.4872 29.71C20.4872 28.8954 20.4872 28.0808 20.4872 27.3408Z" fill="#A7A7A7"/>
<path d="M11.1219 7.89518C11.5282 7.43945 12.0074 7.0774 12.2446 6.59467C12.632 5.80705 12.8834 4.94798 13.149 4.10638C13.2818 3.68875 13.2866 3.16473 13.9096 3.28383C14.5279 3.40134 14.3998 3.90312 14.3223 4.33186C14.0867 5.63397 13.6882 6.89161 12.7774 7.8666C12.3125 8.36521 11.6737 8.74314 11.0491 9.03691C10.4973 9.29733 10.1035 9.03055 9.947 8.42396C9.66238 7.31559 9.36353 6.20562 9.15322 5.08137C8.84488 3.44421 9.762 2.05318 11.2911 1.69749C11.699 1.60221 12.0121 1.6689 12.1212 2.10717C12.2208 2.51051 11.9916 2.70741 11.6215 2.83762C10.4562 3.24731 10.0972 3.90947 10.3676 5.12901C10.551 5.95791 10.7598 6.78204 10.9606 7.60618C10.9732 7.66176 11.0159 7.70939 11.1219 7.89518Z" fill="#A7A7A7"/>
<path d="M6.99219 4.04129C7.23254 3.87297 7.45707 3.59984 7.71798 3.56014C8.08641 3.50457 8.34099 3.79039 8.33941 4.17785C8.33782 4.56054 8.09906 4.85431 7.71956 4.7892C7.45865 4.74633 7.23412 4.48432 6.99377 4.32076V4.04129H6.99219Z" fill="#A7A7A7"/>
</g>
<defs>
<clipPath id="clip0_1263_3483">
<rect width="58" height="32" fill="white"/>
</clipPath>
</defs>
</svg>
