<svg width="60" height="34" viewBox="0 0 60 34" fill="none" xmlns="http://www.w3.org/2000/svg">
<mask id="path-1-outside-1_1668_4363" maskUnits="userSpaceOnUse" x="0" y="0" width="60" height="34" fill="black">
<rect fill="white" width="60" height="34"/>
<path d="M22.67 28.1789C22.67 28.895 22.6589 29.6398 22.6731 30.3845C22.7 31.7676 22.1845 32.3329 20.8278 32.4758C19.4411 32.6219 18.0591 32.8267 16.6723 32.9824C16.3245 33.0205 15.9623 32.9855 15.6113 32.949C14.7827 32.8633 14.3337 32.0614 14.7242 31.3039C15.148 30.4814 15.6825 29.7938 16.7814 29.9351C16.9396 29.9558 17.1847 29.7398 17.3001 29.5715C17.833 28.787 17.6606 27.9089 17.6068 27.0292C14.7068 26.4369 13.3106 24.3329 12.3698 21.7954C11.5523 19.5897 11.2123 17.2777 10.9451 14.9546C10.8613 14.2273 10.7838 13.4984 10.6889 12.7712C10.5845 11.9661 10.1465 11.342 9.37331 11.1864C8.38187 10.9847 7.34932 10.845 6.34523 10.8958C5.23203 10.9514 4.26115 10.8784 3.54326 9.91289C3.4816 9.82873 3.3551 9.76998 3.24915 9.74616C2.23558 9.51908 1.61889 8.83151 1.18089 7.94544C0.853569 7.28486 0.957931 6.93393 1.59675 6.57188C3.17483 5.67629 4.76557 4.79975 6.33732 3.89304C6.67254 3.69931 6.9967 3.44683 7.24812 3.15465C8.725 1.43969 11.7436 0.556796 13.8957 1.22214C14.8444 1.51591 15.5734 2.08915 16.111 2.90852C16.8494 4.03278 17.5626 5.17291 18.2963 6.29876C20.3661 9.47621 23.0052 11.9788 26.5978 13.3523C29.1974 14.3464 31.8997 14.7259 34.6621 14.6418C36.2165 14.5941 37.7661 14.4115 39.3173 14.2781C41.539 14.0876 43.6689 14.3067 45.6818 15.4087C46.1341 15.6564 46.8456 15.6024 47.388 15.4754C49.6001 14.9625 51.5751 13.8684 53.5343 12.7616C54.8388 12.0248 56.1117 11.2293 57.3893 10.4417C57.8163 10.1781 58.2306 9.951 58.6844 10.3321C59.1619 10.7323 59.0101 11.2007 58.7967 11.6803C57.1142 15.4611 54.1446 17.6747 50.2516 18.7513C49.5891 18.9339 48.906 19.061 48.2245 19.1547C47.6536 19.234 47.4528 19.5294 47.4718 20.0757C47.4955 20.8172 47.7991 21.4143 48.3415 21.8938C48.9487 22.4306 49.5733 22.9482 50.1805 23.4834C51.066 24.2614 51.4138 25.2031 51.2035 26.4051C50.9489 27.866 50.8003 29.346 50.6169 30.8196C50.473 31.9772 49.6381 32.822 48.4775 32.787C46.8836 32.7394 45.2912 32.5965 43.7021 32.4536C43.0775 32.398 42.8166 31.8883 43.1866 31.3944C43.6278 30.8069 44.1986 30.3194 44.7014 29.7779C44.858 29.6096 45.1047 29.3889 45.0825 29.2206C45.0383 28.8601 44.945 28.3504 44.6935 28.2011C44.0041 27.7914 43.6388 27.2055 43.4159 26.4909C42.9858 25.111 42.1636 24.5203 40.7325 24.6918C38.9916 24.9014 37.257 25.157 35.5223 25.419C33.7924 25.681 32.0499 25.9002 30.3453 26.2781C29.0835 26.5576 27.8881 27.1292 26.631 27.4484C25.396 27.7612 24.1231 27.9169 22.6668 28.1773L22.67 28.1789ZM5.02015 9.46827L5.02489 9.70646C5.36644 9.70646 5.70799 9.70328 6.04953 9.70646C6.91447 9.71599 7.78732 9.65406 8.64119 9.7541C10.5513 9.97958 11.6819 11.0689 11.8812 12.7426C12.0377 14.0606 12.18 15.3801 12.3698 16.6918C12.6655 18.7338 13.0908 20.7458 14.0143 22.6116C14.5772 23.7485 15.3061 24.7505 16.4573 25.3539C16.8573 25.5635 17.3032 25.6842 17.7286 25.8462L17.8788 25.7017C17.795 25.3698 17.7745 25.003 17.6147 24.7124C17.2843 24.1074 16.8874 23.5389 16.5063 22.9625C16.2928 22.6402 16.2406 22.3194 16.568 22.0701C16.8921 21.824 17.2115 21.9224 17.4392 22.2416C17.8061 22.7561 18.1745 23.2706 18.5002 23.8121C18.9541 24.5647 19.1122 25.3651 18.9209 26.2606C18.7991 26.8307 18.8133 27.4452 18.8576 28.0344C18.9288 28.9808 18.6078 29.7859 18.0907 30.5306C17.7634 31.0006 17.3017 31.2515 16.7119 31.1499C16.2406 31.0689 16.0398 31.3246 15.8738 31.7628C16.4857 31.7628 17.0487 31.7755 17.61 31.7597C18.7343 31.7295 18.845 31.5945 19.1375 30.4734C19.2893 29.8954 19.517 29.3174 19.8143 28.7997C20.7409 27.1801 21.5647 25.5207 22.0138 23.6977C22.2383 22.7878 22.1055 21.9288 21.5742 21.1443C21.3639 20.8331 21.084 20.5457 20.9686 20.2027C20.8958 19.9867 20.9907 19.5993 21.1552 19.4548C21.2817 19.3436 21.7465 19.396 21.8667 19.5389C22.9341 20.8125 23.6377 22.2273 23.157 23.955C22.8882 24.9204 22.5561 25.8684 22.2446 26.8434C22.4739 26.8434 22.7079 26.8561 22.9404 26.8418C25.3265 26.683 27.6066 26.1288 29.7524 25.0427C31.3526 24.2313 32.967 23.45 34.5783 22.6592C34.9389 22.483 35.2772 22.4718 35.4781 22.8926C35.6836 23.323 35.429 23.5612 35.0764 23.7327C34.7301 23.9026 34.3791 24.0645 34.0312 24.2297L34.0834 24.4171C35.9714 24.1439 37.8626 23.8851 39.749 23.5929C41.3555 23.3436 42.853 23.3198 43.9409 24.8664C44.1354 25.1427 44.6682 25.3222 45.0351 25.3063C45.8937 25.2714 46.7476 25.0951 47.603 24.9697C47.9778 24.9157 48.2909 24.9887 48.3842 25.4032C48.4759 25.8097 48.2498 26.0367 47.8766 26.1352C47.622 26.2019 47.3643 26.2559 47.1081 26.3162C47.0923 26.3797 47.0749 26.4433 47.0591 26.5068C47.3279 26.6624 47.6094 26.799 47.8624 26.9784C48.0869 27.1372 48.4253 27.3166 48.4616 27.5294C48.5929 28.3011 48.6909 29.0951 48.6577 29.8732C48.6324 30.4782 48.3383 31.0165 47.6125 31.1292C47.4607 31.1531 47.3295 31.2992 47.0607 31.4691C47.4781 31.5294 47.7406 31.5818 48.0062 31.6024C48.9929 31.685 49.3392 31.4071 49.4689 30.4306C49.6555 29.0173 49.7946 27.5977 50.0334 26.194C50.1662 25.4127 49.9449 24.841 49.3724 24.3519C48.7558 23.8263 48.0806 23.3516 47.5493 22.7481C47.0796 22.2146 46.6511 21.5794 46.4218 20.9141C46.153 20.1281 46.0929 19.2007 46.7998 18.5862C47.1982 18.24 47.8007 18.0574 48.3399 17.9605C51.447 17.4079 54.1778 16.1805 56.2176 13.6731C56.6288 13.1681 56.9656 12.6013 57.3356 12.0614C56.0437 12.6775 54.8641 13.3889 53.6576 14.0495C51.6858 15.1292 49.7029 16.2011 47.4829 16.6934C46.6859 16.8696 45.87 16.949 45.1236 16.498C43.3068 15.404 41.3223 15.2356 39.2904 15.4945C36.7177 15.8232 34.1466 15.9518 31.5597 15.7009C25.8119 15.1419 21.1994 12.5981 17.893 7.793C16.9633 6.44167 16.0936 5.04905 15.2018 3.67073C14.74 2.95934 14.1329 2.42579 13.2853 2.29717C11.3008 1.99864 9.54092 2.44485 8.11464 3.95815C7.781 4.31225 7.39043 4.6346 6.97456 4.88391C5.94359 5.5032 4.87783 6.06533 3.83896 6.67192C3.68558 6.76243 3.52271 6.96886 3.50531 7.1356C3.45946 7.59133 3.4895 8.0566 3.4895 8.58061C3.72353 8.54886 4.01131 8.51868 4.29752 8.47105C5.44234 8.27732 6.58558 8.07406 7.7304 7.88351C8.1431 7.81523 8.51311 7.8978 8.57478 8.3853C8.63645 8.87914 8.29964 9.00936 7.87429 9.06176C6.91922 9.18085 5.96889 9.32853 5.0154 9.46509L5.02015 9.46827ZM44.7236 26.7037C44.9355 26.8355 45.16 26.953 45.3561 27.1054C45.5759 27.2769 45.8526 27.4452 45.9554 27.6818C46.1261 28.0725 46.2147 28.5107 46.2685 28.9379C46.395 29.9319 46.0835 30.4417 45.1821 30.8847C45.0082 30.9704 44.8722 31.1308 44.6698 31.2992C45.3071 31.4405 45.7356 31.3928 46.0835 30.8625C46.2985 30.5354 46.6654 30.2321 47.0306 30.0971C47.5335 29.9113 47.5761 29.5715 47.5429 29.1681C47.505 28.7092 47.671 28.1836 47.0211 27.928C46.6986 27.8009 46.3459 27.5024 46.2131 27.1928C45.9158 26.4957 45.4272 26.4258 44.7236 26.7037ZM21.4872 28.3408C20.5812 29.5143 20.2491 30.2733 20.238 31.2976C20.4721 31.2849 20.7029 31.2737 20.9338 31.261C21.2832 31.2436 21.4872 31.08 21.4872 30.71C21.4872 29.8954 21.4872 29.0808 21.4872 28.3408Z"/>
</mask>
<path d="M22.67 28.1789C22.67 28.895 22.6589 29.6398 22.6731 30.3845C22.7 31.7676 22.1845 32.3329 20.8278 32.4758C19.4411 32.6219 18.0591 32.8267 16.6723 32.9824C16.3245 33.0205 15.9623 32.9855 15.6113 32.949C14.7827 32.8633 14.3337 32.0614 14.7242 31.3039C15.148 30.4814 15.6825 29.7938 16.7814 29.9351C16.9396 29.9558 17.1847 29.7398 17.3001 29.5715C17.833 28.787 17.6606 27.9089 17.6068 27.0292C14.7068 26.4369 13.3106 24.3329 12.3698 21.7954C11.5523 19.5897 11.2123 17.2777 10.9451 14.9546C10.8613 14.2273 10.7838 13.4984 10.6889 12.7712C10.5845 11.9661 10.1465 11.342 9.37331 11.1864C8.38187 10.9847 7.34932 10.845 6.34523 10.8958C5.23203 10.9514 4.26115 10.8784 3.54326 9.91289C3.4816 9.82873 3.3551 9.76998 3.24915 9.74616C2.23558 9.51908 1.61889 8.83151 1.18089 7.94544C0.853569 7.28486 0.957931 6.93393 1.59675 6.57188C3.17483 5.67629 4.76557 4.79975 6.33732 3.89304C6.67254 3.69931 6.9967 3.44683 7.24812 3.15465C8.725 1.43969 11.7436 0.556796 13.8957 1.22214C14.8444 1.51591 15.5734 2.08915 16.111 2.90852C16.8494 4.03278 17.5626 5.17291 18.2963 6.29876C20.3661 9.47621 23.0052 11.9788 26.5978 13.3523C29.1974 14.3464 31.8997 14.7259 34.6621 14.6418C36.2165 14.5941 37.7661 14.4115 39.3173 14.2781C41.539 14.0876 43.6689 14.3067 45.6818 15.4087C46.1341 15.6564 46.8456 15.6024 47.388 15.4754C49.6001 14.9625 51.5751 13.8684 53.5343 12.7616C54.8388 12.0248 56.1117 11.2293 57.3893 10.4417C57.8163 10.1781 58.2306 9.951 58.6844 10.3321C59.1619 10.7323 59.0101 11.2007 58.7967 11.6803C57.1142 15.4611 54.1446 17.6747 50.2516 18.7513C49.5891 18.9339 48.906 19.061 48.2245 19.1547C47.6536 19.234 47.4528 19.5294 47.4718 20.0757C47.4955 20.8172 47.7991 21.4143 48.3415 21.8938C48.9487 22.4306 49.5733 22.9482 50.1805 23.4834C51.066 24.2614 51.4138 25.2031 51.2035 26.4051C50.9489 27.866 50.8003 29.346 50.6169 30.8196C50.473 31.9772 49.6381 32.822 48.4775 32.787C46.8836 32.7394 45.2912 32.5965 43.7021 32.4536C43.0775 32.398 42.8166 31.8883 43.1866 31.3944C43.6278 30.8069 44.1986 30.3194 44.7014 29.7779C44.858 29.6096 45.1047 29.3889 45.0825 29.2206C45.0383 28.8601 44.945 28.3504 44.6935 28.2011C44.0041 27.7914 43.6388 27.2055 43.4159 26.4909C42.9858 25.111 42.1636 24.5203 40.7325 24.6918C38.9916 24.9014 37.257 25.157 35.5223 25.419C33.7924 25.681 32.0499 25.9002 30.3453 26.2781C29.0835 26.5576 27.8881 27.1292 26.631 27.4484C25.396 27.7612 24.1231 27.9169 22.6668 28.1773L22.67 28.1789ZM5.02015 9.46827L5.02489 9.70646C5.36644 9.70646 5.70799 9.70328 6.04953 9.70646C6.91447 9.71599 7.78732 9.65406 8.64119 9.7541C10.5513 9.97958 11.6819 11.0689 11.8812 12.7426C12.0377 14.0606 12.18 15.3801 12.3698 16.6918C12.6655 18.7338 13.0908 20.7458 14.0143 22.6116C14.5772 23.7485 15.3061 24.7505 16.4573 25.3539C16.8573 25.5635 17.3032 25.6842 17.7286 25.8462L17.8788 25.7017C17.795 25.3698 17.7745 25.003 17.6147 24.7124C17.2843 24.1074 16.8874 23.5389 16.5063 22.9625C16.2928 22.6402 16.2406 22.3194 16.568 22.0701C16.8921 21.824 17.2115 21.9224 17.4392 22.2416C17.8061 22.7561 18.1745 23.2706 18.5002 23.8121C18.9541 24.5647 19.1122 25.3651 18.9209 26.2606C18.7991 26.8307 18.8133 27.4452 18.8576 28.0344C18.9288 28.9808 18.6078 29.7859 18.0907 30.5306C17.7634 31.0006 17.3017 31.2515 16.7119 31.1499C16.2406 31.0689 16.0398 31.3246 15.8738 31.7628C16.4857 31.7628 17.0487 31.7755 17.61 31.7597C18.7343 31.7295 18.845 31.5945 19.1375 30.4734C19.2893 29.8954 19.517 29.3174 19.8143 28.7997C20.7409 27.1801 21.5647 25.5207 22.0138 23.6977C22.2383 22.7878 22.1055 21.9288 21.5742 21.1443C21.3639 20.8331 21.084 20.5457 20.9686 20.2027C20.8958 19.9867 20.9907 19.5993 21.1552 19.4548C21.2817 19.3436 21.7465 19.396 21.8667 19.5389C22.9341 20.8125 23.6377 22.2273 23.157 23.955C22.8882 24.9204 22.5561 25.8684 22.2446 26.8434C22.4739 26.8434 22.7079 26.8561 22.9404 26.8418C25.3265 26.683 27.6066 26.1288 29.7524 25.0427C31.3526 24.2313 32.967 23.45 34.5783 22.6592C34.9389 22.483 35.2772 22.4718 35.4781 22.8926C35.6836 23.323 35.429 23.5612 35.0764 23.7327C34.7301 23.9026 34.3791 24.0645 34.0312 24.2297L34.0834 24.4171C35.9714 24.1439 37.8626 23.8851 39.749 23.5929C41.3555 23.3436 42.853 23.3198 43.9409 24.8664C44.1354 25.1427 44.6682 25.3222 45.0351 25.3063C45.8937 25.2714 46.7476 25.0951 47.603 24.9697C47.9778 24.9157 48.2909 24.9887 48.3842 25.4032C48.4759 25.8097 48.2498 26.0367 47.8766 26.1352C47.622 26.2019 47.3643 26.2559 47.1081 26.3162C47.0923 26.3797 47.0749 26.4433 47.0591 26.5068C47.3279 26.6624 47.6094 26.799 47.8624 26.9784C48.0869 27.1372 48.4253 27.3166 48.4616 27.5294C48.5929 28.3011 48.6909 29.0951 48.6577 29.8732C48.6324 30.4782 48.3383 31.0165 47.6125 31.1292C47.4607 31.1531 47.3295 31.2992 47.0607 31.4691C47.4781 31.5294 47.7406 31.5818 48.0062 31.6024C48.9929 31.685 49.3392 31.4071 49.4689 30.4306C49.6555 29.0173 49.7946 27.5977 50.0334 26.194C50.1662 25.4127 49.9449 24.841 49.3724 24.3519C48.7558 23.8263 48.0806 23.3516 47.5493 22.7481C47.0796 22.2146 46.6511 21.5794 46.4218 20.9141C46.153 20.1281 46.0929 19.2007 46.7998 18.5862C47.1982 18.24 47.8007 18.0574 48.3399 17.9605C51.447 17.4079 54.1778 16.1805 56.2176 13.6731C56.6288 13.1681 56.9656 12.6013 57.3356 12.0614C56.0437 12.6775 54.8641 13.3889 53.6576 14.0495C51.6858 15.1292 49.7029 16.2011 47.4829 16.6934C46.6859 16.8696 45.87 16.949 45.1236 16.498C43.3068 15.404 41.3223 15.2356 39.2904 15.4945C36.7177 15.8232 34.1466 15.9518 31.5597 15.7009C25.8119 15.1419 21.1994 12.5981 17.893 7.793C16.9633 6.44167 16.0936 5.04905 15.2018 3.67073C14.74 2.95934 14.1329 2.42579 13.2853 2.29717C11.3008 1.99864 9.54092 2.44485 8.11464 3.95815C7.781 4.31225 7.39043 4.6346 6.97456 4.88391C5.94359 5.5032 4.87783 6.06533 3.83896 6.67192C3.68558 6.76243 3.52271 6.96886 3.50531 7.1356C3.45946 7.59133 3.4895 8.0566 3.4895 8.58061C3.72353 8.54886 4.01131 8.51868 4.29752 8.47105C5.44234 8.27732 6.58558 8.07406 7.7304 7.88351C8.1431 7.81523 8.51311 7.8978 8.57478 8.3853C8.63645 8.87914 8.29964 9.00936 7.87429 9.06176C6.91922 9.18085 5.96889 9.32853 5.0154 9.46509L5.02015 9.46827ZM44.7236 26.7037C44.9355 26.8355 45.16 26.953 45.3561 27.1054C45.5759 27.2769 45.8526 27.4452 45.9554 27.6818C46.1261 28.0725 46.2147 28.5107 46.2685 28.9379C46.395 29.9319 46.0835 30.4417 45.1821 30.8847C45.0082 30.9704 44.8722 31.1308 44.6698 31.2992C45.3071 31.4405 45.7356 31.3928 46.0835 30.8625C46.2985 30.5354 46.6654 30.2321 47.0306 30.0971C47.5335 29.9113 47.5761 29.5715 47.5429 29.1681C47.505 28.7092 47.671 28.1836 47.0211 27.928C46.6986 27.8009 46.3459 27.5024 46.2131 27.1928C45.9158 26.4957 45.4272 26.4258 44.7236 26.7037ZM21.4872 28.3408C20.5812 29.5143 20.2491 30.2733 20.238 31.2976C20.4721 31.2849 20.7029 31.2737 20.9338 31.261C21.2832 31.2436 21.4872 31.08 21.4872 30.71C21.4872 29.8954 21.4872 29.0808 21.4872 28.3408Z" fill="#A7A7A7"/>
<path d="M22.67 28.1789C22.67 28.895 22.6589 29.6398 22.6731 30.3845C22.7 31.7676 22.1845 32.3329 20.8278 32.4758C19.4411 32.6219 18.0591 32.8267 16.6723 32.9824C16.3245 33.0205 15.9623 32.9855 15.6113 32.949C14.7827 32.8633 14.3337 32.0614 14.7242 31.3039C15.148 30.4814 15.6825 29.7938 16.7814 29.9351C16.9396 29.9558 17.1847 29.7398 17.3001 29.5715C17.833 28.787 17.6606 27.9089 17.6068 27.0292C14.7068 26.4369 13.3106 24.3329 12.3698 21.7954C11.5523 19.5897 11.2123 17.2777 10.9451 14.9546C10.8613 14.2273 10.7838 13.4984 10.6889 12.7712C10.5845 11.9661 10.1465 11.342 9.37331 11.1864C8.38187 10.9847 7.34932 10.845 6.34523 10.8958C5.23203 10.9514 4.26115 10.8784 3.54326 9.91289C3.4816 9.82873 3.3551 9.76998 3.24915 9.74616C2.23558 9.51908 1.61889 8.83151 1.18089 7.94544C0.853569 7.28486 0.957931 6.93393 1.59675 6.57188C3.17483 5.67629 4.76557 4.79975 6.33732 3.89304C6.67254 3.69931 6.9967 3.44683 7.24812 3.15465C8.725 1.43969 11.7436 0.556796 13.8957 1.22214C14.8444 1.51591 15.5734 2.08915 16.111 2.90852C16.8494 4.03278 17.5626 5.17291 18.2963 6.29876C20.3661 9.47621 23.0052 11.9788 26.5978 13.3523C29.1974 14.3464 31.8997 14.7259 34.6621 14.6418C36.2165 14.5941 37.7661 14.4115 39.3173 14.2781C41.539 14.0876 43.6689 14.3067 45.6818 15.4087C46.1341 15.6564 46.8456 15.6024 47.388 15.4754C49.6001 14.9625 51.5751 13.8684 53.5343 12.7616C54.8388 12.0248 56.1117 11.2293 57.3893 10.4417C57.8163 10.1781 58.2306 9.951 58.6844 10.3321C59.1619 10.7323 59.0101 11.2007 58.7967 11.6803C57.1142 15.4611 54.1446 17.6747 50.2516 18.7513C49.5891 18.9339 48.906 19.061 48.2245 19.1547C47.6536 19.234 47.4528 19.5294 47.4718 20.0757C47.4955 20.8172 47.7991 21.4143 48.3415 21.8938C48.9487 22.4306 49.5733 22.9482 50.1805 23.4834C51.066 24.2614 51.4138 25.2031 51.2035 26.4051C50.9489 27.866 50.8003 29.346 50.6169 30.8196C50.473 31.9772 49.6381 32.822 48.4775 32.787C46.8836 32.7394 45.2912 32.5965 43.7021 32.4536C43.0775 32.398 42.8166 31.8883 43.1866 31.3944C43.6278 30.8069 44.1986 30.3194 44.7014 29.7779C44.858 29.6096 45.1047 29.3889 45.0825 29.2206C45.0383 28.8601 44.945 28.3504 44.6935 28.2011C44.0041 27.7914 43.6388 27.2055 43.4159 26.4909C42.9858 25.111 42.1636 24.5203 40.7325 24.6918C38.9916 24.9014 37.257 25.157 35.5223 25.419C33.7924 25.681 32.0499 25.9002 30.3453 26.2781C29.0835 26.5576 27.8881 27.1292 26.631 27.4484C25.396 27.7612 24.1231 27.9169 22.6668 28.1773L22.67 28.1789ZM5.02015 9.46827L5.02489 9.70646C5.36644 9.70646 5.70799 9.70328 6.04953 9.70646C6.91447 9.71599 7.78732 9.65406 8.64119 9.7541C10.5513 9.97958 11.6819 11.0689 11.8812 12.7426C12.0377 14.0606 12.18 15.3801 12.3698 16.6918C12.6655 18.7338 13.0908 20.7458 14.0143 22.6116C14.5772 23.7485 15.3061 24.7505 16.4573 25.3539C16.8573 25.5635 17.3032 25.6842 17.7286 25.8462L17.8788 25.7017C17.795 25.3698 17.7745 25.003 17.6147 24.7124C17.2843 24.1074 16.8874 23.5389 16.5063 22.9625C16.2928 22.6402 16.2406 22.3194 16.568 22.0701C16.8921 21.824 17.2115 21.9224 17.4392 22.2416C17.8061 22.7561 18.1745 23.2706 18.5002 23.8121C18.9541 24.5647 19.1122 25.3651 18.9209 26.2606C18.7991 26.8307 18.8133 27.4452 18.8576 28.0344C18.9288 28.9808 18.6078 29.7859 18.0907 30.5306C17.7634 31.0006 17.3017 31.2515 16.7119 31.1499C16.2406 31.0689 16.0398 31.3246 15.8738 31.7628C16.4857 31.7628 17.0487 31.7755 17.61 31.7597C18.7343 31.7295 18.845 31.5945 19.1375 30.4734C19.2893 29.8954 19.517 29.3174 19.8143 28.7997C20.7409 27.1801 21.5647 25.5207 22.0138 23.6977C22.2383 22.7878 22.1055 21.9288 21.5742 21.1443C21.3639 20.8331 21.084 20.5457 20.9686 20.2027C20.8958 19.9867 20.9907 19.5993 21.1552 19.4548C21.2817 19.3436 21.7465 19.396 21.8667 19.5389C22.9341 20.8125 23.6377 22.2273 23.157 23.955C22.8882 24.9204 22.5561 25.8684 22.2446 26.8434C22.4739 26.8434 22.7079 26.8561 22.9404 26.8418C25.3265 26.683 27.6066 26.1288 29.7524 25.0427C31.3526 24.2313 32.967 23.45 34.5783 22.6592C34.9389 22.483 35.2772 22.4718 35.4781 22.8926C35.6836 23.323 35.429 23.5612 35.0764 23.7327C34.7301 23.9026 34.3791 24.0645 34.0312 24.2297L34.0834 24.4171C35.9714 24.1439 37.8626 23.8851 39.749 23.5929C41.3555 23.3436 42.853 23.3198 43.9409 24.8664C44.1354 25.1427 44.6682 25.3222 45.0351 25.3063C45.8937 25.2714 46.7476 25.0951 47.603 24.9697C47.9778 24.9157 48.2909 24.9887 48.3842 25.4032C48.4759 25.8097 48.2498 26.0367 47.8766 26.1352C47.622 26.2019 47.3643 26.2559 47.1081 26.3162C47.0923 26.3797 47.0749 26.4433 47.0591 26.5068C47.3279 26.6624 47.6094 26.799 47.8624 26.9784C48.0869 27.1372 48.4253 27.3166 48.4616 27.5294C48.5929 28.3011 48.6909 29.0951 48.6577 29.8732C48.6324 30.4782 48.3383 31.0165 47.6125 31.1292C47.4607 31.1531 47.3295 31.2992 47.0607 31.4691C47.4781 31.5294 47.7406 31.5818 48.0062 31.6024C48.9929 31.685 49.3392 31.4071 49.4689 30.4306C49.6555 29.0173 49.7946 27.5977 50.0334 26.194C50.1662 25.4127 49.9449 24.841 49.3724 24.3519C48.7558 23.8263 48.0806 23.3516 47.5493 22.7481C47.0796 22.2146 46.6511 21.5794 46.4218 20.9141C46.153 20.1281 46.0929 19.2007 46.7998 18.5862C47.1982 18.24 47.8007 18.0574 48.3399 17.9605C51.447 17.4079 54.1778 16.1805 56.2176 13.6731C56.6288 13.1681 56.9656 12.6013 57.3356 12.0614C56.0437 12.6775 54.8641 13.3889 53.6576 14.0495C51.6858 15.1292 49.7029 16.2011 47.4829 16.6934C46.6859 16.8696 45.87 16.949 45.1236 16.498C43.3068 15.404 41.3223 15.2356 39.2904 15.4945C36.7177 15.8232 34.1466 15.9518 31.5597 15.7009C25.8119 15.1419 21.1994 12.5981 17.893 7.793C16.9633 6.44167 16.0936 5.04905 15.2018 3.67073C14.74 2.95934 14.1329 2.42579 13.2853 2.29717C11.3008 1.99864 9.54092 2.44485 8.11464 3.95815C7.781 4.31225 7.39043 4.6346 6.97456 4.88391C5.94359 5.5032 4.87783 6.06533 3.83896 6.67192C3.68558 6.76243 3.52271 6.96886 3.50531 7.1356C3.45946 7.59133 3.4895 8.0566 3.4895 8.58061C3.72353 8.54886 4.01131 8.51868 4.29752 8.47105C5.44234 8.27732 6.58558 8.07406 7.7304 7.88351C8.1431 7.81523 8.51311 7.8978 8.57478 8.3853C8.63645 8.87914 8.29964 9.00936 7.87429 9.06176C6.91922 9.18085 5.96889 9.32853 5.0154 9.46509L5.02015 9.46827ZM44.7236 26.7037C44.9355 26.8355 45.16 26.953 45.3561 27.1054C45.5759 27.2769 45.8526 27.4452 45.9554 27.6818C46.1261 28.0725 46.2147 28.5107 46.2685 28.9379C46.395 29.9319 46.0835 30.4417 45.1821 30.8847C45.0082 30.9704 44.8722 31.1308 44.6698 31.2992C45.3071 31.4405 45.7356 31.3928 46.0835 30.8625C46.2985 30.5354 46.6654 30.2321 47.0306 30.0971C47.5335 29.9113 47.5761 29.5715 47.5429 29.1681C47.505 28.7092 47.671 28.1836 47.0211 27.928C46.6986 27.8009 46.3459 27.5024 46.2131 27.1928C45.9158 26.4957 45.4272 26.4258 44.7236 26.7037ZM21.4872 28.3408C20.5812 29.5143 20.2491 30.2733 20.238 31.2976C20.4721 31.2849 20.7029 31.2737 20.9338 31.261C21.2832 31.2436 21.4872 31.08 21.4872 30.71C21.4872 29.8954 21.4872 29.0808 21.4872 28.3408Z" stroke="#A7A7A7" stroke-width="0.4" mask="url(#path-1-outside-1_1668_4363)"/>
<path d="M13.0281 8.23552C13.4345 7.77978 13.9136 7.41773 14.1508 6.935C14.5382 6.14738 14.7896 5.28831 15.0553 4.44671C15.1881 4.02908 15.1928 3.50507 15.8158 3.62416C16.4341 3.74167 16.306 4.24346 16.2286 4.6722C15.9929 5.9743 15.5945 7.23194 14.6837 8.20693C14.2188 8.70554 13.58 9.08347 12.9554 9.37724C12.4035 9.63766 12.0098 9.37089 11.8533 8.7643C11.5686 7.65592 11.2698 6.54596 11.0595 5.4217C10.7511 3.78454 11.6682 2.39351 13.1973 2.03782C13.6053 1.94254 13.9184 2.00923 14.0275 2.4475C14.1271 2.85084 13.8978 3.04774 13.5278 3.17795C12.3624 3.58764 12.0035 4.24981 12.2739 5.46934C12.4573 6.29824 12.666 7.12238 12.8668 7.94651C12.8795 8.00209 12.9222 8.04973 13.0281 8.23552Z" fill="#A7A7A7"/>
<path d="M8.6971 4.95001C8.47836 4.94916 8.295 5.0209 8.16416 5.15102C8.03351 5.28095 7.95934 5.46499 7.9509 5.68149L8.00083 5.68343L7.9509 5.68144C7.94166 5.91319 8.00376 6.11166 8.1316 6.2546C8.25968 6.3978 8.44879 6.47972 8.68248 6.48748C8.91678 6.49526 9.10118 6.42495 9.23371 6.28974C9.36509 6.15572 9.44033 5.96322 9.46849 5.73557L9.44235 5.73234L9.46887 5.73108V5.72943L9.44896 5.72821L9.46864 5.72633C9.44627 5.4918 9.37362 5.297 9.24368 5.16043C9.1128 5.02288 8.92917 4.95003 8.6971 4.95001ZM8.6971 4.95001C8.69707 4.95001 8.69704 4.95001 8.697 4.95001V5.00001L8.6972 4.95001C8.69717 4.95001 8.69713 4.95001 8.6971 4.95001Z" fill="#A7A7A7" stroke="#A7A7A7" stroke-width="0.1"/>
</svg>
