<svg width="162" height="170" viewBox="0 0 162 170" fill="none" xmlns="http://www.w3.org/2000/svg">
<g clip-path="url(#clip0_636_2706)">
<path d="M117.761 131.559C117.863 132.206 118.656 132.471 119.155 132.03C120.183 131.088 121.138 130.25 121.989 129.309C128.127 122.471 133.031 114.883 135.938 106.074C137.451 101.471 138.699 96.8237 139.433 92.0296C140.152 87.3384 140.431 82.6178 140.299 77.8678C140.255 76.0149 140.916 75.4414 142.795 75.7061C145.805 76.1325 148.478 77.3825 150.857 79.2208C155.379 82.7061 157.655 87.412 157.978 93.0737C158.139 95.8531 157.904 98.6031 157.214 101.309C157.185 101.412 157.17 101.515 157.156 101.618C157.082 102.221 157.684 102.691 158.242 102.471C158.609 102.324 158.932 102.074 159.285 101.883C160.357 101.309 161.208 101.603 161.487 102.794C161.766 103.956 161.986 105.147 161.986 106.338C161.972 110.162 161.032 113.794 159.549 117.294C157.464 122.191 154.513 126.53 151.033 130.53C150.768 130.838 150.475 131.103 150.255 131.441C150.108 131.662 149.99 131.985 150.034 132.235C150.064 132.368 150.445 132.471 150.695 132.515C150.989 132.559 151.297 132.544 151.591 132.544C152.207 132.53 152.677 132.794 152.765 133.397C152.883 134.309 153.015 135.265 152.868 136.147C152.398 139.074 150.974 141.603 149.271 143.985C146.833 147.383 143.794 150.147 140.49 152.677C134.279 157.441 127.613 161.441 120.404 164.471C116.483 166.118 112.489 167.647 108.246 168.309C105.75 168.691 103.239 169.015 100.713 169.206C94.2674 169.677 87.8068 169.633 81.3462 169.691C74.4597 169.75 67.5586 170.044 60.6722 170.03C52.9782 170 45.2842 169.838 37.6195 169.191C33.9487 168.883 30.2339 168.956 26.5484 168.883C23.9494 168.838 21.3505 168.75 18.825 168C18.223 167.824 17.621 167.603 17.0483 167.353C14.2291 166.118 13.0838 163.677 12.4231 160.883C12.012 159.088 12.3203 157.353 12.9223 155.677C13.8474 153.088 15.1101 150.662 17.063 148.677C18.3992 147.324 19.706 145.941 21.0862 144.633C22.5692 143.235 23.3327 141.559 23.6117 139.574C24.0522 136.294 23.8173 133.059 23.2593 129.824C22.3049 124.338 21.4239 118.838 20.9687 113.28C20.4989 107.427 20.1905 101.559 20.6604 95.6914C21.3065 87.6031 22.5545 79.6178 24.5221 71.7355C24.757 70.809 24.9626 69.8531 25.0066 68.8972C25.08 67.309 24.6102 66.7943 23.0684 66.6031C18.1055 65.9855 13.4656 64.412 9.16343 61.8973C2.86432 58.1914 -0.351301 52.7502 0.0304625 45.3972C0.177295 42.559 0.79399 39.7796 2.96711 37.7355C4.17113 36.6031 5.56604 35.6472 6.99031 34.809C9.36899 33.4119 11.8211 32.1325 14.2879 30.8972C16.6372 29.7208 18.223 27.8678 19.3389 25.559C21.5267 21.0296 24.9773 17.8531 29.5731 15.912C31.0708 15.2796 32.6125 14.7208 34.1543 14.1767C34.5507 14.0296 34.7269 13.8384 34.8591 13.4561C35.975 10.1914 37.7663 7.32371 40.0569 4.76489C41.5987 3.0443 43.4634 1.69136 45.5338 0.632537C47.9712 -0.632169 49.9241 0.0884191 51.8035 2.0296C54.0354 4.32371 55.4596 7.08842 56.4287 10.1178C56.5021 10.3384 56.5462 10.5737 56.649 10.7796C56.9133 11.309 57.4272 11.4855 57.9851 11.2355C58.2935 11.1031 58.5578 10.8972 58.8515 10.7502C61.9496 9.07371 65.1652 7.76489 68.7773 7.73548C70.833 7.72077 72.36 8.20607 73.197 11.2061C73.6668 12.8972 74.0045 14.6472 74.2395 16.3972C74.8268 20.9119 74.9149 25.4267 73.9164 29.9267C73.6521 31.0884 73.9752 32.2649 74.5185 33.309C76.0455 36.2649 76.7356 39.412 77.1027 42.6914C77.4698 46.0443 76.9852 49.3531 76.7356 52.662C76.5594 55.0149 76.2217 57.3678 76.1483 59.7355C76.0896 61.5884 76.3245 63.4561 76.5007 65.309C76.5594 65.8384 76.8531 66.3826 77.1174 66.8678C79.9219 72.2061 83.5046 77.0149 87.0432 81.8531C90.3763 86.3973 93.7094 90.9414 97.3949 95.2061C99.1275 97.1914 100.963 99.0737 102.637 101.118C105.72 104.868 108.892 108.574 111.329 112.809C114.06 117.544 116.336 122.456 117.32 127.868C117.54 129.074 117.614 130.309 117.79 131.53L117.761 131.559Z" fill="#D97D4C"/>
<path d="M46.4 80.3383C39.91 80.3236 33.5081 79.603 27.2237 77.9118C26.0343 77.5883 24.9037 77.1177 23.7291 76.75C22.3342 76.3089 21.7175 75.2795 21.6 73.9265C21.4385 72 21.6587 70.1324 22.4957 68.3677C23.1858 66.9118 23.6703 66.7206 25.2414 66.8383C27.1943 67 29.1619 67.103 31.1294 67.1324C35.1526 67.1765 39.1905 67.2206 43.2284 67.1324C49.3513 67 55.3714 66.1618 61.2888 64.5736C63.2857 64.0295 65.2826 63.5295 67.2648 62.9412C69.8931 62.1618 72.3452 60.9706 74.7533 59.6765C74.9882 59.5442 75.2231 59.4118 75.4581 59.2942C77.0732 58.5147 77.9102 58.6324 78.8058 60.2059C80.3916 63 81.6544 65.9265 81.2873 69.2942C81.2139 69.9412 81.0377 70.4706 80.5385 70.853C79.4225 71.6912 78.336 72.603 77.1319 73.2942C71.7726 76.3383 66.0168 78.2059 59.9232 79.1324C56.4286 79.6618 52.9487 80.2795 49.41 80.353C48.4116 80.3677 47.4131 80.353 46.4146 80.353L46.4 80.3383Z" fill="#4FA737"/>
<path d="M26.1523 81.9411C26.1523 78.8088 28.5898 76.147 31.5264 76.0882C33.6848 76.0441 35.2266 77.1323 36.225 78.9264C37.2088 80.7058 36.9886 82.5441 35.858 84.2206C34.1253 86.7941 30.4545 87.4706 28.0171 85.7206C26.725 84.7941 26.1523 83.5147 26.1523 81.9411Z" fill="#F2E64C"/>
<path d="M25.0358 30.1178C25.3882 30.5148 25.491 31.0737 25.3295 31.5737C25.0505 32.456 24.3898 33.1766 23.6997 33.3972C22.7599 33.706 21.8936 33.0001 22.0698 32.0295C22.2167 31.2207 22.6278 30.5295 23.3032 30.0443C23.7731 29.706 24.3457 29.6325 24.8156 29.9266C24.9037 29.9854 24.9771 30.0442 25.0505 30.1178H25.0358Z" fill="#212121"/>
<path d="M40.6882 35.9266C41.0406 36.3237 41.1434 36.8825 40.9819 37.3825C40.7029 38.2649 40.0421 38.9854 39.352 39.206C38.4123 39.5149 37.546 38.809 37.7222 37.8384C37.869 37.0296 38.2801 36.3384 38.9556 35.8531C39.4254 35.5149 39.9981 35.4413 40.4679 35.7354C40.556 35.7943 40.6295 35.8531 40.7029 35.9266H40.6882Z" fill="#212121"/>
<path d="M81.6268 111.897C84.1964 110.559 87.133 110.162 89.9816 110.632C90.1137 110.647 90.2312 110.676 90.3633 110.706C90.6864 110.765 91.0387 110.897 91.259 111.118C91.4499 111.324 91.5967 111.721 91.538 111.985C91.4939 112.191 91.1415 112.397 90.8919 112.485C90.701 112.559 90.4367 112.5 90.2018 112.471C86.8393 111.853 83.7559 112.632 81.0248 114.588C73.0959 120.265 69.2635 127.853 70.3354 137.735C70.9081 143.074 73.228 147.515 77.0016 151.25C77.6476 151.882 78.2937 152.5 78.9398 153.118C79.2628 153.426 79.5712 153.765 79.4096 154.25C79.2334 154.779 78.8076 154.985 78.2497 155.044C76.4436 155.279 74.6229 155.471 72.8169 155.809C69.7481 156.382 67.1198 157.794 65.0201 160.147C63.2875 162.074 62.289 164.221 62.5827 166.882C62.6414 167.338 62.6854 167.824 62.6267 168.279C62.5973 168.529 62.3918 168.882 62.1862 168.956C61.966 169.029 61.5255 168.926 61.408 168.75C61.129 168.353 60.8794 167.897 60.7913 167.426C60.3655 165.324 60.6885 163.294 61.7457 161.426C63.5664 158.206 66.2094 155.897 69.7334 154.691C71.143 154.206 72.626 153.912 74.0649 153.544C74.2852 153.485 74.5201 153.441 74.7257 153.353C75.3277 153.103 75.4305 152.868 75.1221 152.338C74.9753 152.088 74.8138 151.868 74.6082 151.662C70.7025 147.515 68.7203 142.588 68.177 136.926C67.2372 126.897 72.6407 116.618 81.5534 111.941L81.6121 111.912L81.6268 111.897Z" fill="#212121"/>
<path d="M17.2687 54.3677C19.2362 54.4118 20.8807 53.6471 22.305 52.3088C22.5252 52.103 22.7455 51.8971 22.9804 51.7206C23.3475 51.4559 23.7293 51.4559 24.0817 51.75C24.4781 52.0736 24.4928 52.5 24.2725 52.9265C24.1991 53.0736 24.0817 53.2059 23.9789 53.3236C21.6296 55.9559 18.6782 56.853 15.3158 56.1324C13.172 55.6765 11.7331 54.1618 10.8521 52.1618C10.3969 51.1324 10.2501 51.0294 9.23693 51.5147C6.88761 52.6324 4.1859 52.25 2.64416 50.4412C2.11556 49.8383 1.79253 49.0294 1.4695 48.2794C1.27862 47.8236 1.45482 47.3383 1.96873 47.1177C2.45328 46.9118 2.80567 47.2059 3.05529 47.5736C3.26085 47.8677 3.46642 48.1912 3.61325 48.5147C4.46488 50.3383 6.74078 50.7941 8.51745 49.8383C8.84048 49.6618 9.13414 49.4559 9.41312 49.2206C9.98577 48.7353 9.98577 48.2353 9.44249 47.7059C8.95794 47.25 8.42935 46.8236 8.00353 46.3236C7.04913 45.1765 6.53521 43.8677 6.79951 42.353C7.07849 40.6912 8.37062 39.4853 10.0445 39.3236C12.3498 39.0883 14.3614 39.9265 16.2261 41.1618C17.4008 41.9412 18.3846 42.9265 19.1775 44.103C20.822 46.5736 18.8838 49.9706 16.0646 50.0147C15.2424 50.0294 14.4054 49.9265 13.5978 49.7941C12.7022 49.6471 12.3645 49.9412 12.4819 50.8383C12.7169 52.4706 14.5669 54.2059 16.2555 54.3677C16.5785 54.3971 16.9163 54.3677 17.254 54.3677H17.2687Z" fill="#212121"/>
<path d="M34.8157 167.044C34.5954 166.206 34.5954 165.324 34.7716 164.471C35.1828 162.485 36.1665 160.794 37.5468 159.265C39.5877 157 41.9811 155.25 44.8737 154.206C46.0483 153.794 46.3861 153.162 46.1364 151.853C45.461 148.382 45.417 144.882 45.6225 141.382C45.9749 135.676 46.9881 130.074 48.6326 124.588C49.8954 120.368 51.3637 116.221 53.1697 112.206C53.3606 111.779 53.5515 111.353 53.7864 110.941C54.0507 110.471 54.4912 110.294 54.9757 110.529C55.4162 110.75 55.5484 111.162 55.3869 111.632C55.2107 112.132 55.0198 112.632 54.8142 113.118C52.0685 119.544 49.8954 126.162 48.6179 133.029C47.8397 137.191 47.4433 141.412 47.4873 145.662C47.5167 147.868 47.7663 150.044 48.3096 152.191C48.383 152.485 48.4564 152.779 48.5151 153.074C48.7501 154.529 48.2068 155.426 46.8119 155.75C43.1117 156.603 40.3806 158.824 38.1341 161.75C37.1944 162.971 36.7098 164.382 36.6364 165.926C36.6217 166.324 36.6364 166.75 36.5043 167.118C36.3868 167.412 36.1078 167.75 35.8288 167.853C35.3883 168 35.0653 167.662 34.9332 167.25C34.9038 167.176 34.8891 167.103 34.8744 167.029L34.8157 167.044Z" fill="#212121"/>
<path d="M38.3109 124.588C38.5165 124.809 38.8836 124.735 38.9864 124.441C39.1185 124.03 39.236 123.691 39.4122 123.397C39.5884 123.088 39.9408 122.794 40.2785 122.691C40.7484 122.544 41.0861 122.897 41.2916 123.309C41.3651 123.456 41.4532 123.603 41.5119 123.765C42.202 125.544 43.2739 127.044 44.8009 128.206C45.2121 128.515 45.7553 128.824 45.5204 129.485C45.3883 129.882 44.7716 129.882 43.9787 129.544C42.8774 129.059 42.0552 128.25 41.3504 127.294C41.1595 127.029 40.9392 126.765 40.7484 126.53C40.6456 126.412 40.4987 126.338 40.3372 126.368C40.3225 126.368 40.3079 126.368 40.2932 126.382C39.2213 127.427 38.7368 127.456 37.5768 126.471C35.9616 125.088 34.9338 123.324 34.2731 121.309C34.2143 121.118 34.0969 120.794 33.9794 120.53C33.8913 120.324 33.627 120.265 33.4655 120.412C33.4067 120.471 33.348 120.515 33.2893 120.574C32.5992 121.28 31.6154 121.191 31.0574 120.382C30.6169 119.735 30.2205 119.015 29.9268 118.294C28.2089 114.118 27.7243 109.809 28.5466 105.353C28.6347 104.868 28.7815 104.353 29.0458 103.956C29.2073 103.721 29.6625 103.544 29.9562 103.588C30.1471 103.618 30.4114 104.088 30.3967 104.353C30.338 105.412 30.1618 106.471 30.0737 107.53C29.7947 111.088 30.2792 114.515 31.7329 117.794C31.7769 117.882 31.821 117.971 31.865 118.059C32.0118 118.309 32.3789 118.294 32.5111 118.03C32.7313 117.588 32.9369 117.206 33.1278 116.824C33.2746 116.53 33.3774 116.177 33.6123 115.956C33.8619 115.735 34.2731 115.471 34.5374 115.53C34.8604 115.603 35.2421 115.941 35.3596 116.265C35.5358 116.721 35.5064 117.25 35.5505 117.75C35.7267 120.103 36.4021 122.265 37.8998 124.132C38.0173 124.28 38.1494 124.427 38.2963 124.588H38.3109Z" fill="#212121"/>
<path d="M45.0053 17.5147C46.459 17.7647 47.6336 17.3235 48.6027 16.3088C50.3647 14.4559 52.3322 12.9118 54.5788 11.6912C54.9312 11.5 55.2983 11.2941 55.68 11.2353C55.959 11.1912 56.3995 11.3235 56.517 11.5294C56.6344 11.7353 56.561 12.2059 56.3995 12.4118C56.1205 12.7647 55.7094 13.0147 55.3276 13.2794C54.1383 14.1323 52.8755 14.8676 51.9799 16.0735C50.7905 17.6618 51.0108 18.3676 52.8902 19.0588C54.755 19.7353 56.6051 20.4853 58.4552 21.2353C58.8516 21.3971 59.248 21.6471 59.4977 21.9706C59.6885 22.2059 59.7913 22.6618 59.7032 22.9559C59.5711 23.3823 59.1306 23.4853 58.7048 23.3824C58.4111 23.3088 58.1321 23.2059 57.8678 23.0588C54.9165 21.5147 51.7743 20.5588 48.5146 20.0147C45.2109 19.4706 41.8778 19.0441 38.5741 18.5441C38.1483 18.4853 37.7078 18.3971 37.3554 18.1912C37.1351 18.0588 36.9883 17.6471 36.9883 17.3823C36.9883 16.7941 38.2657 16.7206 38.7209 16.75C39.8662 16.8088 43.1112 17.1912 45.0347 17.5294L45.0053 17.5147Z" fill="#212121"/>
<path d="M43.4204 8.75005C43.7728 8.60299 43.949 8.23535 43.8756 7.8677C43.67 6.94123 44.1399 6.22064 45.0796 6.20593C46.2249 6.19123 47.2233 6.6177 48.0309 7.44123C48.3246 7.75005 48.5301 8.19123 48.1924 8.50005C48.0015 8.69123 47.5317 8.64711 47.194 8.60299C46.915 8.55888 46.6507 8.42652 46.2836 8.25005C46.1661 8.20593 46.0487 8.30888 46.0927 8.42652C46.1661 8.66182 46.2102 8.83829 46.2836 8.98535C46.4892 9.47064 46.8856 9.92652 46.4745 10.4706C46.0487 11.0295 45.4907 10.8677 44.9181 10.7353C44.5069 10.6471 44.0664 10.6324 43.6406 10.6324C43.3176 10.6324 43.2001 11.0736 43.4497 11.2795C43.8462 11.5883 44.1986 11.853 44.5363 12.1471C44.8446 12.3971 45.1677 12.6471 45.3732 12.9853C45.711 13.5442 45.3439 14.0883 44.6978 14.0295C44.4042 14.0001 44.0958 13.9118 43.8609 13.7353C43.0239 13.1471 42.1429 12.5736 41.3941 11.8824C40.6306 11.1765 40.6893 10.2353 41.5409 9.66182C42.0989 9.27946 42.7303 9.04417 43.4351 8.75005H43.4204Z" fill="#212121"/>
<path d="M64.8278 16.4853C64.7397 16.2353 64.6516 16.0147 64.6076 15.7647C64.3873 14.8088 64.9894 14.0441 65.9731 14.0294C66.7367 14.0294 67.4855 14.1471 68.249 14.2206C68.3812 14.2206 68.4987 14.2941 68.6161 14.3529C69.0126 14.5588 69.365 14.8529 69.2769 15.3529C69.1888 15.8529 68.7776 16.0441 68.3078 16.0588C68.0141 16.0588 67.7351 16.0588 67.4415 16.0294C67.1772 16.0147 66.9422 16.2353 66.9716 16.5147C67.0303 17.0735 67.1184 17.6324 66.9716 18.1177C66.7513 18.9118 65.8704 18.9265 65.1215 18.9265C65.0187 18.9265 64.9894 19.0588 65.0775 19.1029C65.5473 19.3235 65.9878 19.5588 66.4724 19.75C67.324 20.0882 67.6617 20.4706 67.5296 20.9706C67.368 21.5294 66.7954 21.7353 65.9291 21.5147C64.8132 21.2206 63.8294 20.6618 62.9924 19.8971C62.0087 19.0147 62.1995 17.9853 63.4183 17.4706C63.756 17.3235 64.123 17.2206 64.5195 17.1029C64.7838 17.0294 64.9159 16.75 64.8278 16.4853Z" fill="#212121"/>
<path d="M15.9766 164.706C16.1234 162.618 17.1953 160.956 18.5021 159.412C19.016 158.809 19.6767 158.338 20.2934 157.838C20.5137 157.662 20.8073 157.515 21.101 157.456C21.8352 157.324 22.3638 157.985 22.026 158.647C21.8352 159.015 21.5121 159.338 21.1891 159.603C19.4418 161.059 18.2231 162.824 17.8854 165.118C17.856 165.28 17.812 165.441 17.7532 165.603C17.5917 166 17.3274 166.309 16.8722 166.265C16.373 166.221 16.1087 165.897 16.05 165.412C16.0206 165.177 16.0206 164.941 16.0059 164.691L15.9766 164.706Z" fill="#212121"/>
<path d="M24.5056 167.603C24.2853 167.324 24.2119 166.956 24.2853 166.603C24.3 166.5 24.3294 166.412 24.3588 166.324C25.2544 163.985 26.664 162.074 29.0133 160.985C29.2483 160.868 29.5126 160.765 29.7622 160.735C30.2467 160.677 30.6725 160.882 30.79 161.338C30.8634 161.632 30.7019 162.03 30.5257 162.309C30.3789 162.544 30.0705 162.691 29.8062 162.824C28.3526 163.544 27.3248 164.691 26.5612 166.088C26.3116 166.559 26.018 167 25.739 167.456C25.5041 167.824 25.137 168.059 24.7258 167.809C24.6524 167.765 24.579 167.691 24.5203 167.618L24.5056 167.603Z" fill="#212121"/>
<path d="M42.7891 166.912C42.9946 164.824 44.0225 163.015 46.0341 161.838C46.2103 161.735 46.4011 161.662 46.5773 161.603C47.0766 161.441 47.5317 161.529 47.796 162C48.075 162.485 47.8401 162.897 47.4436 163.206C47.3115 163.309 47.1793 163.397 47.0325 163.485C45.5936 164.412 44.8007 165.706 44.6538 167.412C44.5804 168.279 44.228 168.75 43.7288 168.75C43.1855 168.75 42.8331 168.176 42.7891 167.309C42.7891 167.235 42.7891 167.176 42.7891 166.897V166.912Z" fill="#212121"/>
<path d="M49.0156 168.059C49.1478 167.618 49.1918 167.324 49.324 167.059C50.1169 165.456 51.1887 164.074 52.7011 163.088C53.0829 162.838 53.5234 162.662 53.9639 162.544C54.4631 162.426 54.8889 162.618 55.0945 163.132C55.2854 163.618 55.0211 163.956 54.654 164.235C54.6246 164.25 54.5952 164.279 54.5659 164.294C52.8626 165 51.9523 166.471 50.9832 167.912C50.851 168.103 50.7629 168.368 50.5867 168.471C50.3077 168.632 49.9113 168.838 49.647 168.765C49.3827 168.691 49.2065 168.294 49.0303 168.074L49.0156 168.059Z" fill="#212121"/>
<path d="M68.4249 168.176C67.9991 167.147 67.8963 166 68.1165 164.897C68.2927 164 68.6158 163.235 69.1297 162.544C69.3793 162.206 69.717 161.926 70.0694 161.676C70.4805 161.382 70.9504 161.353 71.3322 161.765C71.7433 162.206 71.5084 162.603 71.2147 163C70.877 163.456 70.5393 163.912 70.319 164.426C69.9519 165.294 69.7904 166.206 70.0841 167.147C70.1281 167.279 70.1575 167.412 70.1722 167.529C70.319 168.353 70.1722 168.824 69.6583 168.956C68.9975 169.147 68.6451 168.676 68.4396 168.191L68.4249 168.176Z" fill="#212121"/>
<path d="M75.4873 167.368C75.5314 165.824 76.0159 164.5 76.985 163.382C77.3227 163 77.7926 162.721 78.2478 162.471C78.6442 162.25 79.0407 162.412 79.305 162.765C79.5986 163.147 79.4518 163.515 79.1435 163.838C79.0113 163.985 78.8645 164.118 78.7176 164.265C77.8807 165.103 77.4843 166.132 77.3815 167.294C77.3668 167.529 77.3815 167.765 77.3521 167.985C77.2934 168.485 77.0438 168.868 76.5005 168.956C76.06 169.029 75.6342 168.588 75.5167 168.015C75.4727 167.794 75.4727 167.559 75.4727 167.382L75.4873 167.368Z" fill="#212121"/>
<path d="M14.2151 42.0441C13.4222 41.5441 11.117 40.3383 10.4709 41.4412C9.95699 42.3236 10.6324 43.5147 12.1595 44.4412C13.6865 45.3677 15.008 45.3971 15.4045 44.6471C16.1093 43.2941 14.729 42.3677 14.2004 42.0441H14.2151Z" fill="#FFEFD8"/>
</g>
<defs>
<clipPath id="clip0_636_2706">
<rect width="162" height="170" fill="white"/>
</clipPath>
</defs>
</svg>
