<svg width="18" height="18" viewBox="0 0 18 18" fill="none" xmlns="http://www.w3.org/2000/svg">
<g id="time-02" clip-path="url(#clip0_353_7529)">
<g id="elements">
<circle id="Ellipse 1244" cx="9" cy="9" r="7.5" stroke="#080808" stroke-width="1.5"/>
<g id="Vector">
<path d="M10.125 9C10.125 9.62132 9.62132 10.125 9 10.125C8.37868 10.125 7.875 9.62132 7.875 9C7.875 8.37868 8.37868 7.875 9 7.875C9.62132 7.875 10.125 8.37868 10.125 9Z" fill="#080808"/>
<path d="M9.75 5C9.75 4.58579 9.41421 4.25 9 4.25C8.58579 4.25 8.25 4.58579 8.25 5H9.75ZM10.6553 9.59467C10.3624 9.30178 9.88756 9.30178 9.59467 9.59467C9.30178 9.88756 9.30178 10.3624 9.59467 10.6553L10.6553 9.59467ZM11.4697 12.5303C11.7626 12.8232 12.2374 12.8232 12.5303 12.5303C12.8232 12.2374 12.8232 11.7626 12.5303 11.4697L11.4697 12.5303ZM8.25 5V7.875H9.75V5H8.25ZM9.59467 10.6553L11.4697 12.5303L12.5303 11.4697L10.6553 9.59467L9.59467 10.6553ZM9.375 9C9.375 9.20711 9.20711 9.375 9 9.375V10.875C10.0355 10.875 10.875 10.0355 10.875 9H9.375ZM9 9.375C8.79289 9.375 8.625 9.20711 8.625 9H7.125C7.125 10.0355 7.96447 10.875 9 10.875V9.375ZM8.625 9C8.625 8.79289 8.79289 8.625 9 8.625V7.125C7.96447 7.125 7.125 7.96447 7.125 9H8.625ZM9 8.625C9.20711 8.625 9.375 8.79289 9.375 9H10.875C10.875 7.96447 10.0355 7.125 9 7.125V8.625Z" fill="#080808"/>
</g>
</g>
</g>
<defs>
<clipPath id="clip0_353_7529">
<rect width="18" height="18" fill="white"/>
</clipPath>
</defs>
</svg>
