<svg width="40" height="40" viewBox="0 0 40 40" fill="none" xmlns="http://www.w3.org/2000/svg">
<circle cx="20" cy="20" r="20" fill="#D9D9D9"/>
<g clip-path="url(#clip0_913_2736)">
<path d="M29.5205 29.6986C29.5205 29.6986 20.0928 37.659 9.92188 29.8174L29.5205 29.6986Z" fill="#ADADAD"/>
<path d="M29.5209 29.6989C29.6124 29.5329 29.7502 29.375 29.8924 29.251C30.7539 28.5073 31.4549 27.6371 31.8562 26.5651C32.5181 24.7911 32.4025 23.0516 31.4298 21.4148C31.1325 20.9158 31.0331 20.4622 31.1178 19.8717C31.3356 18.3551 31.0956 16.9092 30.2385 15.6029C30.1154 15.4126 30.0849 15.2345 30.155 15.0049C30.876 12.5727 30.4962 10.266 29.3561 8.04874C29.237 7.82026 29.076 7.60477 28.9108 7.40628C28.5721 7.00934 28.1427 6.91857 27.6689 7.11669C27.3879 7.23723 27.0987 7.37481 26.8602 7.56301C25.8853 8.34142 24.9909 9.19998 24.2656 10.2231C24.078 10.4874 23.9284 10.7726 23.7661 11.0538C23.5747 11.386 23.361 11.4934 22.9946 11.3853C21.8785 11.061 20.7429 10.9702 19.6037 10.9898C18.4644 10.984 17.3341 11.0885 16.2179 11.4263C15.8528 11.5389 15.6377 11.4298 15.4424 11.1042C15.2767 10.8251 15.1236 10.5374 14.9329 10.2796C14.1952 9.2654 13.2904 8.41349 12.3062 7.6512C12.0655 7.4659 11.7746 7.33184 11.4922 7.2147C11.0202 7.02231 10.5878 7.11831 10.2539 7.51932C10.0869 7.71982 9.92845 7.93301 9.81636 8.16713C8.70316 10.3938 8.35144 12.7091 9.10183 15.1324C9.17048 15.3612 9.14634 15.5396 9.02558 15.7314C8.18852 17.0438 7.96189 18.4968 8.19808 20.0106C8.28992 20.5958 8.196 21.0548 7.90476 21.5574C6.95202 23.2058 6.85747 24.9466 7.54082 26.7124C7.95508 27.7795 8.66658 28.6411 9.53706 29.3744C9.68494 29.4966 9.82039 29.6485 9.91391 29.8177" fill="#ADADAD"/>
<path d="M19.6228 13.1115C20.9115 15.5782 23.5637 14.0978 25.4748 15.8859C27.1153 17.4252 27.5573 20.3003 31.2489 21.0547C31.0995 20.6863 31.0594 20.3173 31.1198 19.8755C31.3376 18.3589 31.0977 16.9129 30.2405 15.6066C30.1175 15.4163 30.0869 15.2382 30.157 15.0086C30.878 12.5764 30.4983 10.2697 29.3581 8.05247C29.239 7.82399 29.078 7.6085 28.9128 7.41001C28.5741 7.01308 28.1447 6.9223 27.6709 7.12042C27.3899 7.24097 27.1007 7.37854 26.8622 7.56675C25.8874 8.34515 24.9929 9.20372 24.2676 10.2268C24.08 10.4911 23.9304 10.7764 23.7681 11.0575C23.5768 11.3897 23.363 11.4971 22.9966 11.389C21.8806 11.0647 20.7449 10.9739 19.6057 10.9936C19.4922 10.9943 19.3745 10.995 19.261 10.9957C19.1981 11.7176 19.2782 12.4472 19.6185 13.103L19.6228 13.1115Z" fill="#898989"/>
<path d="M27.7312 12.7233C27.8569 12.6674 27.8685 12.4933 27.7587 12.4176C27.6194 12.325 27.5096 12.245 27.404 12.1608C26.99 11.828 27.0218 11.5222 27.4912 11.2817C27.6085 11.2215 27.7259 11.1571 27.8558 11.0842C27.9396 11.037 27.943 10.9139 27.8628 10.8634C27.7784 10.8088 27.7025 10.7626 27.6307 10.7121C27.5505 10.6574 27.4702 10.5942 27.4067 10.5224C27.3009 10.4 27.2705 10.2473 27.3748 10.1109C27.4749 9.97445 27.6302 9.93531 27.7736 10.0108C28.1236 10.1912 28.4737 10.3801 28.8071 10.5903C29.0519 10.7459 29.0576 11.0048 28.832 11.2268C28.6857 11.3678 28.5267 11.4961 28.3593 11.6287C28.2422 11.7185 28.2517 11.901 28.3741 11.9809C28.4374 12.023 28.4965 12.065 28.5556 12.1071C28.8724 12.3429 28.9034 12.6016 28.6403 12.8961C28.2728 13.3016 27.8161 13.5675 27.2744 13.6641C27.1442 13.6861 27.0013 13.687 26.8708 13.6666C26.7152 13.6463 26.5802 13.5707 26.5581 13.3968C26.536 13.2145 26.6658 13.1288 26.8084 13.0727C26.9216 13.0296 27.0519 13.0161 27.1651 12.9729C27.3496 12.8954 27.5341 12.8137 27.7396 12.7233L27.7312 12.7233Z" fill="#080808"/>
<path d="M11.3371 11.2901C11.4896 11.4844 11.6338 11.6873 11.803 11.8645C12.1796 12.2612 12.181 12.4947 11.7712 12.8622C11.6792 12.9434 11.5661 13.0077 11.4868 13.1016C11.4534 13.14 11.4284 13.1826 11.4035 13.2294C11.3536 13.3231 11.4048 13.4374 11.5058 13.4622C11.5984 13.4829 11.6784 13.5036 11.7543 13.5371C11.9482 13.6166 12.142 13.6961 12.3151 13.8139C12.3869 13.8644 12.4551 14.0125 12.4345 14.0933C12.414 14.1741 12.2759 14.2853 12.196 14.2815C11.7041 14.2633 11.1994 14.2366 10.7897 13.9207C10.4898 13.6891 10.4619 13.2394 10.7079 12.911C10.8205 12.7618 10.95 12.6252 11.0837 12.4843C11.1714 12.3904 11.1748 12.2503 11.0985 12.1489C11.0095 12.0306 10.912 11.9081 10.8314 11.777C10.6446 11.4853 10.5544 11.1675 10.6153 10.8148C10.6802 10.4282 10.944 10.2526 11.3063 10.365C11.4916 10.4233 11.6854 10.4943 11.8458 10.5994C11.926 10.6541 11.9985 10.8192 11.9738 10.9085C11.9533 10.9935 11.8108 11.0707 11.7102 11.1096C11.6179 11.1441 11.5128 11.1447 11.4077 11.1496C11.3363 11.1543 11.299 11.2394 11.3414 11.2985L11.3371 11.2901Z" fill="#080808"/>
<path d="M24.4069 18.6336C24.4099 19.13 24.1182 19.5348 23.7526 19.537C23.3871 19.5392 23.0905 19.1379 23.0875 18.6416C23.0845 18.1452 23.3762 17.7404 23.7417 17.7382C24.1073 17.736 24.4039 18.1372 24.4069 18.6336Z" fill="#080808"/>
<path d="M16.2194 18.6834C16.2224 19.1798 15.9307 19.5846 15.5651 19.5868C15.1996 19.589 14.903 19.1878 14.9 18.6914C14.897 18.195 15.1887 17.7902 15.5542 17.788C15.9198 17.7858 16.2164 18.187 16.2194 18.6834Z" fill="#080808"/>
<path d="M22.0352 27.49C22.0388 28.0884 21.9035 28.6495 21.5871 29.165C21.2499 29.7188 20.7558 30.0444 20.143 30.1967C19.74 30.2968 19.3485 30.2185 18.9983 30.0126C18.1841 29.5379 17.646 28.8493 17.535 27.8865C17.5084 27.6447 17.532 27.3857 17.5642 27.1435C17.6046 26.8716 17.7887 26.7262 18.0828 26.6947C18.2676 26.6724 18.4568 26.6712 18.6331 26.6277C18.9815 26.5407 19.2577 26.3396 19.4577 26.0327C19.7076 25.6407 19.9008 25.6098 20.2138 25.939C20.5269 26.2682 20.9064 26.4484 21.3441 26.5264C21.8996 26.6249 22.0055 26.7516 22.0341 27.3117C22.0345 27.3754 22.0349 27.4348 22.0352 27.4985L22.0352 27.49Z" fill="#D9D9D9"/>
<path d="M19.4238 20.2985C20.2857 20.3017 21.0352 20.4924 21.7435 20.832C22.7343 21.3056 22.9034 22.8411 22.0628 23.5805C21.6823 23.9181 21.2337 24.116 20.7425 24.2294C20.2177 24.3472 20.1885 24.3898 20.1581 24.9248C20.0972 25.965 20.9717 26.6771 21.9707 26.4079C22.2729 26.3254 22.4903 26.1331 22.6442 25.8605C22.6733 25.8051 22.694 25.7456 22.723 25.6902C22.8436 25.473 22.9987 25.3914 23.1672 25.4541C23.3316 25.5168 23.4041 25.6946 23.3635 25.924C23.2577 26.5019 22.6473 27.0617 22.0046 27.1462C21.3283 27.2352 20.7011 27.1201 20.1561 26.6693C19.8054 26.387 19.5911 26.4011 19.2946 26.7297C18.2089 27.9332 16.3919 27.1038 16.0568 25.9174C16.0353 25.8453 16.0012 25.7649 16.0176 25.7011C16.0505 25.5778 16.0874 25.4248 16.1795 25.3606C16.3176 25.2579 16.4654 25.3589 16.5628 25.4814C16.6391 25.5785 16.6986 25.6928 16.7498 25.8028C16.9882 26.3065 17.4226 26.5245 17.9317 26.5979C18.2725 26.6467 18.57 26.4752 18.7786 26.215C19.1291 25.7757 19.2814 25.2442 19.358 24.6962C19.3983 24.42 19.297 24.3485 18.9769 24.2486C18.5557 24.1153 18.1261 23.9863 17.7297 23.7935C17.2449 23.563 16.9564 23.1403 16.8691 22.606C16.7558 21.936 17.1248 21.0976 17.682 20.7674C18.2433 20.4372 18.8522 20.3147 19.4197 20.307L19.4238 20.2985Z" fill="#080808"/>
<path d="M19.2984 20.8891C19.042 20.8907 18.3826 20.9965 18.4018 21.3954C18.4261 21.9428 19.209 22.0909 19.6755 22.0626C20.1377 22.0343 20.6829 21.8103 20.6808 21.4707C20.6788 21.1312 20.3325 20.8786 19.2984 20.8891Z" fill="#ADADAD"/>
</g>
<defs>
<clipPath id="clip0_913_2736">
<rect width="25.1693" height="26.1966" fill="white" transform="translate(7 7.15234) rotate(-0.347155)"/>
</clipPath>
</defs>
</svg>
