<svg width="26" height="26" viewBox="0 0 26 26" fill="none" xmlns="http://www.w3.org/2000/svg">
<path d="M19.5 2.16699V4.33366M6.5 2.16699V4.33366" stroke="#A7A7A7" stroke-width="1.5" stroke-linecap="round" stroke-linejoin="round"/>
<path d="M12.9925 14.084H13.0023M12.9925 18.4173H13.0023M17.321 14.084H17.3307M8.66406 14.084H8.67378M8.66406 18.4173H8.67378" stroke="#A7A7A7" stroke-width="2" stroke-linecap="round" stroke-linejoin="round"/>
<path d="M3.78906 8.66699H22.2057" stroke="#A7A7A7" stroke-width="1.5" stroke-linecap="round" stroke-linejoin="round"/>
<path d="M2.70703 13.2635C2.70703 8.5431 2.70703 6.18289 4.06349 4.71645C5.41995 3.25 7.60315 3.25 11.9695 3.25H14.0279C18.3942 3.25 20.5774 3.25 21.9339 4.71645C23.2904 6.18289 23.2904 8.5431 23.2904 13.2635V13.8198C23.2904 18.5402 23.2904 20.9004 21.9339 22.3669C20.5774 23.8333 18.3942 23.8333 14.0279 23.8333H11.9695C7.60315 23.8333 5.41995 23.8333 4.06349 22.3669C2.70703 20.9004 2.70703 18.5402 2.70703 13.8198V13.2635Z" stroke="#A7A7A7" stroke-width="1.5" stroke-linecap="round" stroke-linejoin="round"/>
<path d="M3.25 8.66699H22.75" stroke="#A7A7A7" stroke-width="1.5" stroke-linecap="round" stroke-linejoin="round"/>
</svg>
