<svg width="17" height="17" viewBox="0 0 17 17" fill="none" xmlns="http://www.w3.org/2000/svg">
<path d="M1 4.33333H16M6.625 7.66667V12.6667M10.375 7.66667V12.6667M1.9375 4.33333L2.875 14.3333C2.875 14.7754 3.07254 15.1993 3.42417 15.5118C3.77581 15.8244 4.25272 16 4.75 16H12.25C12.7473 16 13.2242 15.8244 13.5758 15.5118C13.9275 15.1993 14.125 14.7754 14.125 14.3333L15.0625 4.33333M5.6875 4.33333V1.83333C5.6875 1.61232 5.78627 1.40036 5.96209 1.24408C6.1379 1.0878 6.37636 1 6.625 1H10.375C10.6236 1 10.8621 1.0878 11.0379 1.24408C11.2137 1.40036 11.3125 1.61232 11.3125 1.83333V4.33333" stroke="#6F6A6A" stroke-width="1.5" stroke-linecap="round" stroke-linejoin="round"/>
</svg>
