<svg width="16" height="16" viewBox="0 0 16 16" fill="none" xmlns="http://www.w3.org/2000/svg">
<path d="M1.33203 10.5001C1.33203 10.5001 2.52892 10 4.66536 10C7.9987 10 10.6654 12 14.6654 12" stroke="black" stroke-width="1.5" stroke-linecap="round" stroke-linejoin="round"/>
<path d="M1.33203 14H14.6654" stroke="black" stroke-width="1.5" stroke-linecap="round" stroke-linejoin="round"/>
<path d="M8.39472 2.15174C6.49762 2.69579 5.2645 4.56816 5.33489 6.58336C5.34952 7.00191 5.35683 7.21119 5.53567 7.30374C5.71452 7.39629 5.90015 7.26512 6.27142 7.00277L7.09913 6.41786C7.22344 6.33002 7.37102 6.2877 7.51972 6.29725L9.46385 6.42214L11.0892 5.27361C11.2135 5.18577 11.3611 5.14345 11.5098 5.153L12.524 5.21815C12.9592 5.24611 13.1767 5.26009 13.2848 5.09255C13.3928 4.92502 13.305 4.74389 13.1293 4.38162C12.2557 2.57993 10.3022 1.60471 8.39472 2.15174Z" fill="black" stroke="black" stroke-width="1.5" stroke-linecap="round" stroke-linejoin="round"/>
<path d="M9.66667 6.33337L11 11.3334M8.19048 2.00004L8 1.33337" stroke="black" stroke-width="1.5" stroke-linecap="round" stroke-linejoin="round"/>
</svg>
