<svg width="17" height="16" viewBox="0 0 17 16" fill="none" xmlns="http://www.w3.org/2000/svg">
<g clip-path="url(#clip0_209_1432)">
<path d="M1.66797 10.5001C1.66797 10.5001 2.86486 10 5.0013 10C8.33464 10 11.0013 12 15.0013 12" stroke="#FFD84D" stroke-width="1.5" stroke-linecap="round" stroke-linejoin="round"/>
<path d="M1.66797 14H15.0013" stroke="#FFD84D" stroke-width="1.5" stroke-linecap="round" stroke-linejoin="round"/>
<path d="M8.73066 2.15174C6.83355 2.69579 5.60044 4.56816 5.67083 6.58336C5.68545 7.00191 5.69276 7.21119 5.87161 7.30374C6.05046 7.39629 6.23609 7.26512 6.60735 7.00277L7.43507 6.41786C7.55938 6.33002 7.70696 6.2877 7.85565 6.29725L9.79978 6.42214L11.4251 5.27361C11.5494 5.18577 11.697 5.14345 11.8457 5.153L12.8599 5.21815C13.2951 5.24611 13.5127 5.26009 13.6207 5.09255C13.7287 4.92502 13.6409 4.74389 13.4653 4.38162C12.5917 2.57993 10.6382 1.60471 8.73066 2.15174Z" stroke="#FFD84D" stroke-width="1.5" stroke-linecap="round" stroke-linejoin="round"/>
<path d="M10.0007 6.33301L11.334 11.333M8.52446 1.99967L8.33398 1.33301" stroke="#FFD84D" stroke-width="1.5" stroke-linecap="round" stroke-linejoin="round"/>
</g>
<defs>
<clipPath id="clip0_209_1432">
<rect width="16" height="16" fill="white" transform="translate(0.333984)"/>
</clipPath>
</defs>
</svg>
