<svg width="58" height="72" viewBox="0 0 58 72" fill="none" xmlns="http://www.w3.org/2000/svg">
<path d="M29 1C13.536 1 1 13.6624 1 29.2823C1 38.2138 4.5 45.1584 11.5 51.3615C16.434 55.7338 22.4113 62.996 26.0001 68.8828C27.7211 71.7057 30.1551 71.7057 31.9999 68.8828C35.7704 63.113 41.566 55.7338 46.5 51.3615C53.5 45.1584 57 38.2138 57 29.2823C57 13.6624 44.464 1 29 1Z" fill="#D3FBD4" stroke="#17AA1A" stroke-linejoin="round"/>
<ellipse cx="29.5" cy="29" rx="20.5" ry="20" fill="#080808"/>
<path d="M19.082 32.4063C19.082 32.4063 20.9522 31.625 24.2904 31.625C29.4987 31.625 33.6654 34.75 39.9154 34.75" stroke="white" stroke-width="1.5" stroke-linecap="round" stroke-linejoin="round"/>
<path d="M19.082 37.875H39.9154" stroke="white" stroke-width="1.5" stroke-linecap="round" stroke-linejoin="round"/>
<path d="M30.1175 19.3621C27.1533 20.2122 25.2265 23.1378 25.3365 26.2865C25.3594 26.9405 25.3708 27.2675 25.6502 27.4121C25.9297 27.5567 26.2197 27.3517 26.7998 26.9418L28.0931 26.0279C28.2874 25.8907 28.518 25.8245 28.7503 25.8395L31.788 26.0346L34.3276 24.24C34.5218 24.1028 34.7524 24.0366 34.9847 24.0516L36.5694 24.1534C37.2494 24.197 37.5894 24.2189 37.7582 23.9571C37.927 23.6953 37.7898 23.4123 37.5153 22.8463C36.1503 20.0311 33.098 18.5074 30.1175 19.3621Z" fill="white" stroke="white" stroke-width="1.5" stroke-linecap="round" stroke-linejoin="round"/>
<path d="M32.1042 25.8959L34.1875 33.7084M29.7976 19.125L29.5 18.0834" stroke="white" stroke-width="1.5" stroke-linecap="round" stroke-linejoin="round"/>
</svg>
