<svg width="42" height="42" viewBox="0 0 42 42" fill="none" xmlns="http://www.w3.org/2000/svg">
<circle cx="21" cy="21" r="20" fill="#F0F0F0" stroke="#5E5E5E" stroke-width="2"/>
<path d="M12.3594 27H10.625V17.4062H10.5625L7.85938 19.1719V17.5312L10.6719 15.6875H12.3594V27ZM19.0781 27.1562C18.375 27.1562 17.737 27.0234 17.1641 26.7578C16.5911 26.487 16.1354 26.1172 15.7969 25.6484C15.4583 25.1745 15.276 24.6406 15.25 24.0469H16.9219C16.9531 24.3646 17.0677 24.651 17.2656 24.9062C17.4635 25.1615 17.7214 25.362 18.0391 25.5078C18.3568 25.6484 18.7031 25.7188 19.0781 25.7188C19.5312 25.7188 19.9349 25.6172 20.2891 25.4141C20.6484 25.2109 20.9297 24.9323 21.1328 24.5781C21.3359 24.2188 21.4375 23.8177 21.4375 23.375C21.4375 22.9219 21.3333 22.5156 21.125 22.1562C20.9167 21.7917 20.6276 21.5078 20.2578 21.3047C19.888 21.0964 19.4688 20.9896 19 20.9844C18.0469 20.9844 17.3854 21.3177 17.0156 21.9844H15.3906L16.125 15.6875H22.5312V17.1562H17.5469L17.1719 20.3281H17.2812C17.5208 20.099 17.8281 19.9141 18.2031 19.7734C18.5833 19.6328 18.9844 19.5625 19.4062 19.5625C20.1042 19.5625 20.7344 19.724 21.2969 20.0469C21.8646 20.3698 22.3073 20.8177 22.625 21.3906C22.9479 21.9635 23.1094 22.6094 23.1094 23.3281C23.1094 24.0625 22.9375 24.7214 22.5938 25.3047C22.25 25.888 21.7708 26.3438 21.1562 26.6719C20.5469 26.9948 19.8542 27.1562 19.0781 27.1562Z" fill="#5E5E5E"/>
<path d="M30 25L30 15" stroke="#5E5E5E" stroke-width="1.5" stroke-linecap="round" stroke-linejoin="round"/>
<path d="M26.25 22.25L29.2929 25.2929C29.6262 25.6262 29.7929 25.7929 30 25.7929C30.2071 25.7929 30.3738 25.6262 30.7071 25.2929L33.75 22.25" stroke="#5E5E5E" stroke-width="1.5" stroke-linecap="round" stroke-linejoin="round"/>
</svg>
