<svg width="48" height="48" viewBox="0 0 48 48" fill="none" xmlns="http://www.w3.org/2000/svg">
<ellipse cx="24" cy="24" rx="20" ry="19.8529" fill="#F0F0F0" stroke="#5E5E5E" stroke-width="2"/>
<path d="M15.7734 18.6875V30H14.0391V20.4062H13.9766L11.2734 22.1719V20.5312L14.0859 18.6875H15.7734ZM22.5859 30.1562C19.9688 30.1562 18.4297 28.0469 18.4297 24.3438C18.4297 20.6641 19.9844 18.5312 22.5859 18.5312C25.1797 18.5312 26.7344 20.6641 26.7422 24.3438C26.7344 28.0469 25.2031 30.1562 22.5859 30.1562ZM20.1484 24.3438C20.1406 27.1641 21.0547 28.6719 22.5859 28.6719C24.1094 28.6719 25.0234 27.1641 25.0234 24.3438C25.0234 21.5312 24.1016 19.9922 22.5859 19.9844C21.0625 19.9922 20.1484 21.5312 20.1484 24.3438Z" fill="#5E5E5E"/>
<path d="M33 29L33 19" stroke="#5E5E5E" stroke-width="1.5" stroke-linecap="round" stroke-linejoin="round"/>
<path d="M29.25 26.25L32.2929 29.2929C32.6262 29.6262 32.7929 29.7929 33 29.7929C33.2071 29.7929 33.3738 29.6262 33.7071 29.2929L36.75 26.25" stroke="#5E5E5E" stroke-width="1.5" stroke-linecap="round" stroke-linejoin="round"/>
</svg>
