<svg width="42" height="42" viewBox="0 0 42 42" fill="none" xmlns="http://www.w3.org/2000/svg">
<circle cx="21" cy="21" r="20" fill="#F0F0F0" stroke="#5E5E5E" stroke-width="2"/>
<path d="M7.39062 25.75L11.3125 21.7969C11.7865 21.2969 12.1484 20.8958 12.3984 20.5938C12.6484 20.2917 12.8385 19.9974 12.9688 19.7109C13.1042 19.4193 13.1719 19.1146 13.1719 18.7969C13.1719 18.4323 13.0807 18.112 12.8984 17.8359C12.7161 17.5599 12.4661 17.3464 12.1484 17.1953C11.8307 17.0443 11.474 16.9688 11.0781 16.9688C10.6667 16.9688 10.3047 17.0521 9.99219 17.2188C9.67969 17.3854 9.4375 17.6198 9.26562 17.9219C9.09896 18.224 9.01562 18.5729 9.01562 18.9688H7.39062C7.38542 18.2917 7.54167 17.6927 7.85938 17.1719C8.17708 16.651 8.61979 16.2474 9.1875 15.9609C9.75521 15.6745 10.3958 15.5312 11.1094 15.5312C11.8281 15.5312 12.4661 15.6719 13.0234 15.9531C13.5859 16.2292 14.0234 16.612 14.3359 17.1016C14.6484 17.5911 14.8073 18.1406 14.8125 18.75C14.8073 19.1823 14.724 19.599 14.5625 20C14.401 20.3958 14.125 20.8385 13.7344 21.3281C13.3438 21.8125 12.7917 22.4062 12.0781 23.1094L9.78125 25.4375V25.5312H15V27H7.39062V25.75ZM20.75 27.1562C20.0469 27.1562 19.4089 27.0234 18.8359 26.7578C18.263 26.487 17.8073 26.1172 17.4688 25.6484C17.1302 25.1745 16.9479 24.6406 16.9219 24.0469H18.5938C18.625 24.3646 18.7396 24.651 18.9375 24.9062C19.1354 25.1615 19.3932 25.362 19.7109 25.5078C20.0286 25.6484 20.375 25.7188 20.75 25.7188C21.2031 25.7188 21.6068 25.6172 21.9609 25.4141C22.3203 25.2109 22.6016 24.9323 22.8047 24.5781C23.0078 24.2188 23.1094 23.8177 23.1094 23.375C23.1094 22.9219 23.0052 22.5156 22.7969 22.1562C22.5885 21.7917 22.2995 21.5078 21.9297 21.3047C21.5599 21.0964 21.1406 20.9896 20.6719 20.9844C19.7188 20.9844 19.0573 21.3177 18.6875 21.9844H17.0625L17.7969 15.6875H24.2031V17.1562H19.2188L18.8438 20.3281H18.9531C19.1927 20.099 19.5 19.9141 19.875 19.7734C20.2552 19.6328 20.6562 19.5625 21.0781 19.5625C21.776 19.5625 22.4062 19.724 22.9688 20.0469C23.5365 20.3698 23.9792 20.8177 24.2969 21.3906C24.6198 21.9635 24.7812 22.6094 24.7812 23.3281C24.7812 24.0625 24.6094 24.7214 24.2656 25.3047C23.9219 25.888 23.4427 26.3438 22.8281 26.6719C22.2188 26.9948 21.526 27.1562 20.75 27.1562Z" fill="#5E5E5E"/>
<path d="M31 26L31 16" stroke="#5E5E5E" stroke-width="1.5" stroke-linecap="round" stroke-linejoin="round"/>
<path d="M27.25 23.25L30.2929 26.2929C30.6262 26.6262 30.7929 26.7929 31 26.7929C31.2071 26.7929 31.3738 26.6262 31.7071 26.2929L34.75 23.25" stroke="#5E5E5E" stroke-width="1.5" stroke-linecap="round" stroke-linejoin="round"/>
</svg>
