<svg width="16" height="15" viewBox="0 0 16 15" fill="none" xmlns="http://www.w3.org/2000/svg">
<g id="Group">
<path id="Vector" d="M10.9955 7.98841C10.9956 7.98823 10.9957 7.98795 10.9955 7.98774C10.2558 6.86318 8.99596 6.19226 7.62487 6.19226C6.25363 6.19226 4.99426 6.86394 4.25397 7.9881L2.47111 10.6981C2.17512 11.1475 2.03875 11.6673 2.07646 12.2C2.11416 12.7327 2.32217 13.2293 2.67849 13.6352C3.03481 14.0412 3.50551 14.3186 4.0403 14.4373C4.5751 14.5561 5.12246 14.5053 5.62458 14.2904L5.65788 14.2757C6.92103 13.7455 8.36454 13.7504 9.62454 14.2904C9.94944 14.4294 10.2938 14.4998 10.6413 14.4998C10.8305 14.4998 11.0203 14.479 11.2088 14.4373C11.7436 14.3186 12.2143 14.0412 12.5706 13.6352C12.9269 13.2293 13.135 12.7327 13.1727 12.2C13.2104 11.6673 13.074 11.1475 12.778 10.6981L10.9954 7.98908C10.9952 7.98887 10.9953 7.98859 10.9955 7.98841Z" fill="#17AA1A"/>
<path id="Vector_2" d="M2.43218 6.96772C2.43218 6.96754 2.43229 6.96737 2.43246 6.96731C2.86971 6.80378 3.20141 6.46034 3.36728 6.00122C3.52502 5.56405 3.51245 5.06993 3.33083 4.61071C3.14922 4.1515 2.81929 3.77677 2.40076 3.55574C1.96148 3.32307 1.47885 3.28511 1.04272 3.4492C0.164799 3.778 -0.238023 4.83481 0.144691 5.8059C0.450737 6.57861 1.16338 7.0666 1.88482 7.0666C2.06885 7.0666 2.2535 7.0348 2.43189 6.96813C2.43206 6.96807 2.43218 6.9679 2.43218 6.96772Z" fill="#17AA1A"/>
<path id="Vector_3" d="M6.07618 4.91889C7.17342 4.91889 8.06642 3.9276 8.06642 2.70975C8.06642 1.49191 7.17342 0.5 6.07618 0.5C4.97894 0.5 4.08594 1.4913 4.08594 2.70975C4.08594 3.92821 4.97894 4.91889 6.07618 4.91889Z" fill="#17AA1A"/>
<path id="Vector_4" d="M10.3749 5.4614C10.3751 5.4614 10.3753 5.46143 10.3755 5.4615C10.5445 5.51593 10.7165 5.54222 10.888 5.54222C11.6886 5.54222 12.4685 4.97463 12.7658 4.10212C12.9373 3.60004 12.926 3.06919 12.7337 2.60752C12.5332 2.12381 12.1606 1.77297 11.6861 1.61929C11.211 1.4656 10.6976 1.52989 10.2395 1.79991C9.80208 2.05769 9.46713 2.47649 9.29557 2.97857C8.93426 4.03772 9.41801 5.15135 10.3743 5.4613C10.3745 5.46137 10.3747 5.4614 10.3749 5.4614Z" fill="#17AA1A"/>
<path id="Vector_5" d="M15.3627 5.50252C15.3627 5.50233 15.3626 5.50215 15.3624 5.50204C14.6058 4.95733 13.4742 5.1931 12.8395 6.02879C12.2054 6.86456 12.3047 7.9875 13.0601 8.53305C13.336 8.73204 13.6615 8.82695 13.9946 8.82695C14.5752 8.82695 15.1798 8.53795 15.5839 8.00709C16.2179 7.17141 16.1187 6.04863 15.3629 5.50301C15.3628 5.5029 15.3627 5.50272 15.3627 5.50252Z" fill="#17AA1A"/>
</g>
</svg>
