<svg width="24" height="24" viewBox="0 0 24 24" fill="none" xmlns="http://www.w3.org/2000/svg">
<circle cx="12" cy="12" r="12" fill="#17AA1A"/>
<path d="M14.8376 12.165C14.8378 12.1648 14.8378 12.1646 14.8377 12.1644C14.1749 11.1567 13.0459 10.5555 11.8173 10.5555C10.5885 10.5555 9.45998 11.1574 8.79661 12.1647L7.199 14.5931C6.93376 14.9959 6.81156 15.4617 6.84535 15.939C6.87914 16.4164 7.06554 16.8613 7.38483 17.2251C7.70413 17.5889 8.12592 17.8374 8.60514 17.9439C9.08437 18.0503 9.57486 18.0048 10.0248 17.8122L10.0546 17.799C11.1865 17.3239 12.4801 17.3283 13.6092 17.8122C13.9003 17.9367 14.2089 17.9998 14.5203 17.9998C14.6898 17.9998 14.8599 17.9812 15.0288 17.9439C15.508 17.8374 15.9298 17.5889 16.2491 17.2251C16.5684 16.8613 16.7548 16.4164 16.7886 15.939C16.8224 15.4617 16.7002 14.9959 16.435 14.5931L14.8376 12.1656C14.8374 12.1654 14.8375 12.1652 14.8376 12.165Z" fill="white"/>
<path d="M7.16384 11.2503C7.16384 11.2501 7.16394 11.2499 7.16409 11.2499C7.55591 11.1034 7.85315 10.7956 8.00178 10.3842C8.14313 9.99244 8.13186 9.54966 7.96912 9.13816C7.80637 8.72666 7.51073 8.39087 7.13568 8.1928C6.74205 7.98431 6.30956 7.95029 5.91875 8.09733C5.13205 8.39197 4.77108 9.33897 5.11403 10.2092C5.38828 10.9016 6.02687 11.3389 6.67335 11.3389C6.83826 11.3389 7.00373 11.3104 7.16358 11.2506C7.16373 11.2506 7.16384 11.2504 7.16384 11.2503Z" fill="white"/>
<path d="M10.4319 9.41428C11.4151 9.41428 12.2153 8.52598 12.2153 7.43468C12.2153 6.34337 11.4151 5.45453 10.4319 5.45453C9.44865 5.45453 8.64844 6.34282 8.64844 7.43468C8.64844 8.52653 9.44865 9.41428 10.4319 9.41428Z" fill="white"/>
<path d="M14.2776 9.90043C14.2778 9.90043 14.278 9.90046 14.2782 9.90051C14.4296 9.94929 14.5838 9.97285 14.7374 9.97285C15.4549 9.97285 16.1537 9.46424 16.4201 8.68238C16.5738 8.23247 16.5637 7.75678 16.3914 7.34308C16.2117 6.90963 15.8778 6.59524 15.4526 6.45753C15.0269 6.31981 14.5668 6.37742 14.1563 6.61939C13.7643 6.85037 13.4642 7.22566 13.3105 7.67557C12.9867 8.62467 13.4202 9.62259 14.2771 9.90034C14.2773 9.9004 14.2775 9.90043 14.2776 9.90043Z" fill="white"/>
<path d="M18.7485 9.93739C18.7485 9.93722 18.7484 9.93706 18.7483 9.93696C18.0703 9.44885 17.0562 9.66012 16.4875 10.409C15.9193 11.1579 16.0083 12.1642 16.6852 12.653C16.9324 12.8313 17.2241 12.9164 17.5226 12.9164C18.0429 12.9164 18.5846 12.6574 18.9467 12.1817C19.5149 11.4329 19.426 10.4268 18.7487 9.93783C18.7486 9.93773 18.7485 9.93756 18.7485 9.93739Z" fill="white"/>
</svg>
